Fraunces-ItalicSemiboldOpMid.ufo
<glyph name="exclam" format="2">
  <advance width="243.85416666666666"/>
  <unicode hex="0021"/>
  <outline>
    <contour>
      <point x="313.3333333333333" y="719.0625" type="curve" smooth="yes"/>
      <point x="348.05555555555554" y="719.0625"/>
      <point x="368.63194444444446" y="692.0138888888889"/>
      <point x="368.63194444444446" y="659.7708333333334" type="curve" smooth="yes"/>
      <point x="368.63194444444446" y="647.2430555555555"/>
      <point x="367.31944444444446" y="638.2430555555555"/>
      <point x="357.63194444444446" y="613.7152777777778" type="curve" smooth="yes"/>
      <point x="207.68055555555554" y="214.97222222222223" type="line" smooth="yes"/>
      <point x="198.16666666666666" y="193.61805555555554"/>
      <point x="187.83333333333334" y="186.625"/>
      <point x="173.90277777777777" y="186.625" type="curve" smooth="yes"/>
      <point x="159.97222222222223" y="186.625"/>
      <point x="153.09027777777777" y="198.08333333333334"/>
      <point x="155.59722222222223" y="218.0625" type="curve" smooth="yes"/>
      <point x="226.61111111111111" y="626.3263888888889" type="line" smooth="yes"/>
      <point x="229.13888888888889" y="639.8541666666666"/>
      <point x="231.66666666666666" y="649.3819444444445"/>
      <point x="234.66666666666666" y="658.9097222222222" type="curve" smooth="yes"/>
      <point x="246.84027777777777" y="694.8125"/>
      <point x="275.77777777777777" y="719.0625"/>
    </contour>
    <component base="period" xScale="0.9329999999999999" yScale="0.9329999999999999" xOffset="-1.1597222222222223" yOffset="-1.0"/>
  </outline>
</glyph>
<glyph name="numbersign" format="2">
  <advance width="590.9513888888889"/>
  <unicode hex="0023"/>
  <outline>
    <contour>
      <point x="280.97222222222223" y="319.59027777777777" type="curve" smooth="yes"/>
      <point x="199.27777777777777" y="113.38194444444444"/>
      <point x="145.90972222222223" y="79.45138888888889"/>
      <point x="134.00694444444446" y="29.583333333333332" type="curve" smooth="yes"/>
      <point x="127.9375" y="2.1944444444444446"/>
      <point x="142.29166666666666" y="-16.0"/>
      <point x="170.58333333333334" y="-16.0" type="curve" smooth="yes"/>
      <point x="192.08333333333334" y="-16.0"/>
      <point x="221.31944444444446" y="-6.402777777777778"/>
      <point x="234.04166666666666" y="27.583333333333332" type="curve" smooth="yes"/>
      <point x="251.29166666666666" y="74.41666666666667"/>
      <point x="233.59722222222223" y="113.5625"/>
      <point x="314.5486111111111" y="319.59027777777777" type="curve" smooth="yes"/>
      <point x="393.0625" y="522.2708333333334"/>
      <point x="446.5763888888889" y="558.7638888888889"/>
      <point x="457.2986111111111" y="609.0694444444445" type="curve" smooth="yes"/>
      <point x="463.9861111111111" y="636.9861111111111"/>
      <point x="449.9236111111111" y="654.1805555555555"/>
      <point x="422.7013888888889" y="654.1805555555555" type="curve" smooth="yes"/>
      <point x="393.59027777777777" y="654.1805555555555"/>
      <point x="367.9513888888889" y="641.5486111111111"/>
      <point x="355.44444444444446" y="607.0694444444445" type="curve" smooth="yes"/>
      <point x="335.06944444444446" y="552.7291666666666"/>
      <point x="363.7986111111111" y="531.9166666666666"/>
    </contour>
    <contour>
      <point x="452.9791666666667" y="319.59027777777777" type="curve" smooth="yes"/>
      <point x="376.11805555555554" y="114.38194444444444"/>
      <point x="318.4791666666667" y="79.45138888888889"/>
      <point x="306.5763888888889" y="29.583333333333332" type="curve" smooth="yes"/>
      <point x="300.50694444444446" y="2.1944444444444446"/>
      <point x="315.9861111111111" y="-16.0"/>
      <point x="343.15277777777777" y="-16.0" type="curve" smooth="yes"/>
      <point x="365.21527777777777" y="-16.0"/>
      <point x="394.9791666666667" y="-6.402777777777778"/>
      <point x="407.6111111111111" y="27.583333333333332" type="curve" smooth="yes"/>
      <point x="424.8611111111111" y="74.94444444444444"/>
      <point x="406.5486111111111" y="109.77777777777777"/>
      <point x="487.11805555555554" y="319.59027777777777" type="curve" smooth="yes"/>
      <point x="564.0138888888889" y="522.2708333333334"/>
      <point x="619.7083333333334" y="558.7638888888889"/>
      <point x="630.4305555555555" y="609.0694444444445" type="curve" smooth="yes"/>
      <point x="637.1180555555555" y="636.9861111111111"/>
      <point x="623.0555555555555" y="654.1805555555555"/>
      <point x="596.9236111111111" y="654.1805555555555" type="curve" smooth="yes"/>
      <point x="565.1597222222222" y="654.1805555555555"/>
      <point x="542.7361111111111" y="641.0208333333334"/>
      <point x="529.5763888888889" y="607.0694444444445" type="curve" smooth="yes"/>
      <point x="507.6388888888889" y="554.8194444444445"/>
      <point x="534.625" y="537.0902777777778"/>
    </contour>
    <contour>
      <point x="405.1041666666667" y="392.5486111111111" type="curve" smooth="yes"/>
      <point x="548.5555555555555" y="392.5486111111111"/>
      <point x="571.9097222222222" y="357.18055555555554"/>
      <point x="610.1944444444445" y="357.18055555555554" type="curve" smooth="yes"/>
      <point x="649.0833333333334" y="357.18055555555554"/>
      <point x="674.2152777777778" y="383.875"/>
      <point x="680.8125" y="408.9166666666667" type="curve" smooth="yes"/>
      <point x="687.5" y="434.19444444444446"/>
      <point x="677.3055555555555" y="457.2916666666667"/>
      <point x="641.9791666666666" y="457.2916666666667" type="curve" smooth="yes"/>
      <point x="605.1319444444445" y="457.2916666666667"/>
      <point x="560.0763888888889" y="424.6875"/>
      <point x="414.15277777777777" y="425.125" type="curve" smooth="yes"/>
      <point x="272.1736111111111" y="425.125"/>
      <point x="246.76388888888889" y="458.2916666666667"/>
      <point x="208.91666666666666" y="458.2916666666667" type="curve" smooth="yes"/>
      <point x="170.02777777777777" y="458.2916666666667"/>
      <point x="147.58333333333334" y="435.6666666666667"/>
      <point x="141.42361111111111" y="410.44444444444446" type="curve" smooth="yes"/>
      <point x="133.17361111111111" y="380.75"/>
      <point x="144.80555555555554" y="360.18055555555554"/>
      <point x="183.78472222222223" y="359.18055555555554" type="curve" smooth="yes"/>
      <point x="219.54166666666666" y="358.18055555555554"/>
      <point x="263.125" y="392.5486111111111"/>
    </contour>
    <contour>
      <point x="345.9236111111111" y="215.77083333333334" type="curve" smooth="yes"/>
      <point x="489.375" y="215.77083333333334"/>
      <point x="513.7847222222222" y="185.69444444444446"/>
      <point x="552.6319444444445" y="185.69444444444446" type="curve" smooth="yes"/>
      <point x="591.5208333333334" y="185.69444444444446"/>
      <point x="614.9097222222222" y="210.73611111111111"/>
      <point x="622.0694444444445" y="236.90277777777777" type="curve" smooth="yes"/>
      <point x="628.8472222222222" y="259.47222222222223"/>
      <point x="618.6875" y="282.6388888888889"/>
      <point x="581.7986111111111" y="282.6388888888889" type="curve" smooth="yes"/>
      <point x="546.5138888888889" y="282.6388888888889"/>
      <point x="502.36805555555554" y="249.47222222222223"/>
      <point x="355.44444444444446" y="249.90972222222223" type="curve" smooth="yes"/>
      <point x="213.46527777777777" y="249.90972222222223"/>
      <point x="187.58333333333334" y="283.6388888888889"/>
      <point x="149.29861111111111" y="283.6388888888889" type="curve" smooth="yes"/>
      <point x="111.40972222222223" y="283.6388888888889"/>
      <point x="88.84027777777777" y="260.94444444444446"/>
      <point x="83.24305555555556" y="237.90277777777777" type="curve" smooth="yes"/>
      <point x="74.52083333333333" y="208.13888888888889"/>
      <point x="86.71527777777777" y="188.16666666666666"/>
      <point x="123.54861111111111" y="187.69444444444446" type="curve" smooth="yes"/>
      <point x="161.85416666666666" y="187.22222222222223"/>
      <point x="202.94444444444446" y="215.77083333333334"/>
    </contour>
  </outline>
</glyph>
<glyph name="ampersand" format="2">
  <advance width="629.2916666666666"/>
  <unicode hex="0026"/>
  <outline>
    <contour>
      <point x="182.27777777777777" y="155.25" type="line" smooth="yes"/>
      <point x="33.051199670194336" y="38.569118180082064"/>
      <point x="-21.458333333333332" y="-52.1875"/>
      <point x="-21.458333333333332" y="-145.375" type="curve" smooth="yes"/>
      <point x="-21.458333333333332" y="-211.0625"/>
      <point x="12.317550505050509" y="-245.0"/>
      <point x="56.138888888888886" y="-245.0" type="curve" smooth="yes"/>
      <point x="96.11302681992338" y="-245.0"/>
      <point x="126.19444444444444" y="-216.18534482758622"/>
      <point x="126.19444444444444" y="-180.68055555555554" type="curve" smooth="yes"/>
      <point x="126.19444444444444" y="-138.84722222222223"/>
      <point x="79.22222222222223" y="-121.43055555555556"/>
      <point x="79.22222222222223" y="-76.59722222222223" type="curve" smooth="yes"/>
      <point x="79.22222222222223" y="-15.14640022675737"/>
      <point x="107.22222222222223" y="44.99305555555556"/>
      <point x="217.875" y="131.55555555555554" type="curve" smooth="yes"/>
      <point x="543.2916666666666" y="383.27777777777777" type="line" smooth="yes"/>
      <point x="663.8888888888889" y="476.03472222222223"/>
      <point x="717.3888888888889" y="537.2291666666666"/>
      <point x="717.3888888888889" y="625.9166666666666" type="curve" smooth="yes"/>
      <point x="717.3888888888889" y="682.1666666666666"/>
      <point x="681.902608401084" y="715.0"/>
      <point x="643.8472222222222" y="715.0" type="curve" smooth="yes"/>
      <point x="601.9361897274633" y="715.0"/>
      <point x="571.9305555555555" y="683.3680555555555"/>
      <point x="571.9305555555555" y="654.8055555555555" type="curve" smooth="yes"/>
      <point x="571.9305555555555" y="619.3888888888889"/>
      <point x="609.7916666666666" y="598.9722222222222"/>
      <point x="609.7916666666666" y="554.0833333333334" type="curve" smooth="yes"/>
      <point x="609.7916666666666" y="502.09941520467834"/>
      <point x="578.4257734002015" y="466.0372024182966"/>
      <point x="506.69444444444446" y="408.97222222222223" type="curve" smooth="yes"/>
    </contour>
    <contour>
      <point x="551.8055555555555" y="161.95833333333334" type="curve" smooth="yes"/>
      <point x="551.8055555555555" y="100.80826497265573"/>
      <point x="492.83497912652535" y="45.604166666666664"/>
      <point x="405.8888888888889" y="45.604166666666664" type="curve" smooth="yes"/>
      <point x="305.3148148148148" y="45.604166666666664"/>
      <point x="243.83333333333334" y="114.54214285714286"/>
      <point x="243.83333333333334" y="225.50694444444446" type="curve" smooth="yes"/>
      <point x="243.83333333333334" y="337.0042735042735"/>
      <point x="309.42671650985665" y="419.59027777777777"/>
      <point x="371.59027777777777" y="419.59027777777777" type="curve" smooth="yes"/>
      <point x="405.55555555555554" y="419.59027777777777"/>
      <point x="426.06944444444446" y="395.3387531366983"/>
      <point x="426.06944444444446" y="353.4166666666667" type="curve" smooth="yes"/>
      <point x="426.06944444444446" y="318.73015065487556"/>
      <point x="398.65494989598375" y="272.4807463889983"/>
      <point x="411.18055555555554" y="281.90972222222223" type="curve" smooth="yes"/>
      <point x="457.55555555555554" y="316.7638888888889"/>
      <point x="490.6458333333333" y="339.1388888888889"/>
      <point x="517.0416666666666" y="339.1388888888889" type="curve" smooth="yes"/>
      <point x="536.9583333333334" y="339.1388888888889"/>
      <point x="549.5694444444445" y="355.0"/>
      <point x="549.5694444444445" y="375.27777777777777" type="curve" smooth="yes"/>
      <point x="549.5694444444445" y="425.0936259920635"/>
      <point x="490.57638888888886" y="465.6388888888889"/>
      <point x="407.3888888888889" y="465.6388888888889" type="curve" smooth="yes"/>
      <point x="260.65408466584665" y="465.6388888888889"/>
      <point x="136.75" y="323.184271054494"/>
      <point x="136.75" y="175.14583333333334" type="curve" smooth="yes"/>
      <point x="136.75" y="61.41018998272883"/>
      <point x="216.70833333333334" y="-12.36111111111111"/>
      <point x="361.86805555555554" y="-12.36111111111111" type="curve" smooth="yes"/>
      <point x="539.75" y="-12.36111111111111"/>
      <point x="649.5555555555555" y="97.02993295019158"/>
      <point x="649.5555555555555" y="220.72222222222223" type="curve" smooth="yes"/>
      <point x="649.5555555555555" y="273.25694444444446"/>
      <point x="624.2346014492754" y="299.68055555555554"/>
      <point x="582.8958333333334" y="299.68055555555554" type="curve" smooth="yes"/>
      <point x="545.9381602527825" y="299.68055555555554"/>
      <point x="524.4583333333334" y="271.6256808278867"/>
      <point x="524.4583333333334" y="239.99305555555554" type="curve" smooth="yes"/>
      <point x="524.4583333333334" y="211.86638576779023"/>
      <point x="551.8055555555555" y="195.08165760061826"/>
    </contour>
  </outline>
</glyph>
<glyph name="parenleft" format="2">
  <advance width="375.6388888888889"/>
  <unicode hex="0028"/>
  <outline>
    <contour>
      <point x="145.70138888888889" y="299.24305555555554" type="curve" smooth="yes"/>
      <point x="80.99305555555556" y="63.31944444444444"/>
      <point x="163.63194444444446" y="-110.29166666666667"/>
      <point x="290.38194444444446" y="-159.51388888888889" type="curve" smooth="yes"/>
      <point x="300.69444444444446" y="-163.32638888888889"/>
      <point x="311.13194444444446" y="-164.45138888888889"/>
      <point x="318.06944444444446" y="-164.45138888888889" type="curve" smooth="yes"/>
      <point x="326.75" y="-164.45138888888889"/>
      <point x="336.0138888888889" y="-157.89583333333334"/>
      <point x="338.6111111111111" y="-147.6875" type="curve" smooth="yes"/>
      <point x="340.6458333333333" y="-141.54861111111111"/>
      <point x="338.5208333333333" y="-135.625"/>
      <point x="328.69444444444446" y="-130.34027777777777" type="curve" smooth="yes"/>
      <point x="225.28472222222223" y="-75.65277777777777"/>
      <point x="201.04166666666666" y="87.14583333333334"/>
      <point x="259.00694444444446" y="299.24305555555554" type="curve" smooth="yes"/>
      <point x="316.9375" y="511.74305555555554"/>
      <point x="431.55555555555554" y="658.2152777777778"/>
      <point x="549.4513888888889" y="712.9930555555555" type="curve" smooth="yes"/>
      <point x="560.2916666666666" y="717.6597222222222"/>
      <point x="567.5069444444445" y="724.2361111111111"/>
      <point x="569.0138888888889" y="732.4652777777778" type="curve" smooth="yes"/>
      <point x="571.0833333333334" y="740.5486111111111"/>
      <point x="566.4513888888889" y="748.1041666666666"/>
      <point x="557.8055555555555" y="748.1041666666666" type="curve" smooth="yes"/>
      <point x="551.3958333333334" y="748.1041666666666"/>
      <point x="543.2083333333334" y="745.2916666666666"/>
      <point x="528.3958333333334" y="740.3541666666666" type="curve" smooth="yes"/>
      <point x="374.28472222222223" y="680.8472222222222"/>
      <point x="203.83333333333334" y="513.6597222222222"/>
    </contour>
  </outline>
</glyph>
<glyph name="asterisk" format="2">
  <advance width="453.75"/>
  <unicode hex="002A"/>
  <outline>
    <contour>
      <point x="378.80555555555554" y="526.5555555555555" type="line"/>
      <point x="401.3888888888889" y="610.9097222222222"/>
      <point x="451.24305555555554" y="630.7847222222222"/>
      <point x="462.5138888888889" y="674.0138888888889" type="curve" smooth="yes"/>
      <point x="473.1458333333333" y="714.4513888888889"/>
      <point x="451.90277777777777" y="732.625"/>
      <point x="424.53472222222223" y="732.625" type="curve" smooth="yes"/>
      <point x="396.93055555555554" y="732.625"/>
      <point x="364.2013888888889" y="713.3958333333334"/>
      <point x="353.0416666666667" y="675.9027777777778" type="curve" smooth="yes"/>
      <point x="340.7708333333333" y="632.6736111111111"/>
      <point x="380.15277777777777" y="611.7291666666666"/>
      <point x="357.13194444444446" y="526.5555555555555" type="curve"/>
    </contour>
    <contour>
      <point x="374.3541666666667" y="536.5486111111111" type="line"/>
      <point x="301.0" y="562.6597222222222"/>
      <point x="309.1875" y="610.9513888888889"/>
      <point x="271.28472222222223" y="624.2222222222222" type="curve" smooth="yes"/>
      <point x="235.88194444444446" y="636.8888888888889"/>
      <point x="206.13194444444446" y="617.6805555555555"/>
      <point x="189.86805555555554" y="591.3125" type="curve" smooth="yes"/>
      <point x="174.54861111111111" y="565.2708333333334"/>
      <point x="175.36805555555554" y="533.0138888888889"/>
      <point x="207.26388888888889" y="520.3472222222222" type="curve" smooth="yes"/>
      <point x="244.63888888888889" y="506.0763888888889"/>
      <point x="288.02777777777777" y="542.4583333333334"/>
      <point x="361.61805555555554" y="515.8194444444445" type="curve"/>
    </contour>
    <contour>
      <point x="361.4166666666667" y="532.4791666666666" type="line"/>
      <point x="293.5208333333333" y="464.7986111111111"/>
      <point x="248.54861111111111" y="474.93055555555554"/>
      <point x="213.64583333333334" y="439.5" type="curve" smooth="yes"/>
      <point x="181.36805555555554" y="406.65972222222223"/>
      <point x="184.40277777777777" y="376.90972222222223"/>
      <point x="201.57638888888889" y="360.6458333333333" type="curve" smooth="yes"/>
      <point x="219.49305555555554" y="344.2361111111111"/>
      <point x="253.13194444444446" y="343.5833333333333"/>
      <point x="283.5208333333333" y="372.9166666666667" type="curve" smooth="yes"/>
      <point x="319.3333333333333" y="407.81944444444446"/>
      <point x="306.7986111111111" y="451.2986111111111"/>
      <point x="375.9513888888889" y="519.8888888888889" type="curve"/>
    </contour>
    <contour>
      <point x="358.4375" y="520.6319444444445" type="line"/>
      <point x="387.3125" y="451.24305555555554"/>
      <point x="351.9861111111111" y="409.8888888888889"/>
      <point x="366.5833333333333" y="373.93055555555554" type="curve" smooth="yes"/>
      <point x="381.28472222222223" y="341.09027777777777"/>
      <point x="413.5416666666667" y="341.59722222222223"/>
      <point x="439.875" y="357.2986111111111" type="curve" smooth="yes"/>
      <point x="467.09722222222223" y="373.09027777777777"/>
      <point x="486.63194444444446" y="404.7291666666667"/>
      <point x="474.49305555555554" y="436.15277777777777" type="curve" smooth="yes"/>
      <point x="460.27777777777777" y="472.0208333333333"/>
      <point x="408.9513888888889" y="463.4861111111111"/>
      <point x="379.0208333333333" y="533.2222222222222" type="curve"/>
    </contour>
    <contour>
      <point x="368.8125" y="516.5625" type="line"/>
      <point x="455.69444444444446" y="542.7291666666666"/>
      <point x="479.6041666666667" y="506.78472222222223"/>
      <point x="523.8333333333334" y="520.0555555555555" type="curve" smooth="yes"/>
      <point x="565.3055555555555" y="532.7222222222222"/>
      <point x="582.9166666666666" y="563.0347222222222"/>
      <point x="580.8819444444445" y="588.8402777777778" type="curve" smooth="yes"/>
      <point x="579.8819444444445" y="615.4444444444445"/>
      <point x="558.6180555555555" y="636.0694444444445"/>
      <point x="520.2152777777778" y="625.4375" type="curve" smooth="yes"/>
      <point x="474.8958333333333" y="612.6041666666666"/>
      <point x="455.4236111111111" y="563.3125"/>
      <point x="367.8125" y="537.2916666666666" type="curve"/>
    </contour>
  </outline>
</glyph>
<glyph name="plus" format="2">
  <advance width="498.52777777777777"/>
  <unicode hex="002B"/>
  <outline>
    <contour>
      <point x="120.27777777777777" y="303.52777777777777" type="curve" smooth="yes"/>
      <point x="114.64583333333333" y="279.86805555555554"/>
      <point x="131.52777777777777" y="261.3333333333333"/>
      <point x="155.09722222222223" y="261.3333333333333" type="curve" smooth="yes"/>
      <point x="202.06944444444446" y="261.3333333333333"/>
      <point x="266.2986111111111" y="279.55555555555554"/>
      <point x="327.8263888888889" y="279.55555555555554" type="curve" smooth="yes"/>
      <point x="387.1875" y="279.55555555555554"/>
      <point x="441.2916666666667" y="261.3333333333333"/>
      <point x="484.2638888888889" y="261.3333333333333" type="curve" smooth="yes"/>
      <point x="511.9583333333333" y="261.3333333333333"/>
      <point x="534.6180555555555" y="279.86805555555554"/>
      <point x="540.7777777777778" y="303.0" type="curve" smooth="yes"/>
      <point x="546.9375" y="327.13194444444446"/>
      <point x="533.0902777777778" y="346.6666666666667"/>
      <point x="506.9583333333333" y="346.6666666666667" type="curve" smooth="yes"/>
      <point x="463.4236111111111" y="346.6666666666667"/>
      <point x="399.59027777777777" y="328.44444444444446"/>
      <point x="340.2291666666667" y="328.44444444444446" type="curve" smooth="yes"/>
      <point x="274.34027777777777" y="328.44444444444446"/>
      <point x="224.76388888888889" y="346.6666666666667"/>
      <point x="178.79166666666666" y="346.6666666666667" type="curve" smooth="yes"/>
      <point x="155.69444444444446" y="346.6666666666667"/>
      <point x="126.4375" y="329.24305555555554"/>
    </contour>
    <contour>
      <point x="278.15277777777777" y="91.75" type="curve" smooth="yes"/>
      <point x="302.34027777777777" y="91.75"/>
      <point x="324.4513888888889" y="112.75694444444444"/>
      <point x="330.6111111111111" y="136.88888888888889" type="curve" smooth="yes"/>
      <point x="343.44444444444446" y="184.38888888888889"/>
      <point x="342.75" y="242.41666666666666"/>
      <point x="358.97222222222223" y="305.0" type="curve" smooth="yes"/>
      <point x="373.6666666666667" y="364.8888888888889"/>
      <point x="409.4166666666667" y="424.1388888888889"/>
      <point x="421.25" y="467.1111111111111" type="curve" smooth="yes"/>
      <point x="428.5" y="494.80555555555554"/>
      <point x="414.5625" y="512.25"/>
      <point x="390.375" y="512.25" type="curve" smooth="yes"/>
      <point x="365.15277777777777" y="512.25"/>
      <point x="342.6041666666667" y="493.80555555555554"/>
      <point x="336.44444444444446" y="467.1111111111111" type="curve" smooth="yes"/>
      <point x="324.6111111111111" y="423.6111111111111"/>
      <point x="324.77777777777777" y="365.4166666666667"/>
      <point x="310.0833333333333" y="305.0" type="curve" smooth="yes"/>
      <point x="293.3888888888889" y="239.11111111111111"/>
      <point x="258.1111111111111" y="183.86111111111111"/>
      <point x="246.27777777777777" y="137.88888888888889" type="curve" smooth="yes"/>
      <point x="240.11805555555554" y="115.31944444444444"/>
      <point x="252.96527777777777" y="91.75"/>
    </contour>
  </outline>
</glyph>
<glyph name="hyphen" format="2">
  <advance width="376.6458333333333"/>
  <unicode hex="002D"/>
  <outline>
    <contour>
      <point x="389.8611111111111" y="278.56944444444446" type="curve" smooth="yes"/>
      <point x="141.29166666666666" y="278.56944444444446" type="line" smooth="yes"/>
      <point x="124.61805555555556" y="278.56944444444446"/>
      <point x="116.02777777777777" y="273.0486111111111"/>
      <point x="108.41666666666666" y="256.84722222222223" type="curve" smooth="yes"/>
      <point x="95.39583333333333" y="231.91666666666666" type="line" smooth="yes"/>
      <point x="92.36111111111111" y="224.8125"/>
      <point x="90.79861111111111" y="220.21527777777777"/>
      <point x="90.79861111111111" y="216.14583333333334" type="curve" smooth="yes"/>
      <point x="90.79861111111111" y="203.95833333333334"/>
      <point x="100.95138888888889" y="196.875"/>
      <point x="113.61111111111111" y="196.875" type="curve" smooth="yes"/>
      <point x="358.9791666666667" y="196.875" type="line" smooth="yes"/>
      <point x="377.2708333333333" y="196.875"/>
      <point x="386.3888888888889" y="203.48611111111111"/>
      <point x="394.52777777777777" y="220.74305555555554" type="curve" smooth="yes"/>
      <point x="406.9861111111111" y="244.58333333333334" type="line" smooth="yes"/>
      <point x="411.1111111111111" y="252.77777777777777"/>
      <point x="411.05555555555554" y="256.31944444444446"/>
      <point x="411.05555555555554" y="260.3888888888889" type="curve" smooth="yes"/>
      <point x="411.05555555555554" y="271.4861111111111"/>
      <point x="401.99305555555554" y="278.56944444444446"/>
    </contour>
  </outline>
</glyph>
<glyph name="zero" format="2">
  <advance width="599.1597222222222"/>
  <unicode hex="0030"/>
  <outline>
    <contour>
      <point x="470.7291666666667" y="655.0625" type="curve" smooth="yes"/>
      <point x="315.7708333333333" y="655.0625"/>
      <point x="178.63194444444446" y="532.3125"/>
      <point x="126.19444444444444" y="336.5625" type="curve" smooth="yes"/>
      <point x="64.38194444444444" y="110.83333333333331"/>
      <point x="119.48611111111111" y="-12.36111111111111"/>
      <point x="291.00694444444446" y="-12.36111111111111" type="curve" smooth="yes"/>
      <point x="440.27777777777777" y="-12.36111111111111"/>
      <point x="589.1041666666666" y="103.89583333333337"/>
      <point x="648.5763888888889" y="325.3125" type="curve" smooth="yes"/>
      <point x="703.1736111111111" y="531.9375"/>
      <point x="634.4375" y="655.0625"/>
    </contour>
    <contour>
      <point x="506.1875" y="289.02777777777777" type="curve" smooth="yes"/>
      <point x="456.8333333333333" y="101.27083333333333"/>
      <point x="383.125" y="35.18055555555556"/>
      <point x="309.38194444444446" y="35.18055555555556" type="curve" smooth="yes"/>
      <point x="233.56944444444446" y="35.18055555555556"/>
      <point x="201.0" y="132.25694444444446"/>
      <point x="263.49305555555554" y="365.84722222222223" type="curve" smooth="yes"/>
      <point x="307.625" y="529.1944444444445"/>
      <point x="373.80555555555554" y="607.5208333333334"/>
      <point x="455.7916666666667" y="607.5208333333334" type="curve" smooth="yes"/>
      <point x="532.4166666666666" y="607.5208333333334"/>
      <point x="564.1388888888889" y="506.7916666666667"/>
    </contour>
  </outline>
</glyph>
<glyph name="one" format="2">
  <advance width="418.4166666666667"/>
  <unicode hex="0031"/>
  <outline>
    <contour>
      <point x="209.10416666666666" y="561.3263888888889" type="line" smooth="yes"/>
      <point x="190.38888888888889" y="561.3263888888889"/>
      <point x="183.75694444444446" y="570.9375"/>
      <point x="187.91666666666666" y="584.6180555555555" type="curve" smooth="yes"/>
      <point x="191.42361111111111" y="598.2986111111111"/>
      <point x="205.54166666666666" y="608.3819444444445"/>
      <point x="223.63888888888889" y="608.3819444444445" type="curve" smooth="yes"/>
      <point x="264.18055555555554" y="608.3819444444445" type="line" smooth="yes"/>
      <point x="316.5486111111111" y="608.3819444444445"/>
      <point x="352.9513888888889" y="616.9722222222222"/>
      <point x="393.7083333333333" y="648.4097222222222" type="curve" smooth="yes"/>
      <point x="406.2083333333333" y="657.7152777777778"/>
      <point x="415.6388888888889" y="661.6041666666666"/>
      <point x="428.6111111111111" y="661.6041666666666" type="curve" smooth="yes"/>
      <point x="443.7083333333333" y="661.6041666666666"/>
      <point x="450.2291666666667" y="653.0277777777778"/>
      <point x="445.21527777777777" y="632.9513888888889" type="curve" smooth="yes"/>
      <point x="303.8333333333333" y="106.5" type="line" smooth="yes"/>
      <point x="295.7638888888889" y="76.00694444444444"/>
      <point x="309.1111111111111" y="55.291666666666664"/>
      <point x="332.3263888888889" y="51.111111111111114" type="curve" smooth="yes"/>
      <point x="381.8958333333333" y="41.83333333333333" type="line" smooth="yes"/>
      <point x="396.43055555555554" y="39.70833333333333"/>
      <point x="405.0763888888889" y="33.75"/>
      <point x="402.00694444444446" y="21.59722222222222" type="curve" smooth="yes"/>
      <point x="397.99305555555554" y="6.520833333333333"/>
      <point x="387.96527777777777" y="0.0"/>
      <point x="370.8333333333333" y="0.0" type="curve" smooth="yes"/>
      <point x="53.111111111111114" y="0.0" type="line" smooth="yes"/>
      <point x="36.541666666666664" y="0.0"/>
      <point x="28.493055555555557" y="7.048611111111111"/>
      <point x="32.50694444444444" y="22.65277777777778" type="curve" smooth="yes"/>
      <point x="36.013888888888886" y="36.27777777777778"/>
      <point x="48.13194444444444" y="42.14583333333333"/>
      <point x="66.17361111111111" y="44.83333333333333" type="curve" smooth="yes"/>
      <point x="116.32638888888889" y="52.52777777777778" type="line" smooth="yes"/>
      <point x="147.34027777777777" y="57.27083333333333"/>
      <point x="176.20833333333334" y="74.47916666666667"/>
      <point x="184.27777777777777" y="106.5" type="curve" smooth="yes"/>
      <point x="285.5208333333333" y="484.1041666666667" type="line" smooth="yes"/>
      <point x="299.88194444444446" y="538.3125"/>
      <point x="284.28472222222223" y="561.3263888888889"/>
      <point x="247.90972222222223" y="561.3263888888889" type="curve" smooth="yes"/>
    </contour>
  </outline>
</glyph>
<glyph name="two" format="2">
  <advance width="518.4861111111111"/>
  <unicode hex="0032"/>
  <outline>
    <contour>
      <point x="290.4166666666667" y="287.2986111111111" type="curve" smooth="yes"/>
      <point x="134.09027777777777" y="215.4375"/>
      <point x="57.84027777777778" y="122.78472222222223"/>
      <point x="36.18055555555556" y="35.46527777777778" type="curve" smooth="yes"/>
      <point x="29.041666666666664" y="4.930555555555555"/>
      <point x="41.40972222222222" y="-12.36111111111111"/>
      <point x="67.3125" y="-12.36111111111111" type="curve" smooth="yes"/>
      <point x="97.88888888888889" y="-12.36111111111111"/>
      <point x="115.14583333333334" y="54.59027777777778"/>
      <point x="166.65972222222223" y="54.59027777777778" type="curve" smooth="yes"/>
      <point x="237.54166666666666" y="54.59027777777778"/>
      <point x="271.1388888888889" y="-12.36111111111111"/>
      <point x="360.0763888888889" y="-12.36111111111111" type="curve" smooth="yes"/>
      <point x="447.49305555555554" y="-12.36111111111111"/>
      <point x="513.7777777777778" y="40.9375"/>
      <point x="536.5763888888889" y="137.02083333333334" type="curve" smooth="yes"/>
      <point x="540.2083333333334" y="155.83333333333334"/>
      <point x="535.3611111111111" y="166.42361111111111"/>
      <point x="520.4861111111111" y="166.42361111111111" type="curve" smooth="yes"/>
      <point x="510.15277777777777" y="166.42361111111111"/>
      <point x="499.38194444444446" y="160.13888888888889"/>
      <point x="492.53472222222223" y="146.77083333333334" type="curve" smooth="yes"/>
      <point x="470.2013888888889" y="108.61805555555556"/>
      <point x="451.18055555555554" y="95.06944444444444"/>
      <point x="410.9375" y="95.06944444444444" type="curve" smooth="yes"/>
      <point x="350.5763888888889" y="95.06944444444444"/>
      <point x="303.86805555555554" y="145.34027777777777"/>
      <point x="218.73611111111111" y="145.34027777777777" type="curve" smooth="yes"/>
      <point x="142.45833333333334" y="145.34027777777777"/>
      <point x="92.86111111111111" y="84.40972222222223"/>
      <point x="77.11805555555556" y="20.95138888888889" type="curve"/>
      <point x="94.29166666666666" y="21.42361111111111" type="line"/>
      <point x="114.33333333333333" y="103.97916666666667"/>
      <point x="160.01388888888889" y="169.88888888888889"/>
      <point x="316.36805555555554" y="241.95138888888889" type="curve" smooth="yes"/>
      <point x="505.48585463953617" y="330.5481574623352"/>
      <point x="583.2034704211253" y="395.32447181218754"/>
      <point x="607.7013888888889" y="490.09722222222223" type="curve" smooth="yes"/>
      <point x="631.3541666666666" y="584.3958333333334"/>
      <point x="571.8263888888889" y="655.625"/>
      <point x="438.125" y="655.625" type="curve" smooth="yes"/>
      <point x="296.125" y="655.625"/>
      <point x="194.63194444444446" y="575.6666666666666"/>
      <point x="177.41666666666666" y="500.56944444444446" type="curve" smooth="yes"/>
      <point x="166.90972222222223" y="450.6666666666667"/>
      <point x="187.89583333333334" y="420.9583333333333"/>
      <point x="227.04166666666666" y="420.9583333333333" type="curve" smooth="yes"/>
      <point x="263.7291666666667" y="420.9583333333333"/>
      <point x="299.5138888888889" y="450.90972222222223"/>
      <point x="310.7986111111111" y="494.74305555555554" type="curve" smooth="yes"/>
      <point x="317.65277777777777" y="519.125" type="line" smooth="yes"/>
      <point x="333.47222222222223" y="579.8055555555555"/>
      <point x="366.7361111111111" y="613.1388888888889"/>
      <point x="419.5208333333333" y="613.1388888888889" type="curve" smooth="yes"/>
      <point x="467.3611111111111" y="613.1388888888889"/>
      <point x="500.2638888888889" y="570.3680555555555"/>
      <point x="480.40277777777777" y="491.09722222222223" type="curve" smooth="yes"/>
      <point x="457.4293273725812" y="396.1149564199052"/>
      <point x="401.6000137157985" y="338.9880251073111"/>
    </contour>
  </outline>
</glyph>
<glyph name="three" format="2">
  <advance width="486.5625"/>
  <unicode hex="0033"/>
  <outline>
    <contour>
      <point x="313.3888888888889" y="338.53472222222223" type="line"/>
      <point x="591.5763888888889" y="578.0" type="line" smooth="yes"/>
      <point x="607.9305555555555" y="591.2847222222222"/>
      <point x="618.7638888888889" y="606.9097222222222"/>
      <point x="621.8888888888889" y="618.6319444444445" type="curve" smooth="yes"/>
      <point x="625.9027777777778" y="634.3611111111111"/>
      <point x="616.0902777777778" y="645.5138888888889"/>
      <point x="596.7152777777778" y="645.5138888888889" type="curve" smooth="yes"/>
      <point x="275.09027777777777" y="645.5138888888889" type="line" smooth="yes"/>
      <point x="250.40972222222223" y="645.5138888888889"/>
      <point x="230.8125" y="631.6527777777778"/>
      <point x="223.38194444444446" y="611.2708333333334" type="curve" smooth="yes"/>
      <point x="174.4375" y="486.4166666666667" type="line" smooth="yes"/>
      <point x="168.49305555555554" y="470.4791666666667"/>
      <point x="176.72222222222223" y="463.0833333333333"/>
      <point x="189.0" y="463.0833333333333" type="curve" smooth="yes"/>
      <point x="200.44444444444446" y="463.0833333333333"/>
      <point x="211.29166666666666" y="471.93055555555554"/>
      <point x="218.22916666666666" y="480.72222222222223" type="curve" smooth="yes"/>
      <point x="255.51388888888889" y="528.1944444444445" type="line" smooth="yes"/>
      <point x="271.3263888888889" y="548.4791666666666"/>
      <point x="289.3541666666667" y="555.8958333333334"/>
      <point x="313.86805555555554" y="555.8958333333334" type="curve" smooth="yes"/>
      <point x="541.1527777777778" y="555.8958333333334" type="line"/>
      <point x="541.2083333333334" y="593.0347222222222" type="line"/>
      <point x="269.31944444444446" y="357.88194444444446" type="line" smooth="yes"/>
      <point x="258.36805555555554" y="349.61805555555554"/>
      <point x="249.97916666666666" y="340.31944444444446"/>
      <point x="247.47222222222223" y="329.9861111111111" type="curve" smooth="yes"/>
      <point x="243.875" y="317.9236111111111"/>
      <point x="252.57638888888889" y="309.40277777777777"/>
      <point x="267.81944444444446" y="309.40277777777777" type="curve" smooth="yes"/>
      <point x="300.74305555555554" y="309.40277777777777" type="line" smooth="yes"/>
      <point x="374.4791666666667" y="309.40277777777777"/>
      <point x="412.81944444444446" y="262.7361111111111"/>
      <point x="386.34027777777777" y="165.09027777777777" type="curve" smooth="yes"/>
      <point x="365.84722222222223" y="86.72222222222223"/>
      <point x="309.0486111111111" y="27.51388888888889"/>
      <point x="250.35416666666666" y="26.51388888888889" type="curve" smooth="yes"/>
      <point x="199.60416666666666" y="25.51388888888889"/>
      <point x="180.34027777777777" y="60.104166666666664"/>
      <point x="191.83333333333334" y="102.65972222222223" type="curve" smooth="yes"/>
      <point x="200.52083333333334" y="135.40972222222223" type="line" smooth="yes"/>
      <point x="211.15277777777777" y="176.55555555555554"/>
      <point x="190.41666666666666" y="205.50694444444446"/>
      <point x="156.04861111111111" y="205.50694444444446" type="curve" smooth="yes"/>
      <point x="116.50694444444444" y="205.50694444444446"/>
      <point x="75.58333333333333" y="174.86805555555554"/>
      <point x="65.47916666666666" y="133.47222222222223" type="curve" smooth="yes"/>
      <point x="43.31944444444444" y="52.75694444444444"/>
      <point x="96.31944444444444" y="-12.36111111111111"/>
      <point x="229.67361111111111" y="-12.36111111111111" type="curve" smooth="yes"/>
      <point x="359.75694444444446" y="-12.36111111111111"/>
      <point x="474.88194444444446" y="69.875"/>
      <point x="505.71527777777777" y="187.625" type="curve" smooth="yes"/>
      <point x="536.8958333333334" y="302.6388888888889"/>
      <point x="463.8888888888889" y="354.21527777777777"/>
      <point x="328.09027777777777" y="354.21527777777777" type="curve" smooth="yes"/>
      <point x="322.9791666666667" y="354.21527777777777"/>
      <point x="307.50694444444446" y="354.21527777777777"/>
      <point x="300.86805555555554" y="354.21527777777777" type="curve"/>
    </contour>
  </outline>
</glyph>
<glyph name="five" format="2">
  <advance width="540.0625"/>
  <unicode hex="0035"/>
  <outline>
    <contour>
      <point x="80.3125" y="134.875" type="curve" smooth="yes"/>
      <point x="62.75" y="53.9375"/>
      <point x="132.8125" y="-14.4375"/>
      <point x="241.8125" y="-14.4375" type="curve" smooth="yes"/>
      <point x="388.8125" y="-14.4375"/>
      <point x="527.625" y="66.625"/>
      <point x="555.9375" y="189.5625" type="curve" smooth="yes"/>
      <point x="585.1875" y="315.0"/>
      <point x="510.75" y="399.0625"/>
      <point x="366.625" y="399.0625" type="curve" smooth="yes"/>
      <point x="303.875" y="399.0625"/>
      <point x="240.84279622254044" y="378.436991878773"/>
      <point x="192.25" y="323.125" type="curve"/>
      <point x="224.4375" y="307.5" type="line"/>
      <point x="300.875" y="589.5" type="line"/>
      <point x="263.6875" y="547.75" type="line"/>
      <point x="280.51056086784035" y="503.2635043524258"/>
      <point x="339.0254934210526" y="475.0625"/>
      <point x="418.375" y="475.0625" type="curve" smooth="yes"/>
      <point x="536.8595971563981" y="475.0625"/>
      <point x="640.970743421496" y="541.0558453967321"/>
      <point x="659.0" y="624.4375" type="curve" smooth="yes"/>
      <point x="664.8125" y="646.5625"/>
      <point x="652.75" y="656.625"/>
      <point x="636.6875" y="656.625" type="curve" smooth="yes"/>
      <point x="621.3125" y="656.625"/>
      <point x="608.0625" y="648.0625"/>
      <point x="594.375" y="628.8125" type="curve" smooth="yes"/>
      <point x="569.1884156174535" y="598.1240459281927"/>
      <point x="535.4861111111111" y="588.75"/>
      <point x="495.0" y="588.75" type="curve" smooth="yes"/>
      <point x="408.5535179640719" y="588.75"/>
      <point x="361.65148305084745" y="655.625"/>
      <point x="302.25" y="655.625" type="curve" smooth="yes"/>
      <point x="263.3125" y="655.625"/>
      <point x="243.625" y="635.0625"/>
      <point x="234.0625" y="602.5" type="curve" smooth="yes"/>
      <point x="152.0625" y="310.1875" type="line" smooth="yes"/>
      <point x="145.25" y="285.1875"/>
      <point x="160.75" y="264.3125"/>
      <point x="179.25" y="264.3125" type="curve" smooth="yes"/>
      <point x="193.9375" y="264.3125"/>
      <point x="212.75" y="271.1875"/>
      <point x="230.4375" y="289.3125" type="curve" smooth="yes"/>
      <point x="260.7332173382781" y="320.57904753660995"/>
      <point x="296.0" y="329.25"/>
      <point x="329.0625" y="329.25" type="curve" smooth="yes"/>
      <point x="408.8125" y="329.25"/>
      <point x="440.125" y="277.1875"/>
      <point x="417.25" y="181.8125" type="curve" smooth="yes"/>
      <point x="397.375" y="93.625"/>
      <point x="340.875" y="42.75"/>
      <point x="276.8125" y="42.75" type="curve" smooth="yes"/>
      <point x="233.25" y="42.75"/>
      <point x="211.9375" y="71.3125"/>
      <point x="219.0625" y="101.875" type="curve" smooth="yes"/>
      <point x="226.0625" y="133.875" type="line" smooth="yes"/>
      <point x="236.75" y="182.75"/>
      <point x="210.6875" y="214.25"/>
      <point x="166.6875" y="214.25" type="curve" smooth="yes"/>
      <point x="129.0625" y="214.25"/>
      <point x="91.0" y="180.1875"/>
    </contour>
  </outline>
</glyph>
<glyph name="six" format="2">
  <advance width="587.125"/>
  <unicode hex="0036"/>
  <outline>
    <contour>
      <point x="491.6875" y="655.625" type="curve" smooth="yes"/>
      <point x="270.0625" y="655.625"/>
      <point x="114.6875" y="438.125"/>
      <point x="114.6875" y="189.5" type="curve" smooth="yes"/>
      <point x="114.6875" y="54.0"/>
      <point x="184.91589506172838" y="-15.0"/>
      <point x="311.4375" y="-15.0" type="curve" smooth="yes"/>
      <point x="486.63139931740614" y="-15.0"/>
      <point x="609.0625" y="122.375"/>
      <point x="609.0625" y="261.625" type="curve" smooth="yes"/>
      <point x="609.0625" y="354.875"/>
      <point x="547.875" y="410.0625"/>
      <point x="449.3125" y="410.0625" type="curve" smooth="yes"/>
      <point x="326.9375" y="410.0625"/>
      <point x="224.0625" y="328.5"/>
      <point x="195.625" y="219.4375" type="curve"/>
      <point x="237.5" y="205.4375" type="line"/>
      <point x="257.08537156927906" y="282.21419912018825"/>
      <point x="326.8567251461988" y="337.0625"/>
      <point x="394.875" y="337.0625" type="curve" smooth="yes"/>
      <point x="443.13505747126436" y="337.0625"/>
      <point x="475.25" y="301.04188829787233"/>
      <point x="475.25" y="227.875" type="curve" smooth="yes"/>
      <point x="475.25" y="123.509900990099"/>
      <point x="412.8828125" y="49.9375"/>
      <point x="339.875" y="49.9375" type="curve" smooth="yes"/>
      <point x="285.34722222222223" y="49.9375"/>
      <point x="245.5" y="84.125"/>
      <point x="245.5" y="171.0" type="curve" smooth="yes"/>
      <point x="245.5" y="427.0630868544601"/>
      <point x="366.7420212765958" y="595.1875"/>
      <point x="466.875" y="595.1875" type="curve" smooth="yes"/>
      <point x="511.2375" y="595.1875"/>
      <point x="530.8125" y="569.6932692307693"/>
      <point x="530.8125" y="534.8125" type="curve" smooth="yes"/>
      <point x="530.8125" y="521.25"/>
      <point x="530.375" y="516.9754901960785"/>
      <point x="530.375" y="503.25" type="curve" smooth="yes"/>
      <point x="530.375" y="465.0"/>
      <point x="558.6875" y="441.6875"/>
      <point x="598.9375" y="441.6875" type="curve" smooth="yes"/>
      <point x="645.125" y="441.6875"/>
      <point x="681.1875" y="481.875"/>
      <point x="681.1875" y="530.1875" type="curve" smooth="yes"/>
      <point x="681.1875" y="601.3125"/>
      <point x="621.875" y="655.625"/>
    </contour>
  </outline>
</glyph>
<glyph name="seven" format="2">
  <advance width="471.1875"/>
  <unicode hex="0037"/>
  <outline>
    <contour>
      <point x="525.0625" y="546.5" type="curve" smooth="yes"/>
      <point x="436.5" y="461.5625" type="line" smooth="yes"/>
      <point x="210.97186062951957" y="244.99054169652908"/>
      <point x="164.5625" y="152.54018987341775"/>
      <point x="164.5625" y="63.4375" type="curve" smooth="yes"/>
      <point x="164.5625" y="13.1875"/>
      <point x="193.4375" y="-15.0"/>
      <point x="243.5" y="-15.0" type="curve" smooth="yes"/>
      <point x="302.61669534645034" y="-15.0"/>
      <point x="339.25" y="33.75"/>
      <point x="339.25" y="80.5" type="curve" smooth="yes"/>
      <point x="339.25" y="106.75"/>
      <point x="328.25" y="131.4375"/>
      <point x="328.25" y="164.25" type="curve" smooth="yes"/>
      <point x="328.25" y="229.07457983193277"/>
      <point x="366.0578227263132" y="311.8129002613336"/>
      <point x="476.6875" y="421.125" type="curve" smooth="yes"/>
      <point x="579.8125" y="522.625" type="line" smooth="yes"/>
      <point x="622.3492647058824" y="563.9889705882352"/>
      <point x="636.625" y="587.9375"/>
      <point x="636.625" y="611.3125" type="curve" smooth="yes"/>
      <point x="636.625" y="628.8125"/>
      <point x="624.6875" y="640.625"/>
      <point x="600.8125" y="640.625" type="curve" smooth="yes"/>
      <point x="251.125" y="640.625" type="line" smooth="yes"/>
      <point x="224.75" y="640.625"/>
      <point x="204.9375" y="621.625"/>
      <point x="194.9375" y="594.0625" type="curve" smooth="yes"/>
      <point x="157.8125" y="494.25" type="line" smooth="yes"/>
      <point x="154.6875" y="485.3125"/>
      <point x="151.4375" y="478.0625"/>
      <point x="151.4375" y="470.6875" type="curve" smooth="yes"/>
      <point x="151.4375" y="454.5"/>
      <point x="161.375" y="446.125"/>
      <point x="176.0" y="446.125" type="curve" smooth="yes"/>
      <point x="193.25" y="446.125"/>
      <point x="208.375" y="457.875"/>
      <point x="237.625" y="493.6875" type="curve" smooth="yes"/>
      <point x="264.625" y="528.25"/>
      <point x="285.1875" y="537.25"/>
      <point x="313.1875" y="537.25" type="curve" smooth="yes"/>
      <point x="564.25" y="537.25" type="line"/>
      <point x="562.625" y="607.625" type="line"/>
      <point x="557.625" y="589.0625"/>
      <point x="548.1875" y="568.9375"/>
    </contour>
  </outline>
</glyph>
<glyph name="question" format="2">
  <advance width="413.1736111111111"/>
  <unicode hex="003F"/>
  <outline>
    <contour>
      <point x="300.0833333333333" y="372.8263888888889" type="curve" smooth="yes"/>
      <point x="380.47222222222223" y="413.0208333333333"/>
      <point x="423.7002765349985" y="458.3129598564407"/>
      <point x="441.18055555555554" y="554.7013888888889" type="curve" smooth="yes"/>
      <point x="455.2917820359026" y="630.7814702209128"/>
      <point x="426.64912280701753" y="676.25"/>
      <point x="382.02777777777777" y="676.25" type="curve" smooth="yes"/>
      <point x="336.7853535353535" y="676.25"/>
      <point x="309.09637855799144" y="650.8137983350618"/>
      <point x="299.7291666666667" y="607.375" type="curve" smooth="yes"/>
      <point x="290.81944444444446" y="562.9166666666666" type="line" smooth="yes"/>
      <point x="283.36085175647446" y="526.4329150867907"/>
      <point x="256.54017857142856" y="505.86805555555554"/>
      <point x="227.97222222222223" y="505.86805555555554" type="curve" smooth="yes"/>
      <point x="195.35562865497076" y="505.86805555555554"/>
      <point x="176.90972222222223" y="528.4910993740219"/>
      <point x="176.90972222222223" y="564.3402777777778" type="curve" smooth="yes"/>
      <point x="176.90972222222223" y="635.6677386278897"/>
      <point x="266.99305555555554" y="712.3611111111111"/>
      <point x="395.7013888888889" y="712.3611111111111" type="curve" smooth="yes"/>
      <point x="508.24305555555554" y="712.3611111111111"/>
      <point x="567.8992721743972" y="651.0831330463832"/>
      <point x="545.2708333333334" y="551.3055555555555" type="curve" smooth="yes"/>
      <point x="528.8331401583474" y="473.004370748975"/>
      <point x="487.66950285537933" y="429.38363422305514"/>
      <point x="355.9791666666667" y="357.61805555555554" type="curve" smooth="yes"/>
      <point x="302.0465426572974" y="327.55380317845106"/>
      <point x="277.94929613186207" y="286.7272645551162"/>
      <point x="267.7708333333333" y="218.56944444444446" type="curve" smooth="yes"/>
      <point x="264.7013888888889" y="201.04166666666666"/>
      <point x="254.40277777777777" y="191.23611111111111"/>
      <point x="237.65972222222223" y="191.23611111111111" type="curve" smooth="yes"/>
      <point x="209.63194444444446" y="191.23611111111111"/>
      <point x="187.27083333333334" y="211.04166666666666"/>
      <point x="187.27083333333334" y="244.04166666666666" type="curve" smooth="yes"/>
      <point x="187.27083333333334" y="290.02777777777777"/>
      <point x="216.79861111111111" y="330.875"/>
    </contour>
    <component base="period" xScale="0.9329999999999999" yScale="0.9329999999999999" xOffset="49.263888888888886" yOffset="2.0"/>
  </outline>
</glyph>
<glyph name="A" format="2">
  <advance width="602.8819444444445"/>
  <unicode hex="0041"/>
  <anchor x="603.7847222222222" y="766.0" name="center"/>
  <outline>
    <contour>
      <point x="213.79166666666666" y="266.1458333333333" type="line"/>
      <point x="200.38888888888889" y="219.60416666666666" type="line"/>
      <point x="496.4166666666667" y="219.60416666666666" type="line"/>
      <point x="501.5416666666667" y="266.1458333333333" type="line"/>
    </contour>
    <contour>
      <point x="119.68055555555556" y="138.63194444444446" type="line" smooth="yes"/>
      <point x="95.63888888888889" y="102.9375"/>
      <point x="69.60416666666667" y="73.45833333333333"/>
      <point x="42.388888888888886" y="61.826388888888886" type="curve" smooth="yes"/>
      <point x="18.95138888888889" y="46.99305555555556"/>
      <point x="8.8125" y="36.81944444444444"/>
      <point x="8.8125" y="22.979166666666664" type="curve" smooth="yes"/>
      <point x="8.8125" y="8.73611111111111"/>
      <point x="16.82638888888889" y="0.0"/>
      <point x="31.63888888888889" y="0.0" type="curve" smooth="yes"/>
      <point x="205.38888888888889" y="0.0" type="line" smooth="yes"/>
      <point x="223.58333333333334" y="0.0"/>
      <point x="233.88888888888889" y="7.104166666666666"/>
      <point x="233.88888888888889" y="23.47222222222222" type="curve" smooth="yes"/>
      <point x="233.88888888888889" y="33.31944444444444"/>
      <point x="229.21527777777777" y="42.18055555555556"/>
      <point x="207.20833333333334" y="56.0" type="curve" smooth="yes"/>
      <point x="179.99305555555554" y="66.41666666666667"/>
      <point x="168.06944444444446" y="83.35416666666667"/>
      <point x="168.06944444444446" y="98.31944444444444" type="curve" smooth="yes"/>
      <point x="168.06944444444446" y="110.63194444444444"/>
      <point x="171.125" y="123.54166666666667"/>
      <point x="184.81944444444446" y="144.69444444444446" type="curve" smooth="yes"/>
      <point x="321.4513888888889" y="355.5416666666667" type="line" smooth="yes"/>
      <point x="458.06941841353114" y="553.7742637976321"/>
      <point x="490.0416666666667" y="599.3958333333334"/>
      <point x="530.4027777777778" y="615.1944444444445" type="curve"/>
      <point x="472.43055555555554" y="614.4722222222222" type="line"/>
      <point x="470.68055555555554" y="413.5138888888889"/>
      <point x="462.76239828817137" y="260.40146020090043"/>
      <point x="450.84027777777777" y="122.26388888888889" type="curve" smooth="yes"/>
      <point x="448.36805555555554" y="90.98611111111111"/>
      <point x="434.6736111111111" y="70.15972222222223"/>
      <point x="407.5138888888889" y="62.52777777777778" type="curve" smooth="yes"/>
      <point x="376.2361111111111" y="55.30555555555556" type="line" smooth="yes"/>
      <point x="360.3611111111111" y="50.166666666666664"/>
      <point x="348.6388888888889" y="41.8125"/>
      <point x="348.6388888888889" y="25.28472222222222" type="curve" smooth="yes"/>
      <point x="348.6388888888889" y="10.097222222222221"/>
      <point x="357.5416666666667" y="0.0"/>
      <point x="375.3125" y="0.0" type="curve" smooth="yes"/>
      <point x="584.4166666666666" y="0.0" type="line" smooth="yes"/>
      <point x="607.0208333333334" y="0.0"/>
      <point x="621.8819444444445" y="11.333333333333332"/>
      <point x="621.8819444444445" y="25.95138888888889" type="curve" smooth="yes"/>
      <point x="621.8819444444445" y="35.94444444444444"/>
      <point x="617.6875" y="47.111111111111114"/>
      <point x="605.0347222222222" y="57.138888888888886" type="curve" smooth="yes"/>
      <point x="585.8402777777778" y="67.90277777777777"/>
      <point x="573.6388888888889" y="100.49305555555556"/>
      <point x="573.6388888888889" y="146.72916666666666" type="curve" smooth="yes"/>
      <point x="573.4583333333334" y="292.65972222222223"/>
      <point x="582.7986111111111" y="473.02777777777777"/>
      <point x="590.4097222222222" y="587.6736111111111" type="curve" smooth="yes"/>
      <point x="592.4097222222222" y="621.7361111111111"/>
      <point x="605.1180555555555" y="644.3263888888889"/>
      <point x="630.4097222222222" y="658.6111111111111" type="curve" smooth="yes"/>
      <point x="642.0555555555555" y="666.3472222222222"/>
      <point x="647.7986111111111" y="675.375"/>
      <point x="647.7986111111111" y="687.7777777777778" type="curve" smooth="yes"/>
      <point x="647.7986111111111" y="703.3402777777778"/>
      <point x="636.8125" y="714.8888888888889"/>
      <point x="607.9791666666666" y="714.8888888888889" type="curve" smooth="yes"/>
      <point x="524.6281392694063" y="714.8888888888889"/>
      <point x="445.99305555555554" y="632.7916666666666"/>
      <point x="270.77777777777777" y="373.5416666666667" type="curve" smooth="yes"/>
    </contour>
  </outline>
</glyph>
<glyph name="B" format="2">
  <advance width="618.0833333333334"/>
  <unicode hex="0042"/>
  <outline>
    <contour>
      <point x="388.7916666666667" y="587.8125" type="curve" smooth="yes"/>
      <point x="402.27231733047694" y="628.6772380892655"/>
      <point x="425.4482056578806" y="652.3958333333334"/>
      <point x="484.625" y="652.3958333333334" type="curve" smooth="yes"/>
      <point x="537.9646092132505" y="652.3958333333334"/>
      <point x="574.5625" y="608.1055555555556"/>
      <point x="574.5625" y="531.125" type="curve" smooth="yes"/>
      <point x="574.5625" y="422.40425675767045"/>
      <point x="496.0208333333333" y="354.2361111111111"/>
      <point x="397.4375" y="354.2361111111111" type="curve" smooth="yes"/>
      <point x="299.1875" y="354.2361111111111" type="line"/>
      <point x="281.5208333333333" y="310.2916666666667" type="line"/>
      <point x="410.4375" y="310.2916666666667" type="line" smooth="yes"/>
      <point x="481.75" y="310.2916666666667"/>
      <point x="525.5625" y="267.44061111111114"/>
      <point x="525.5625" y="197.58333333333334" type="curve" smooth="yes"/>
      <point x="525.5625" y="109.17992424242424"/>
      <point x="449.27921455938696" y="51.33333333333333"/>
      <point x="364.02777777777777" y="51.33333333333333" type="curve" smooth="yes"/>
      <point x="297.71527777777777" y="51.33333333333333"/>
      <point x="272.2291666666667" y="75.20562065972223"/>
      <point x="274.86805555555554" y="124.71527777777777" type="curve" smooth="yes"/>
      <point x="280.1458333333333" y="180.65749177423436"/>
      <point x="350.36206726667103" y="466.98003819513366"/>
    </contour>
    <contour>
      <point x="198.54861111111111" y="675.9861111111111" type="curve" smooth="yes"/>
      <point x="198.54861111111111" y="663.0902777777778"/>
      <point x="206.63194444444446" y="660.6736111111111"/>
      <point x="220.34722222222223" y="654.3541666666666" type="curve" smooth="yes"/>
      <point x="246.69444444444446" y="645.1875" type="line" smooth="yes"/>
      <point x="262.4270877939889" y="638.7179466591846"/>
      <point x="268.2361111111111" y="630.9583333333334"/>
      <point x="268.2361111111111" y="612.6041666666666" type="curve" smooth="yes"/>
      <point x="268.2361111111111" y="602.3307291666666"/>
      <point x="266.6736111111111" y="591.9166666666666"/>
      <point x="264.5486111111111" y="579.7291666666666" type="curve" smooth="yes"/>
      <point x="236.65277777777777" y="434.5833333333333"/>
      <point x="187.54861111111111" y="252.56944444444446"/>
      <point x="140.43055555555554" y="96.70138888888889" type="curve" smooth="yes"/>
      <point x="133.04861111111111" y="73.31944444444444"/>
      <point x="121.01388888888889" y="61.56944444444444"/>
      <point x="99.06944444444444" y="55.97222222222222" type="curve" smooth="yes"/>
      <point x="64.40972222222223" y="47.89583333333333" type="line" smooth="yes"/>
      <point x="42.826388888888886" y="41.75694444444444"/>
      <point x="35.43055555555556" y="31.19871794871795"/>
      <point x="35.43055555555556" y="20.59722222222222" type="curve" smooth="yes"/>
      <point x="35.43055555555556" y="7.9513888888888875"/>
      <point x="43.56944444444444" y="0.0"/>
      <point x="59.28472222222222" y="0.0" type="curve" smooth="yes"/>
      <point x="350.74305555555554" y="0.0" type="line" smooth="yes"/>
      <point x="533.4234234234234" y="0.0"/>
      <point x="653.9444444444445" y="94.05555555555556"/>
      <point x="653.9444444444445" y="198.58333333333334" type="curve" smooth="yes"/>
      <point x="653.9444444444445" y="281.8958333333333"/>
      <point x="586.5691023535851" y="337.8888888888889"/>
      <point x="437.7291666666667" y="337.8888888888889" type="curve"/>
      <point x="438.7291666666667" y="331.0" type="line"/>
      <point x="577.1889329805997" y="331.0"/>
      <point x="703.9444444444445" y="423.9583333333333"/>
      <point x="703.9444444444445" y="536.1805555555555" type="curve" smooth="yes"/>
      <point x="703.9444444444445" y="641.3125"/>
      <point x="636.4445250817296" y="700.0"/>
      <point x="508.3263888888889" y="700.0" type="curve" smooth="yes"/>
      <point x="228.59722222222223" y="700.0" type="line" smooth="yes"/>
      <point x="207.06944444444446" y="700.0"/>
      <point x="198.54861111111111" y="688.2291666666666"/>
    </contour>
  </outline>
</glyph>
<glyph name="D" format="2">
  <advance width="694.9027777777778"/>
  <unicode hex="0044"/>
  <outline>
    <contour>
      <point x="365.0625" y="50.56944444444444" type="curve" smooth="yes"/>
      <point x="342.3125" y="50.56944444444444" type="line" smooth="yes"/>
      <point x="302.86805555555554" y="50.56944444444444"/>
      <point x="277.3958333333333" y="73.20833333333333"/>
      <point x="277.3958333333333" y="110.61111111111111" type="curve" smooth="yes"/>
      <point x="277.3958333333333" y="124.79861111111111"/>
      <point x="278.9583333333333" y="141.54861111111111"/>
      <point x="281.5208333333333" y="153.23611111111111" type="curve" smooth="yes"/>
      <point x="306.1388888888889" y="284.15972222222223"/>
      <point x="352.02777777777777" y="469.03472222222223"/>
      <point x="388.25" y="589.0833333333334" type="curve" smooth="yes"/>
      <point x="403.2916666666667" y="634.4166666666666"/>
      <point x="420.1388888888889" y="649.4305555555555"/>
      <point x="449.02777777777777" y="649.4305555555555" type="curve" smooth="yes"/>
      <point x="467.47222222222223" y="649.4305555555555" type="line" smooth="yes"/>
      <point x="572.0833333333334" y="649.4305555555555"/>
      <point x="639.7152777777778" y="563.1944444444445"/>
      <point x="639.7152777777778" y="424.6875" type="curve" smooth="yes"/>
      <point x="639.7152777777778" y="191.84027777777777"/>
      <point x="506.97222222222223" y="50.56944444444444"/>
    </contour>
    <contour>
      <point x="34.84722222222222" y="21.03472222222222" type="curve" smooth="yes"/>
      <point x="34.5946287995644" y="6.544346041395224"/>
      <point x="41.32738095238095" y="0.0"/>
      <point x="56.30555555555556" y="0.0" type="curve" smooth="yes"/>
      <point x="360.7083333333333" y="0.0" type="line" smooth="yes"/>
      <point x="588.2569444444445" y="0.0"/>
      <point x="767.5555555555555" y="183.62499999999997"/>
      <point x="767.5555555555555" y="403.25" type="curve" smooth="yes"/>
      <point x="767.5555555555555" y="579.5585084226819"/>
      <point x="648.6037669864108" y="700.0"/>
      <point x="476.2361111111111" y="700.0" type="curve" smooth="yes"/>
      <point x="225.71527777777777" y="700.0" type="line" smooth="yes"/>
      <point x="207.86805555555554" y="700.0"/>
      <point x="197.66596633058026" y="688.6989377125865"/>
      <point x="196.90972222222223" y="675.0277777777778" type="curve" smooth="yes"/>
      <point x="196.39145479986118" y="661.646963266042"/>
      <point x="204.22916666666666" y="655.7708333333334"/>
      <point x="214.79166666666669" y="652.7361111111111" type="curve" smooth="yes"/>
      <point x="249.40277777777777" y="645.1527777777778" type="line" smooth="yes"/>
      <point x="263.4583333333333" y="641.7708333333334"/>
      <point x="268.34722222222223" y="633.1319444444445"/>
      <point x="267.30555555555554" y="612.6041666666666" type="curve" smooth="yes"/>
      <point x="255.05555555555554" y="509.4861111111111"/>
      <point x="199.69444444444446" y="297.4375"/>
      <point x="141.11111111111111" y="104.53472222222223" type="curve" smooth="yes"/>
      <point x="129.63194444444446" y="68.56944444444444"/>
      <point x="118.66552911789627" y="57.76842910330785"/>
      <point x="97.45138888888889" y="53.263888888888886" type="curve" smooth="yes"/>
      <point x="58.78472222222222" y="46.20833333333333" type="line" smooth="yes"/>
      <point x="43.97614414941195" y="43.32462300883865"/>
      <point x="35.20757113391578" y="32.39240343595432"/>
    </contour>
  </outline>
</glyph>
<glyph name="F" format="2">
  <advance width="541.3888888888889"/>
  <unicode hex="0046"/>
  <outline>
    <contour>
      <point x="199.88194444444446" y="677.9513888888889" type="curve" smooth="yes"/>
      <point x="199.1875" y="663.9823717948718"/>
      <point x="207.83283385700818" y="658.9406902517584"/>
      <point x="228.25694444444446" y="651.8125" type="curve" smooth="yes"/>
      <point x="248.81944444444446" y="645.8125" type="line" smooth="yes"/>
      <point x="267.36854989228345" y="638.9878833794976"/>
      <point x="273.56944444444446" y="627.6875"/>
      <point x="269.00694444444446" y="604.75" type="curve"/>
      <point x="234.23688735010253" y="431.4421938984767"/>
      <point x="190.43055555555554" y="262.5833333333333"/>
      <point x="142.125" y="102.36805555555556" type="curve"/>
      <point x="133.5799163355369" y="75.06508098306651"/>
      <point x="122.20618737835586" y="59.89962133347097"/>
      <point x="99.36111111111111" y="55.11805555555556" type="curve" smooth="yes"/>
      <point x="65.69444444444444" y="48.53472222222222" type="line" smooth="yes"/>
      <point x="46.20412948056862" y="44.34604693373866"/>
      <point x="36.24305555555556" y="36.60104166666667"/>
      <point x="35.986111111111114" y="23.069444444444443" type="curve" smooth="yes"/>
      <point x="35.291666666666664" y="9.135416666666666"/>
      <point x="43.21527777777778" y="0.0"/>
      <point x="57.56944444444444" y="0.0" type="curve" smooth="yes"/>
      <point x="322.38194444444446" y="0.0" type="line" smooth="yes"/>
      <point x="349.4375" y="0.0"/>
      <point x="356.4513888888889" y="10.770833333333332"/>
      <point x="356.4513888888889" y="24.04861111111111" type="curve" smooth="yes"/>
      <point x="356.4513888888889" y="37.291666666666664"/>
      <point x="348.52777777777777" y="43.52083333333333"/>
      <point x="321.0208333333333" y="48.951388888888886" type="curve" smooth="yes"/>
      <point x="283.13194444444446" y="53.423611111111114"/>
      <point x="268.11805555555554" y="68.89583333333333"/>
      <point x="275.40972222222223" y="107.3125" type="curve"/>
      <point x="306.76953903368275" y="262.85140470701464"/>
      <point x="347.7031763383409" y="447.40467326174814"/>
      <point x="412.0138888888889" y="657.0" type="curve"/>
      <point x="508.2291666666667" y="657.0" type="line" smooth="yes"/>
      <point x="562.3253205128206" y="657.0"/>
      <point x="599.1666666666666" y="639.7013888888889"/>
      <point x="615.9375" y="591.2777777777778" type="curve" smooth="yes"/>
      <point x="630.4930555555555" y="549.5" type="line" smooth="yes"/>
      <point x="638.1072446234433" y="526.8102105741145"/>
      <point x="647.3751924462788" y="520.75"/>
      <point x="662.0972222222222" y="520.75" type="curve" smooth="yes"/>
      <point x="673.7071256038647" y="520.75"/>
      <point x="687.3055555555555" y="531.9930555555555"/>
      <point x="685.6527777777778" y="553.4444444444445" type="curve" smooth="yes"/>
      <point x="675.5625" y="696.7291666666666" type="line" smooth="yes"/>
      <point x="674.3828659233468" y="716.0038078541122"/>
      <point x="672.2399621212121" y="724.0416666666666"/>
      <point x="659.4861111111111" y="724.0416666666666" type="curve" smooth="yes"/>
      <point x="649.766129032258" y="724.0416666666666"/>
      <point x="641.3132644642593" y="719.5941753104357"/>
      <point x="630.6736111111111" y="711.4166666666666" type="curve" smooth="yes"/>
      <point x="620.1082508791609" y="703.5494274869902"/>
      <point x="600.3616675226845" y="700.0"/>
      <point x="587.125" y="700.0" type="curve" smooth="yes"/>
      <point x="238.13194444444446" y="700.0" type="line" smooth="yes"/>
      <point x="216.88194444444443" y="700.0"/>
      <point x="200.57638888888889" y="693.3541666666666"/>
    </contour>
    <contour>
      <point x="284.93055555555554" y="362.13194444444446" type="line"/>
      <point x="272.7361111111111" y="315.5" type="line"/>
      <point x="444.13194444444446" y="315.5" type="line" smooth="yes"/>
      <point x="485.62912470318514" y="315.5"/>
      <point x="509.74354552405885" y="298.2110521899323"/>
      <point x="523.9652777777778" y="266.8125" type="curve" smooth="yes"/>
      <point x="534.3278982472006" y="246.36169147154098"/>
      <point x="541.9458797703479" y="242.6875"/>
      <point x="555.1527777777778" y="242.6875" type="curve" smooth="yes"/>
      <point x="565.1958333333333" y="242.6875"/>
      <point x="575.9551239853015" y="252.43265499033916"/>
      <point x="571.8263888888889" y="272.49305555555554" type="curve" smooth="yes"/>
      <point x="542.4444444444445" y="422.3263888888889" type="line" smooth="yes"/>
      <point x="540.5" y="433.3888888888889"/>
      <point x="534.7430555555555" y="443.50694444444446"/>
      <point x="521.8472222222222" y="443.50694444444446" type="curve" smooth="yes"/>
      <point x="512.2569444444445" y="443.50694444444446"/>
      <point x="505.1101435308112" y="436.13036113122627"/>
      <point x="496.1111111111111" y="419.4375" type="curve" smooth="yes"/>
      <point x="481.46516457467055" y="377.33236047842666"/>
      <point x="456.1611111111111" y="362.13194444444446"/>
      <point x="417.59722222222223" y="362.13194444444446" type="curve" smooth="yes"/>
    </contour>
  </outline>
</glyph>
<glyph name="I" format="2">
  <advance width="348.8541666666667"/>
  <unicode hex="0049"/>
  <outline>
    <contour>
      <point x="267.4583333333333" y="82.06944444444444" type="curve" smooth="yes"/>
      <point x="282.40972222222223" y="194.52083333333331"/>
      <point x="344.9166666666667" y="444.7361111111111"/>
      <point x="400.3333333333333" y="605.9583333333334" type="curve" smooth="yes"/>
      <point x="409.27777777777777" y="631.9930555555555"/>
      <point x="420.80555555555554" y="642.7916666666666"/>
      <point x="438.4583333333333" y="646.7361111111111" type="curve" smooth="yes"/>
      <point x="472.00694444444446" y="653.7222222222222" type="line" smooth="yes"/>
      <point x="489.2433404293443" y="657.6798472559036"/>
      <point x="500.4791666666667" y="666.7144097222223"/>
      <point x="500.4791666666667" y="678.75" type="curve" smooth="yes"/>
      <point x="500.4791666666667" y="691.7286324786324"/>
      <point x="491.88200231481477" y="700.0"/>
      <point x="474.30555555555554" y="700.0" type="curve" smooth="yes"/>
      <point x="226.09027777777777" y="700.0" type="line" smooth="yes"/>
      <point x="208.42538081419536" y="700.0"/>
      <point x="197.52777777777777" y="690.2078634085213"/>
      <point x="197.52777777777777" y="676.1736111111111" type="curve" smooth="yes"/>
      <point x="197.52777777777777" y="665.254981884058"/>
      <point x="205.2117086342949" y="657.3242540578788"/>
      <point x="218.69444444444446" y="654.25" type="curve" smooth="yes"/>
      <point x="249.40277777777777" y="646.7361111111111" type="line" smooth="yes"/>
      <point x="263.5486111111111" y="643.3541666666666"/>
      <point x="269.5833333333333" y="633.1319444444445"/>
      <point x="268.4513888888889" y="614.3611111111111" type="curve" smooth="yes"/>
      <point x="255.67361111111111" y="510.65972222222223"/>
      <point x="197.4950980392157" y="273.50490196078437"/>
      <point x="135.61111111111111" y="89.94444444444444" type="curve" smooth="yes"/>
      <point x="128.19444444444446" y="67.58333333333333"/>
      <point x="117.8125" y="57.27777777777778"/>
      <point x="94.8125" y="52.80555555555556" type="curve" smooth="yes"/>
      <point x="61.104166666666664" y="46.3125" type="line" smooth="yes"/>
      <point x="47.71584449920409" y="43.1854882483344"/>
      <point x="37.486111111111114" y="34.992220423476205"/>
      <point x="36.95833333333333" y="22.46527777777778" type="curve" smooth="yes"/>
      <point x="35.90277777777778" y="8.257766812865498"/>
      <point x="45.047348484848484" y="0.0"/>
      <point x="59.576388888888886" y="0.0" type="curve" smooth="yes"/>
      <point x="307.9375" y="0.0" type="line" smooth="yes"/>
      <point x="328.44444444444446" y="0.0"/>
      <point x="340.0" y="10.011160410716712"/>
      <point x="340.0" y="25.916666666666664" type="curve" smooth="yes"/>
      <point x="340.0" y="37.09826526130874"/>
      <point x="331.6587535295738" y="43.66270544174719"/>
      <point x="317.65277777777777" y="46.875" type="curve" smooth="yes"/>
      <point x="290.7291666666667" y="52.80555555555556" type="line" smooth="yes"/>
      <point x="273.9791666666667" y="56.15277777777778"/>
      <point x="266.3263888888889" y="66.40972222222223"/>
    </contour>
  </outline>
</glyph>
<glyph name="K" format="2">
  <advance width="688.8055555555555"/>
  <unicode hex="004B"/>
  <outline>
    <contour>
      <point x="382.56944444444446" y="346.22222222222223" type="line"/>
      <point x="467.1388888888889" y="112.02083333333334" type="line" smooth="yes"/>
      <point x="503.2599057801611" y="14.22797484746227"/>
      <point x="539.522792022792" y="-12.36111111111111"/>
      <point x="599.3611111111111" y="-12.36111111111111" type="curve" smooth="yes"/>
      <point x="654.960113960114" y="-12.36111111111111"/>
      <point x="713.2569444444445" y="37.798611111111114"/>
      <point x="713.2569444444445" y="96.61111111111111" type="curve" smooth="yes"/>
      <point x="713.2569444444445" y="108.61805555555556"/>
      <point x="705.6458333333334" y="119.20833333333333"/>
      <point x="694.4375" y="119.20833333333333" type="curve" smooth="yes"/>
      <point x="678.4343434343434" y="119.20833333333333"/>
      <point x="665.8257575757576" y="96.59722222222223"/>
      <point x="638.0763888888889" y="96.59722222222223" type="curve" smooth="yes"/>
      <point x="613.451652601969" y="96.59722222222223"/>
      <point x="587.6448846247375" y="114.84921159708219"/>
      <point x="559.9861111111111" y="183.50694444444446" type="curve" smooth="yes"/>
      <point x="466.96527777777777" y="415.34722222222223" type="line"/>
    </contour>
    <contour>
      <point x="254.01388888888889" y="167.13888888888889" type="line"/>
      <point x="598.0277777777778" y="536.1666666666666" type="line" smooth="yes"/>
      <point x="637.1041666666666" y="577.8611111111111"/>
      <point x="667.2222222222222" y="595.3611111111111"/>
      <point x="699.5" y="595.3611111111111" type="curve" smooth="yes"/>
      <point x="726.9097222222222" y="595.3611111111111"/>
      <point x="743.1597222222222" y="568.5555555555555"/>
      <point x="779.2222222222222" y="568.5555555555555" type="curve" smooth="yes"/>
      <point x="815.0208333333334" y="568.5555555555555"/>
      <point x="850.8194444444445" y="598.0833333333334"/>
      <point x="850.8194444444445" y="639.8958333333334" type="curve" smooth="yes"/>
      <point x="850.8194444444445" y="676.6736111111111"/>
      <point x="824.0138888888889" y="712.3611111111111"/>
      <point x="782.2638888888889" y="712.3611111111111" type="curve" smooth="yes"/>
      <point x="730.0972222222222" y="712.3611111111111"/>
      <point x="677.9652777777778" y="687.1666666666666"/>
      <point x="602.6458333333334" y="605.7916666666666" type="curve" smooth="yes"/>
      <point x="235.15277777777777" y="206.41666666666666" type="line"/>
    </contour>
    <component base="I"/>
  </outline>
</glyph>
<glyph name="L" format="2">
  <advance width="529.6527777777778"/>
  <unicode hex="004C"/>
  <outline>
    <contour>
      <point x="383.7916666666667" y="0.0" type="line" smooth="yes"/>
      <point x="415.47522522522524" y="0.0"/>
      <point x="432.58531746031747" y="-12.833333333333332"/>
      <point x="454.7916666666667" y="-12.833333333333332" type="curve" smooth="yes"/>
      <point x="510.00694444444446" y="-12.833333333333332"/>
      <point x="568.7291666666666" y="72.02777777777777"/>
      <point x="568.7291666666666" y="164.94444444444446" type="curve" smooth="yes"/>
      <point x="568.7291666666666" y="185.39583333333334"/>
      <point x="561.1425438596491" y="194.04166666666666"/>
      <point x="547.8611111111111" y="194.04166666666666" type="curve" smooth="yes"/>
      <point x="535.811713836478" y="194.04166666666666"/>
      <point x="526.2732290033247" y="187.36233276152169"/>
      <point x="513.625" y="167.52083333333334" type="curve" smooth="yes"/>
      <point x="492.44444444444446" y="130.44444444444446" type="line" smooth="yes"/>
      <point x="460.1111111111111" y="72.59027777777777"/>
      <point x="426.85953878406707" y="44.68055555555556"/>
      <point x="362.02777777777777" y="44.68055555555556" type="curve" smooth="yes"/>
      <point x="302.3523550724638" y="44.68055555555556"/>
      <point x="278.2638888888889" y="65.68117283950617"/>
      <point x="278.2638888888889" y="97.45833333333333" type="curve" smooth="yes"/>
      <point x="278.2638888888889" y="146.82638888888889"/>
      <point x="337.66290380275706" y="403.48142905443586"/>
      <point x="402.74305555555554" y="600.2430555555555" type="curve" smooth="yes"/>
      <point x="411.6875" y="626.7708333333334"/>
      <point x="423.74305555555554" y="640.2430555555555"/>
      <point x="446.74305555555554" y="645.2430555555555" type="curve" smooth="yes"/>
      <point x="472.74305555555554" y="651.2430555555555" type="line" smooth="yes"/>
      <point x="492.1426953653593" y="655.6419040586727"/>
      <point x="505.9583333333333" y="660.9444444444445"/>
      <point x="506.74305555555554" y="676.8402777777778" type="curve" smooth="yes"/>
      <point x="507.4375" y="690.6111111111111"/>
      <point x="500.66132478632477" y="699.0"/>
      <point x="475.11805555555554" y="699.0" type="curve" smooth="yes"/>
      <point x="242.54861111111111" y="699.0" type="line" smooth="yes"/>
      <point x="219.98611111111111" y="699.0"/>
      <point x="210.56318387578995" y="692.6729796376289"/>
      <point x="205.98611111111111" y="676.8402777777778" type="curve" smooth="yes"/>
      <point x="202.4197339801945" y="661.0863318644502"/>
      <point x="211.58201939841177" y="655.5749812615081"/>
      <point x="228.54861111111111" y="651.2430555555555" type="curve" smooth="yes"/>
      <point x="252.54861111111111" y="645.2430555555555" type="line" smooth="yes"/>
      <point x="270.5486111111111" y="640.2430555555555"/>
      <point x="277.5486111111111" y="626.2430555555555"/>
      <point x="274.5486111111111" y="607.2430555555555" type="curve" smooth="yes"/>
      <point x="241.6875" y="438.1388888888889"/>
      <point x="199.625" y="266.94444444444446"/>
      <point x="149.18055555555554" y="107.15277777777777" type="curve"/>
      <point x="139.52777777777777" y="78.24305555555556"/>
      <point x="128.18055555555554" y="61.15277777777778"/>
      <point x="103.18055555555556" y="55.15277777777778" type="curve" smooth="yes"/>
      <point x="82.18055555555556" y="50.15277777777778" type="line" smooth="yes"/>
      <point x="56.730956645336555" y="44.05862724359865"/>
      <point x="46.18999566511211" y="37.275759571248635"/>
      <point x="42.61805555555556" y="23.13888888888889" type="curve" smooth="yes"/>
      <point x="37.923755046050054" y="6.950910878750193"/>
      <point x="49.74305555555556" y="0.0"/>
      <point x="73.80555555555556" y="0.0" type="curve" smooth="yes"/>
    </contour>
  </outline>
</glyph>
<glyph name="M" format="2">
  <advance width="846.7222222222222"/>
  <unicode hex="004D"/>
  <outline>
    <contour>
      <point x="499.0416666666667" y="180.86805555555554" type="line"/>
      <point x="469.2638888888889" y="340.0763888888889"/>
      <point x="438.38194444444446" y="503.21527777777777"/>
      <point x="414.47222222222223" y="660.3958333333334" type="curve" smooth="yes"/>
      <point x="409.1875" y="692.1111111111111"/>
      <point x="391.4236111111111" y="700.0"/>
      <point x="365.15277777777777" y="700.0" type="curve" smooth="yes"/>
      <point x="249.72222222222223" y="700.0" type="line" smooth="yes"/>
      <point x="232.35972222222222" y="700.0"/>
      <point x="217.76388888888889" y="694.2020202020202"/>
      <point x="216.97916666666666" y="679.5277777777778" type="curve" smooth="yes"/>
      <point x="216.72222222222223" y="664.5069444444445"/>
      <point x="224.47916666666666" y="656.1666666666666"/>
      <point x="238.94444444444446" y="648.3541666666666" type="curve" smooth="yes"/>
      <point x="268.40277777777777" y="631.8541666666666" type="line" smooth="yes"/>
      <point x="279.5625" y="625.6944444444445"/>
      <point x="287.4861111111111" y="617.5486111111111"/>
      <point x="282.5416666666667" y="602.2430555555555" type="curve" smooth="yes"/>
      <point x="141.93055555555554" y="138.01388888888889" type="line" smooth="yes"/>
      <point x="127.92361111111111" y="91.41666666666667"/>
      <point x="110.34722222222223" y="72.95138888888889"/>
      <point x="83.81944444444444" y="63.53472222222222" type="curve" smooth="yes"/>
      <point x="48.45833333333333" y="51.84027777777778" type="line" smooth="yes"/>
      <point x="27.061046732876314" y="43.06136957541845"/>
      <point x="16.877565061986548" y="34.93643642104386"/>
      <point x="16.666666666666664" y="22.541666666666664" type="curve" smooth="yes"/>
      <point x="16.59027777777778" y="8.409722222222221"/>
      <point x="23.243055555555557" y="0.0"/>
      <point x="39.375" y="0.0" type="curve" smooth="yes"/>
      <point x="238.05555555555554" y="0.0" type="line" smooth="yes"/>
      <point x="253.6875" y="0.0"/>
      <point x="269.2083333333333" y="8.466820987654321"/>
      <point x="268.84722222222223" y="22.48611111111111" type="curve" smooth="yes"/>
      <point x="268.4861111111111" y="35.57575757575758"/>
      <point x="265.6666666666667" y="39.854166666666664"/>
      <point x="245.29166666666666" y="50.02083333333333" type="curve" smooth="yes"/>
      <point x="217.77083333333334" y="60.048611111111114" type="line" smooth="yes"/>
      <point x="190.5970215834021" y="71.52090021294005"/>
      <point x="183.34667924198578" y="95.00948231009156"/>
      <point x="195.86111111111111" y="136.01388888888889" type="curve" smooth="yes"/>
      <point x="328.43055555555554" y="573.5902777777778" type="line"/>
      <point x="308.6111111111111" y="564.9027777777778" type="line"/>
      <point x="341.4483840721357" y="397.7418131467585"/>
      <point x="373.1666666666667" y="246.47222222222223"/>
      <point x="393.9166666666667" y="111.52083333333333" type="curve" smooth="yes"/>
      <point x="400.8888888888889" y="74.77083333333333"/>
      <point x="414.92739898989896" y="65.8125"/>
      <point x="431.99305555555554" y="65.8125" type="curve" smooth="yes"/>
      <point x="446.27777777777777" y="65.8125"/>
      <point x="458.3333333333333" y="72.82638888888889"/>
      <point x="479.78472222222223" y="106.10416666666666" type="curve" smooth="yes"/>
      <point x="762.125" y="557.9236111111111" type="line"/>
      <point x="750.5902777777778" y="560.0694444444445" type="line"/>
      <point x="725.8541666666666" y="394.8888888888889"/>
      <point x="692.125" y="240.20138888888889"/>
      <point x="661.5694444444445" y="96.17361111111111" type="curve" smooth="yes"/>
      <point x="656.5694444444445" y="71.75694444444444"/>
      <point x="641.5694444444445" y="59.34027777777778"/>
      <point x="623.625" y="54.8125" type="curve" smooth="yes"/>
      <point x="585.4861111111111" y="44.59027777777778" type="line" smooth="yes"/>
      <point x="568.7191907119038" y="40.47433226689314"/>
      <point x="557.6388888888889" y="32.604166666666664"/>
      <point x="557.4722222222222" y="20.541666666666664" type="curve" smooth="yes"/>
      <point x="557.2152777777778" y="8.95138888888889"/>
      <point x="561.5416666666666" y="0.0"/>
      <point x="580.125" y="0.0" type="curve" smooth="yes"/>
      <point x="819.9027777777778" y="0.0" type="line" smooth="yes"/>
      <point x="838.4166666666666" y="0.0"/>
      <point x="849.6597222222222" y="6.173611111111111"/>
      <point x="849.9166666666666" y="20.01388888888889" type="curve" smooth="yes"/>
      <point x="850.0833333333334" y="32.111111111111114"/>
      <point x="843.8333333333334" y="39.048611111111114"/>
      <point x="829.1527777777778" y="44.59027777777778" type="curve" smooth="yes"/>
      <point x="808.875" y="52.173611111111114" type="line" smooth="yes"/>
      <point x="787.875" y="59.64583333333333"/>
      <point x="780.875" y="70.17361111111111"/>
      <point x="784.875" y="96.17361111111111" type="curve" smooth="yes"/>
      <point x="809.8819444444445" y="262.5486111111111"/>
      <point x="847.5694444444445" y="433.2708333333333"/>
      <point x="883.9027777777778" y="607.6111111111111" type="curve" smooth="yes"/>
      <point x="887.8472222222222" y="627.2777777777778"/>
      <point x="899.1527777777778" y="638.0555555555555"/>
      <point x="913.4027777777778" y="641.5277777777778" type="curve" smooth="yes"/>
      <point x="959.8194444444445" y="653.8611111111111" type="line" smooth="yes"/>
      <point x="973.0486111111111" y="656.8055555555555"/>
      <point x="982.5694444444445" y="666.4097222222222"/>
      <point x="982.7361111111111" y="678.4027777777778" type="curve" smooth="yes"/>
      <point x="983.5208333333334" y="693.3333333333334"/>
      <point x="973.6597222222222" y="700.0"/>
      <point x="959.0833333333334" y="700.0" type="curve" smooth="yes"/>
      <point x="959.0833333333334" y="700.0"/>
      <point x="837.6044020715631" y="700.0"/>
      <point x="815.9791666666666" y="700.0" type="curve" smooth="yes"/>
      <point x="797.0972222222222" y="700.0"/>
      <point x="778.4166666666666" y="691.3125"/>
      <point x="761.9236111111111" y="664.4652777777778" type="curve" smooth="yes"/>
      <point x="459.09027777777777" y="167.61111111111111" type="line"/>
    </contour>
  </outline>
</glyph>
<glyph name="O" format="2">
  <advance width="724.6944444444445"/>
  <unicode hex="004F"/>
  <anchor x="558.3125" y="773.0" name="center"/>
  <outline>
    <contour>
      <point x="544.2083333333334" y="712.4513888888889" type="curve" smooth="yes"/>
      <point x="347.65277777777777" y="712.4513888888889"/>
      <point x="189.98611111111111" y="560.0555555555555"/>
      <point x="142.60416666666666" y="362.88194444444446" type="curve" smooth="yes"/>
      <point x="84.72916666666667" y="118.89583333333333"/>
      <point x="191.34722222222223" y="-12.36111111111111"/>
      <point x="363.52777777777777" y="-12.36111111111111" type="curve" smooth="yes"/>
      <point x="545.6111111111111" y="-12.36111111111111"/>
      <point x="717.1666666666666" y="118.23611111111111"/>
      <point x="771.4722222222222" y="345.15277777777777" type="curve" smooth="yes"/>
      <point x="824.3263888888889" y="566.3194444444445"/>
      <point x="706.8402777777778" y="712.4513888888889"/>
    </contour>
    <contour>
      <point x="377.4791666666667" y="41.11805555555556" type="curve" smooth="yes"/>
      <point x="292.2638888888889" y="41.11805555555556"/>
      <point x="235.30945953297925" y="128.0496609576806"/>
      <point x="286.8888888888889" y="350.90972222222223" type="curve" smooth="yes"/>
      <point x="329.6532799441149" y="534.4256197764596"/>
      <point x="436.8611111111111" y="662.2291666666666"/>
      <point x="535.5972222222222" y="662.2291666666666" type="curve" smooth="yes"/>
      <point x="621.0138888888889" y="662.2291666666666"/>
      <point x="678.6349697503249" y="561.0728410462386"/>
      <point x="627.4375" y="362.7291666666667" type="curve" smooth="yes"/>
      <point x="568.1925129679979" y="133.74785661939018"/>
      <point x="473.2361111111111" y="41.11805555555556"/>
    </contour>
  </outline>
</glyph>
<glyph name="Q" format="2">
  <advance width="732.3680555555555"/>
  <unicode hex="0051"/>
  <outline>
    <contour>
      <point x="391.7638888888889" y="109.19444444444444" type="curve" smooth="yes"/>
      <point x="391.7638888888889" y="-43.076388888888886"/>
      <point x="479.0230734767025" y="-169.72222222222223"/>
      <point x="580.2638888888889" y="-169.72222222222223" type="curve" smooth="yes"/>
      <point x="618.9081541218637" y="-169.72222222222223"/>
      <point x="646.3359660652187" y="-158.1937366691631"/>
      <point x="668.5763888888889" y="-118.02777777777777" type="curve" smooth="yes"/>
      <point x="689.8402777777778" y="-79.65972222222223"/>
      <point x="697.1458333333334" y="-66.54716981132076"/>
      <point x="697.1458333333334" y="-52.875" type="curve" smooth="yes"/>
      <point x="697.1458333333334" y="-44.701388888888886"/>
      <point x="692.0416666666666" y="-37.52777777777778"/>
      <point x="680.7986111111111" y="-37.52777777777778" type="curve" smooth="yes"/>
      <point x="665.8055555555555" y="-37.52777777777778"/>
      <point x="648.1180555555555" y="-63.43055555555556"/>
      <point x="614.0069444444445" y="-63.43055555555556" type="curve" smooth="yes"/>
      <point x="511.5138888888889" y="-63.43055555555556"/>
      <point x="435.59722222222223" y="32.70521223470662"/>
      <point x="435.59722222222223" y="139.30555555555554" type="curve" smooth="yes"/>
      <point x="435.59722222222223" y="175.01218123861565"/>
      <point x="445.1875" y="198.2705128205128"/>
      <point x="445.1875" y="214.57638888888889" type="curve" smooth="yes"/>
      <point x="445.1875" y="224.13194444444446"/>
      <point x="441.11805555555554" y="231.09027777777777"/>
      <point x="429.875" y="231.09027777777777" type="curve" smooth="yes"/>
      <point x="409.9787581699346" y="231.09027777777777"/>
      <point x="391.7638888888889" y="191.60310990338166"/>
    </contour>
    <component base="O"/>
  </outline>
</glyph>
<glyph name="S" format="2">
  <advance width="538.7430555555555"/>
  <unicode hex="0053"/>
  <outline>
    <contour>
      <point x="284.5486111111111" y="-15.0" type="curve" smooth="yes"/>
      <point x="436.24305555555554" y="-15.0"/>
      <point x="535.2638888888889" y="79.63194444444444"/>
      <point x="535.2638888888889" y="193.64583333333334" type="curve" smooth="yes"/>
      <point x="535.2638888888889" y="269.88194444444446"/>
      <point x="498.43055555555554" y="324.6458333333333"/>
      <point x="403.86805555555554" y="384.25" type="curve" smooth="yes"/>
      <point x="319.6111111111111" y="438.31944444444446"/>
      <point x="289.34027777777777" y="480.75"/>
      <point x="289.34027777777777" y="537.1736111111111" type="curve" smooth="yes"/>
      <point x="289.34027777777777" y="603.8023148148148"/>
      <point x="342.2708333333333" y="660.4583333333334"/>
      <point x="427.0833333333333" y="660.4583333333334" type="curve" smooth="yes"/>
      <point x="477.34722222222223" y="660.4583333333334"/>
      <point x="518.0208333333334" y="632.625"/>
      <point x="532.0902777777778" y="577.7847222222222" type="curve" smooth="yes"/>
      <point x="542.3125" y="530.6875" type="line" smooth="yes"/>
      <point x="551.6111111111111" y="498.81944444444446"/>
      <point x="566.111335125448" y="488.78472222222223"/>
      <point x="591.75" y="488.78472222222223" type="curve" smooth="yes"/>
      <point x="630.5882936507936" y="488.78472222222223"/>
      <point x="657.5277777777778" y="523.832394894895"/>
      <point x="657.5277777777778" y="563.8958333333334" type="curve" smooth="yes"/>
      <point x="657.5277777777778" y="637.4220041322315"/>
      <point x="588.2986111111111" y="713.5625"/>
      <point x="462.4375" y="713.5625" type="curve" smooth="yes"/>
      <point x="290.2638888888889" y="713.5625"/>
      <point x="185.6875" y="594.2569444444445"/>
      <point x="185.6875" y="482.7986111111111" type="curve" smooth="yes"/>
      <point x="185.6875" y="416.75"/>
      <point x="218.79861111111111" y="353.28472222222223"/>
      <point x="315.8263888888889" y="289.27777777777777" type="curve" smooth="yes"/>
      <point x="394.5208333333333" y="238.22222222222223"/>
      <point x="423.5833333333333" y="200.72916666666666"/>
      <point x="423.5833333333333" y="148.99305555555554" type="curve" smooth="yes"/>
      <point x="423.5833333333333" y="82.53472222222223"/>
      <point x="374.78472222222223" y="35.1875"/>
      <point x="303.3958333333333" y="35.1875" type="curve" smooth="yes"/>
      <point x="231.43055555555554" y="35.1875"/>
      <point x="179.72222222222223" y="79.4375"/>
      <point x="162.73611111111111" y="153.5" type="curve" smooth="yes"/>
      <point x="151.16666666666666" y="191.99305555555554" type="line" smooth="yes"/>
      <point x="140.11111111111111" y="218.42361111111111"/>
      <point x="129.87972222222223" y="225.6875"/>
      <point x="117.22222222222223" y="225.6875" type="curve" smooth="yes"/>
      <point x="103.77322796934865" y="225.6875"/>
      <point x="94.70770532530713" y="213.99867813022962"/>
      <point x="93.20833333333333" y="194.13194444444446" type="curve" smooth="yes"/>
      <point x="81.4375" y="30.38888888888889" type="line" smooth="yes"/>
      <point x="81.4375" y="24.26388888888889"/>
      <point x="81.4375" y="18.01388888888889"/>
      <point x="81.4375" y="14.45138888888889" type="curve" smooth="yes"/>
      <point x="82.0" y="-7.090277777777778"/>
      <point x="89.44444444444444" y="-15.73611111111111"/>
      <point x="107.15277777777777" y="-15.73611111111111" type="curve" smooth="yes"/>
      <point x="123.09722222222223" y="-15.73611111111111"/>
      <point x="139.53472222222223" y="15.708333333333334"/>
      <point x="152.00694444444446" y="15.708333333333334" type="curve" smooth="yes"/>
      <point x="174.65972222222223" y="15.708333333333334"/>
      <point x="208.90277777777777" y="-15.0"/>
    </contour>
  </outline>
</glyph>
<glyph name="U" format="2">
  <advance width="649.8055555555555"/>
  <unicode hex="0055"/>
  <anchor x="552.5555555555555" y="738.0" name="center"/>
  <outline>
    <contour>
      <point x="563.5833333333334" y="207.76388888888889" type="line" smooth="yes"/>
      <point x="531.9444444444445" y="97.1875"/>
      <point x="470.2083333333333" y="49.388888888888886"/>
      <point x="390.2083333333333" y="49.388888888888886" type="curve" smooth="yes"/>
      <point x="321.125" y="49.388888888888886"/>
      <point x="276.9166666666667" y="84.70833333333333"/>
      <point x="276.9166666666667" y="155.81944444444446" type="curve" smooth="yes"/>
      <point x="276.9166666666667" y="193.16666666666666"/>
      <point x="282.8263888888889" y="237.86111111111111"/>
      <point x="304.7361111111111" y="315.02777777777777" type="curve" smooth="yes"/>
      <point x="378.1111111111111" y="580.8055555555555" type="line" smooth="yes"/>
      <point x="390.6111111111111" y="626.8263888888889"/>
      <point x="409.3888888888889" y="644.0138888888889"/>
      <point x="457.3333333333333" y="654.1041666666666" type="curve" smooth="yes"/>
      <point x="479.4861111111111" y="661.0069444444445"/>
      <point x="488.80555555555554" y="670.3055555555555"/>
      <point x="488.80555555555554" y="680.9305555555555" type="curve" smooth="yes"/>
      <point x="488.80555555555554" y="693.8611111111111"/>
      <point x="480.1041666666667" y="700.0902777777778"/>
      <point x="461.8263888888889" y="700.0902777777778" type="curve" smooth="yes"/>
      <point x="209.375" y="700.0902777777778" type="line" smooth="yes"/>
      <point x="193.81944444444446" y="700.0902777777778"/>
      <point x="186.56944444444446" y="690.3194444444445"/>
      <point x="186.56944444444446" y="678.9861111111111" type="curve" smooth="yes"/>
      <point x="186.56944444444446" y="667.7986111111111"/>
      <point x="190.3125" y="662.2222222222222"/>
      <point x="207.48611111111111" y="654.5763888888889" type="curve" smooth="yes"/>
      <point x="239.99305555555554" y="644.9791666666666"/>
      <point x="253.31944444444446" y="631.5694444444445"/>
      <point x="253.31944444444446" y="614.7708333333334" type="curve" smooth="yes"/>
      <point x="253.31944444444446" y="606.3402777777778"/>
      <point x="249.50694444444446" y="590.3541666666666"/>
      <point x="245.81944444444446" y="576.5833333333334" type="curve" smooth="yes"/>
      <point x="175.61111111111111" y="315.02777777777777" type="line" smooth="yes"/>
      <point x="162.22916666666666" y="264.68055555555554"/>
      <point x="139.79166666666666" y="186.16666666666666"/>
      <point x="139.79166666666666" y="146.81944444444446" type="curve" smooth="yes"/>
      <point x="139.79166666666666" y="54.19444444444444"/>
      <point x="203.84722222222223" y="-12.36111111111111"/>
      <point x="336.0833333333333" y="-12.36111111111111" type="curve" smooth="yes"/>
      <point x="485.375" y="-12.36111111111111"/>
      <point x="578.3402777777778" y="60.041666666666664"/>
      <point x="621.9861111111111" y="213.8125" type="curve" smooth="yes"/>
      <point x="720.8194444444445" y="568.4583333333334" type="line" smooth="yes"/>
      <point x="733.5347222222222" y="613.4722222222222"/>
      <point x="746.4791666666666" y="626.0902777777778"/>
      <point x="801.5694444444445" y="645.9513888888889" type="curve" smooth="yes"/>
      <point x="817.7986111111111" y="651.6388888888889"/>
      <point x="830.5069444444445" y="660.8125"/>
      <point x="830.5069444444445" y="678.4583333333334" type="curve" smooth="yes"/>
      <point x="830.5069444444445" y="690.8263888888889"/>
      <point x="820.9166666666666" y="700.0902777777778"/>
      <point x="807.3125" y="700.0902777777778" type="curve" smooth="yes"/>
      <point x="621.8958333333334" y="700.0902777777778" type="line" smooth="yes"/>
      <point x="606.0555555555555" y="700.0902777777778"/>
      <point x="597.6805555555555" y="690.3194444444445"/>
      <point x="597.6805555555555" y="678.9861111111111" type="curve" smooth="yes"/>
      <point x="597.6805555555555" y="669.8680555555555"/>
      <point x="601.8958333333334" y="661.6944444444445"/>
      <point x="623.2569444444445" y="651.6875" type="curve" smooth="yes"/>
      <point x="665.7361111111111" y="633.4791666666666"/>
      <point x="672.8611111111111" y="622.0902777777778"/>
      <point x="672.8611111111111" y="605.8402777777778" type="curve" smooth="yes"/>
      <point x="672.8611111111111" y="590.0972222222222"/>
      <point x="668.9583333333334" y="578.8541666666666"/>
      <point x="663.0555555555555" y="559.4583333333334" type="curve" smooth="yes"/>
    </contour>
  </outline>
</glyph>
<glyph name="X" format="2">
  <advance width="647.4861111111111"/>
  <unicode hex="0058"/>
  <outline>
    <contour>
      <point x="361.53472222222223" y="376.2361111111111" type="line"/>
      <point x="243.0" y="220.47222222222223" type="line" smooth="yes"/>
      <point x="150.44489958804775" y="100.27632251275429"/>
      <point x="105.02777777777777" y="70.29861111111111"/>
      <point x="49.27083333333333" y="57.951388888888886" type="curve" smooth="yes"/>
      <point x="23.334991381171907" y="52.401509823966215"/>
      <point x="15.597222222222221" y="42.262499999999996"/>
      <point x="15.597222222222221" y="27.458333333333332" type="curve" smooth="yes"/>
      <point x="15.597222222222221" y="10.348536036036037"/>
      <point x="24.851190476190474" y="0.0"/>
      <point x="44.27777777777778" y="0.0" type="curve" smooth="yes"/>
      <point x="239.09722222222223" y="0.0" type="line" smooth="yes"/>
      <point x="253.95833333333334" y="0.0"/>
      <point x="265.40277777777777" y="10.680555555555555"/>
      <point x="265.40277777777777" y="24.90277777777778" type="curve" smooth="yes"/>
      <point x="265.40277777777777" y="32.708171834625325"/>
      <point x="262.8196775693392" y="41.07447793410672"/>
      <point x="249.88194444444446" y="48.53472222222222" type="curve" smooth="yes"/>
      <point x="225.56642346389305" y="54.78012742931776"/>
      <point x="215.29861111111111" y="65.94444444444444"/>
      <point x="215.29861111111111" y="81.77083333333333" type="curve" smooth="yes"/>
      <point x="215.29861111111111" y="107.53923611111111"/>
      <point x="233.42574778545452" y="134.77573382643828"/>
      <point x="292.43055555555554" y="212.69444444444446" type="curve" smooth="yes"/>
      <point x="384.875" y="337.6111111111111" type="line"/>
    </contour>
    <contour>
      <point x="386.06944444444446" y="604.4652777777778" type="curve" smooth="yes"/>
      <point x="378.59722222222223" y="626.9930555555555"/>
      <point x="391.06944444444446" y="643.4652777777778"/>
      <point x="406.06944444444446" y="647.4652777777778" type="curve" smooth="yes"/>
      <point x="430.2916666666667" y="654.0486111111111" type="line" smooth="yes"/>
      <point x="446.00694444444446" y="658.1180555555555"/>
      <point x="455.0" y="666.2916666666666"/>
      <point x="455.0" y="679.5138888888889" type="curve" smooth="yes"/>
      <point x="455.0" y="692.8263888888889"/>
      <point x="447.3888888888889" y="700.0"/>
      <point x="432.2916666666667" y="700.0" type="curve" smooth="yes"/>
      <point x="216.15277777777777" y="700.0" type="line" smooth="yes"/>
      <point x="195.94444444444446" y="700.0"/>
      <point x="182.80555555555554" y="691.7916666666666"/>
      <point x="182.80555555555554" y="679.5138888888889" type="curve" smooth="yes"/>
      <point x="182.80555555555554" y="667.8333333333334"/>
      <point x="188.25694444444446" y="659.1319444444445"/>
      <point x="209.56944444444446" y="651.0486111111111" type="curve" smooth="yes"/>
      <point x="228.98611111111111" y="644.2152777777778"/>
      <point x="239.625" y="637.5763888888889"/>
      <point x="252.09722222222223" y="607.4652777777778" type="curve" smooth="yes"/>
      <point x="332.03472222222223" y="408.375"/>
      <point x="411.09722222222223" y="204.59027777777777"/>
      <point x="448.84722222222223" y="99.0625" type="curve" smooth="yes"/>
      <point x="452.84722222222223" y="86.0625"/>
      <point x="453.84722222222223" y="80.0625"/>
      <point x="453.84722222222223" y="75.0625" type="curve" smooth="yes"/>
      <point x="453.84722222222223" y="60.951388888888886"/>
      <point x="438.625" y="50.89583333333333"/>
      <point x="411.2916666666667" y="46.84027777777778" type="curve" smooth="yes"/>
      <point x="392.74305555555554" y="44.33333333333333"/>
      <point x="384.75" y="34.83333333333333"/>
      <point x="384.75" y="22.26388888888889" type="curve" smooth="yes"/>
      <point x="384.75" y="9.86111111111111"/>
      <point x="391.3263888888889" y="0.0"/>
      <point x="406.9861111111111" y="0.0" type="curve" smooth="yes"/>
      <point x="622.625" y="0.0" type="line" smooth="yes"/>
      <point x="639.1388888888889" y="0.0"/>
      <point x="650.1666666666666" y="9.680555555555555"/>
      <point x="650.1666666666666" y="22.958333333333332" type="curve" smooth="yes"/>
      <point x="650.1666666666666" y="37.236111111111114"/>
      <point x="646.1875" y="42.90277777777778"/>
      <point x="627.4027777777778" y="49.479166666666664" type="curve" smooth="yes"/>
      <point x="607.8194444444445" y="56.00694444444444"/>
      <point x="593.2361111111111" y="68.70138888888889"/>
      <point x="582.7638888888889" y="92.17361111111111" type="curve" smooth="yes"/>
      <point x="504.40972222222223" y="277.1458333333333"/>
      <point x="420.7291666666667" y="498.40972222222223"/>
    </contour>
    <contour>
      <point x="467.3611111111111" y="343.1388888888889" type="line"/>
      <point x="568.1805555555555" y="488.6736111111111" type="line" smooth="yes"/>
      <point x="626.7489069591488" y="576.2723474926507"/>
      <point x="659.1905193236715" y="603.1388888888889"/>
      <point x="687.3402777777778" y="603.1388888888889" type="curve" smooth="yes"/>
      <point x="713.3333333333334" y="603.1388888888889"/>
      <point x="730.6388888888889" y="574.9166666666666"/>
      <point x="764.7569444444445" y="574.9166666666666" type="curve" smooth="yes"/>
      <point x="796.2152777777778" y="574.9166666666666"/>
      <point x="828.1458333333334" y="600.6666666666666"/>
      <point x="828.1458333333334" y="640.1180555555555" type="curve" smooth="yes"/>
      <point x="828.1458333333334" y="680.3819444444445"/>
      <point x="805.7430555555555" y="712.3611111111111"/>
      <point x="753.6041666666666" y="712.3611111111111" type="curve" smooth="yes"/>
      <point x="693.0524611398963" y="712.3611111111111"/>
      <point x="644.0777247298871" y="680.9827690262312"/>
      <point x="530.9097222222222" y="510.80555555555554" type="curve" smooth="yes"/>
      <point x="441.93055555555554" y="383.6111111111111" type="line"/>
    </contour>
  </outline>
</glyph>
<glyph name="Z" format="2">
  <advance width="584.2638888888889"/>
  <unicode hex="005A"/>
  <outline>
    <contour>
      <point x="415.52777777777777" y="0.0" type="line" smooth="yes"/>
      <point x="445.43616358570233" y="0.0"/>
      <point x="464.9275173611111" y="-12.833333333333332"/>
      <point x="485.47222222222223" y="-12.833333333333332" type="curve" smooth="yes"/>
      <point x="551.5964590964591" y="-12.833333333333332"/>
      <point x="614.6944444444445" y="78.78195699496835"/>
      <point x="614.6944444444445" y="178.95833333333334" type="curve" smooth="yes"/>
      <point x="614.6944444444445" y="207.7783446712018"/>
      <point x="606.6111111111111" y="220.95833333333334"/>
      <point x="592.3541666666666" y="220.95833333333334" type="curve" smooth="yes"/>
      <point x="578.7613636363636" y="220.95833333333334"/>
      <point x="570.2397024675647" y="214.20104602972611"/>
      <point x="559.5208333333334" y="199.92361111111111" type="curve" smooth="yes"/>
      <point x="535.7430555555555" y="162.88888888888889" type="line" smooth="yes"/>
      <point x="489.59722222222223" y="82.54166666666667"/>
      <point x="438.6647291282996" y="47.31944444444444"/>
      <point x="350.81944444444446" y="47.31944444444444" type="curve" smooth="yes"/>
      <point x="159.97222222222223" y="47.31944444444444" type="line"/>
      <point x="185.16666666666666" y="15.61111111111111" type="line"/>
      <point x="351.8841838480255" y="225.6517263094263"/>
      <point x="546.5763888888889" y="458.2013888888889"/>
      <point x="703.0138888888889" y="634.2986111111111" type="curve" smooth="yes"/>
      <point x="715.4236111111111" y="647.0555555555555"/>
      <point x="724.25" y="662.8541666666666"/>
      <point x="724.25" y="674.6458333333334" type="curve" smooth="yes"/>
      <point x="724.25" y="692.3888888888889"/>
      <point x="714.4583333333334" y="700.1805555555555"/>
      <point x="693.4444444444445" y="700.1805555555555" type="curve" smooth="yes"/>
      <point x="349.4861111111111" y="700.1805555555555" type="line" smooth="yes"/>
      <point x="320.56944444444446" y="700.1805555555555"/>
      <point x="307.6111111111111" y="719.4861111111111"/>
      <point x="288.1458333333333" y="719.4861111111111" type="curve" smooth="yes"/>
      <point x="271.4375" y="719.4861111111111"/>
      <point x="258.9236111111111" y="711.9652777777778"/>
      <point x="249.96527777777777" y="687.7361111111111" type="curve" smooth="yes"/>
      <point x="194.52083333333334" y="552.1666666666666" type="line" smooth="yes"/>
      <point x="190.63121451173325" y="540.9674627599035"/>
      <point x="187.63194444444446" y="533.8055555555555"/>
      <point x="187.63194444444446" y="527.5277777777778" type="curve" smooth="yes"/>
      <point x="187.63194444444446" y="516.5590277777778"/>
      <point x="194.83531746031747" y="509.52777777777777"/>
      <point x="209.13194444444446" y="509.52777777777777" type="curve" smooth="yes"/>
      <point x="221.1087962962963" y="509.52777777777777"/>
      <point x="227.88194444444446" y="515.6666666666666"/>
      <point x="249.96527777777777" y="538.75" type="curve" smooth="yes"/>
      <point x="289.96527777777777" y="583.4444444444445" type="line" smooth="yes"/>
      <point x="338.13194444444446" y="637.7986111111111"/>
      <point x="364.4861111111111" y="652.8611111111111"/>
      <point x="418.63194444444446" y="652.8611111111111" type="curve" smooth="yes"/>
      <point x="610.1111111111111" y="652.8611111111111" type="line"/>
      <point x="593.9166666666666" y="683.5694444444445" type="line"/>
      <point x="427.0236010767798" y="473.1920299984908"/>
      <point x="230.2001565984163" y="244.97165606850837"/>
      <point x="83.92361111111111" y="82.38888888888889" type="curve" smooth="yes"/>
      <point x="61.34722222222222" y="58.90277777777778"/>
      <point x="46.02777777777778" y="39.916666666666664"/>
      <point x="46.02777777777778" y="25.86111111111111" type="curve" smooth="yes"/>
      <point x="46.02777777777778" y="8.26388888888889"/>
      <point x="55.763888888888886" y="0.0"/>
      <point x="78.83333333333333" y="0.0" type="curve" smooth="yes"/>
    </contour>
  </outline>
</glyph>
<glyph name="bracketleft" format="2">
  <advance width="361.7013888888889"/>
  <unicode hex="005B"/>
  <outline>
    <contour>
      <point x="393.5486111111111" y="680.7638888888889" type="line" smooth="yes"/>
      <point x="398.65277777777777" y="699.0902777777778"/>
      <point x="415.9583333333333" y="712.8194444444445"/>
      <point x="433.28472222222223" y="712.8194444444445" type="curve" smooth="yes"/>
      <point x="512.2430555555555" y="712.8194444444445" type="line" smooth="yes"/>
      <point x="531.3125" y="712.8194444444445"/>
      <point x="542.7777777777778" y="719.0138888888889"/>
      <point x="546.4097222222222" y="733.4375" type="curve" smooth="yes"/>
      <point x="548.9166666666666" y="745.7916666666666"/>
      <point x="542.6111111111111" y="755.4722222222222"/>
      <point x="523.9583333333334" y="755.4722222222222" type="curve" smooth="yes"/>
      <point x="349.27777777777777" y="755.4722222222222" type="line" smooth="yes"/>
      <point x="327.4791666666667" y="755.4722222222222"/>
      <point x="305.6458333333333" y="735.7986111111111"/>
      <point x="299.15972222222223" y="711.0555555555555" type="curve" smooth="yes"/>
      <point x="72.28472222222223" y="-135.75" type="line" smooth="yes"/>
      <point x="66.32638888888889" y="-158.38194444444446"/>
      <point x="78.00694444444444" y="-177.0"/>
      <point x="99.27777777777777" y="-177.0" type="curve" smooth="yes"/>
      <point x="275.0138888888889" y="-177.0" type="line" smooth="yes"/>
      <point x="294.19444444444446" y="-177.0"/>
      <point x="305.1111111111111" y="-166.22916666666666"/>
      <point x="307.61805555555554" y="-154.96527777777777" type="curve" smooth="yes"/>
      <point x="311.25" y="-141.06944444444446"/>
      <point x="303.96527777777777" y="-134.34722222222223"/>
      <point x="283.84027777777777" y="-134.34722222222223" type="curve" smooth="yes"/>
      <point x="206.46527777777777" y="-134.34722222222223" type="line" smooth="yes"/>
      <point x="189.13888888888889" y="-134.34722222222223"/>
      <point x="178.89583333333334" y="-120.09027777777777"/>
      <point x="183.47222222222223" y="-102.29166666666667" type="curve" smooth="yes"/>
    </contour>
  </outline>
</glyph>
<glyph name="c" format="2">
  <advance width="400.28472222222223"/>
  <unicode hex="0063"/>
  <anchor x="337.25" y="512.7777777777778" name="center"/>
  <outline>
    <contour>
      <point x="317.0763888888889" y="410.90972222222223" type="curve" smooth="yes"/>
      <point x="341.2864923747277" y="410.90972222222223"/>
      <point x="355.28472222222223" y="392.1603260869565"/>
      <point x="355.28472222222223" y="369.36805555555554" type="curve" smooth="yes"/>
      <point x="355.28472222222223" y="353.66490112994353"/>
      <point x="347.9375" y="334.8820621468926"/>
      <point x="347.9375" y="321.47222222222223" type="curve" smooth="yes"/>
      <point x="347.9375" y="292.86805555555554"/>
      <point x="366.1458333333333" y="274.9861111111111"/>
      <point x="392.4583333333333" y="274.9861111111111" type="curve" smooth="yes"/>
      <point x="432.8600427350427" y="274.9861111111111"/>
      <point x="465.6666666666667" y="307.625"/>
      <point x="465.6666666666667" y="362.61805555555554" type="curve" smooth="yes"/>
      <point x="465.6666666666667" y="412.5833333333333"/>
      <point x="426.8896447467876" y="464.5138888888889"/>
      <point x="349.2361111111111" y="464.5138888888889" type="curve" smooth="yes"/>
      <point x="202.47277369715894" y="464.5138888888889"/>
      <point x="76.38194444444444" y="299.8988526570048"/>
      <point x="76.38194444444444" y="134.54861111111111" type="curve" smooth="yes"/>
      <point x="76.38194444444444" y="48.442057291666664"/>
      <point x="129.23218599033817" y="-12.36111111111111"/>
      <point x="218.25" y="-12.36111111111111" type="curve" smooth="yes"/>
      <point x="328.41072022621427" y="-12.36111111111111"/>
      <point x="415.0416666666667" y="68.70833333333333"/>
      <point x="415.0416666666667" y="133.79861111111111" type="curve" smooth="yes"/>
      <point x="415.0416666666667" y="152.54166666666666"/>
      <point x="406.99305555555554" y="164.40277777777777"/>
      <point x="395.9513888888889" y="164.40277777777777" type="curve" smooth="yes"/>
      <point x="383.90972222222223" y="164.40277777777777"/>
      <point x="374.2638888888889" y="153.9375"/>
      <point x="368.3611111111111" y="142.4375" type="curve" smooth="yes"/>
      <point x="349.6994239838684" y="92.3334059759336"/>
      <point x="313.4753485628486" y="60.43055555555556"/>
      <point x="263.7013888888889" y="60.43055555555556" type="curve" smooth="yes"/>
      <point x="218.78072975121586" y="60.43055555555556"/>
      <point x="188.20833333333334" y="100.13940329218107"/>
      <point x="188.20833333333334" y="176.70138888888889" type="curve" smooth="yes"/>
      <point x="188.20833333333334" y="306.81944444444446"/>
      <point x="251.6529254472528" y="410.90972222222223"/>
    </contour>
  </outline>
</glyph>
<glyph name="d" format="2">
  <advance width="499.90277777777777"/>
  <unicode hex="0064"/>
  <outline>
    <contour>
      <point x="510.4791666666667" y="396.55555555555554" type="line"/>
      <point x="508.96527777777777" y="434.13194444444446"/>
      <point x="468.9791666666667" y="464.5138888888889"/>
      <point x="409.7638888888889" y="464.5138888888889" type="curve" smooth="yes"/>
      <point x="243.48802083333334" y="464.5138888888889"/>
      <point x="66.99305555555556" y="274.34722222222223"/>
      <point x="66.99305555555556" y="99.02083333333333" type="curve" smooth="yes"/>
      <point x="66.99305555555556" y="24.11111111111111"/>
      <point x="103.50251610305958" y="-12.36111111111111"/>
      <point x="162.54861111111111" y="-12.36111111111111" type="curve" smooth="yes"/>
      <point x="236.37878787878788" y="-12.36111111111111"/>
      <point x="315.7186702361732" y="43.11991722374495"/>
      <point x="387.0763888888889" y="197.20138888888889" type="curve"/>
      <point x="369.7638888888889" y="198.69444444444446" type="line"/>
      <point x="365.0138888888889" y="152.59722222222223"/>
      <point x="342.50694444444446" y="104.20138888888889"/>
      <point x="342.50694444444446" y="52.25" type="curve" smooth="yes"/>
      <point x="342.50694444444446" y="15.680555555555555"/>
      <point x="366.56944444444446" y="-12.36111111111111"/>
      <point x="402.34027777777777" y="-12.36111111111111" type="curve" smooth="yes"/>
      <point x="476.5625" y="-12.36111111111111"/>
      <point x="525.6736111111111" y="41.96527777777778"/>
      <point x="525.6736111111111" y="88.63194444444444" type="curve" smooth="yes"/>
      <point x="525.6736111111111" y="101.77777777777777"/>
      <point x="519.5" y="110.89583333333333"/>
      <point x="509.90972222222223" y="110.89583333333333" type="curve" smooth="yes"/>
      <point x="505.2013888888889" y="110.89583333333333"/>
      <point x="502.75" y="109.3125"/>
      <point x="499.4583333333333" y="103.52777777777777" type="curve" smooth="yes"/>
      <point x="489.8541666666667" y="77.18055555555556"/>
      <point x="479.46527777777777" y="69.46527777777777"/>
      <point x="466.625" y="69.46527777777777" type="curve" smooth="yes"/>
      <point x="453.1875" y="69.46527777777777"/>
      <point x="444.80555555555554" y="81.44444444444444"/>
      <point x="444.80555555555554" y="109.75694444444444" type="curve" smooth="yes"/>
      <point x="444.80555555555554" y="125.95833333333333"/>
      <point x="447.8958333333333" y="148.38194444444446"/>
      <point x="458.2916666666667" y="184.75" type="curve" smooth="yes"/>
      <point x="548.2638888888889" y="489.6041666666667" type="line" smooth="yes"/>
      <point x="564.6507341071518" y="544.8808396952471"/>
      <point x="546.5416666666666" y="567.9583333333334"/>
      <point x="547.0694444444445" y="603.1736111111111" type="curve" smooth="yes"/>
      <point x="547.0694444444445" y="621.6458333333334"/>
      <point x="554.4166666666666" y="630.4305555555555"/>
      <point x="571.3055555555555" y="630.4305555555555" type="curve" smooth="yes"/>
      <point x="595.1781400966183" y="630.4305555555555"/>
      <point x="614.4722222222222" y="608.6319444444445"/>
      <point x="649.2916666666666" y="608.6319444444445" type="curve" smooth="yes"/>
      <point x="686.1467013888889" y="608.6319444444445"/>
      <point x="710.9513888888889" y="630.4722222222222"/>
      <point x="710.9513888888889" y="663.25" type="curve" smooth="yes"/>
      <point x="710.9513888888889" y="696.2638888888889"/>
      <point x="688.3886959876543" y="720.625"/>
      <point x="647.8888888888889" y="720.625" type="curve" smooth="yes"/>
      <point x="574.8363526570048" y="720.625"/>
      <point x="516.7487958941734" y="678.3689151991796"/>
      <point x="487.00694444444446" y="581.7152777777778" type="curve" smooth="yes"/>
      <point x="416.34722222222223" y="351.1666666666667" type="line" smooth="yes"/>
      <point x="356.36483259721933" y="156.02167331848352"/>
      <point x="274.31443089430894" y="71.38888888888889"/>
      <point x="219.05555555555554" y="71.38888888888889" type="curve" smooth="yes"/>
      <point x="185.79289215686276" y="71.38888888888889"/>
      <point x="165.07638888888889" y="92.55555555555556"/>
      <point x="165.07638888888889" y="143.61805555555554" type="curve" smooth="yes"/>
      <point x="165.07638888888889" y="285.7013888888889"/>
      <point x="257.62988826815644" y="398.3541666666667"/>
      <point x="378.625" y="398.3541666666667" type="curve" smooth="yes"/>
      <point x="406.84722222222223" y="398.3541666666667"/>
      <point x="425.40972222222223" y="384.8541666666667"/>
      <point x="431.74305555555554" y="355.2708333333333" type="curve"/>
    </contour>
  </outline>
</glyph>
<glyph name="e" format="2">
  <advance width="414.55555555555554"/>
  <unicode hex="0065"/>
  <anchor x="332.4166666666667" y="528.0" name="center"/>
  <outline>
    <contour>
      <point x="128.56944444444446" y="204.45138888888889" type="curve"/>
      <point x="133.56944444444446" y="167.07638888888889" type="line"/>
      <point x="133.56944444444446" y="167.07638888888889"/>
      <point x="401.9939777596726" y="276.48133164969397"/>
      <point x="458.0625" y="296.6111111111111" type="curve" smooth="yes"/>
      <point x="478.1111111111111" y="304.22222222222223"/>
      <point x="484.0486111111111" y="315.44444444444446"/>
      <point x="484.0486111111111" y="327.2291666666667" type="curve" smooth="yes"/>
      <point x="484.0486111111111" y="336.94444444444446"/>
      <point x="478.5625" y="342.9375"/>
      <point x="468.65972222222223" y="345.1875" type="curve" smooth="yes"/>
      <point x="458.71527777777777" y="346.875"/>
      <point x="452.2083333333333" y="352.7986111111111"/>
      <point x="450.6458333333333" y="364.00694444444446" type="curve" smooth="yes"/>
      <point x="444.2291666666667" y="429.71527777777777"/>
      <point x="400.3611111111111" y="464.5138888888889"/>
      <point x="341.53472222222223" y="464.5138888888889" type="curve" smooth="yes"/>
      <point x="203.80638888888888" y="464.5138888888889"/>
      <point x="69.38194444444444" y="294.6388888888889"/>
      <point x="69.38194444444444" y="141.29861111111111" type="curve" smooth="yes"/>
      <point x="69.38194444444444" y="51.201388888888886"/>
      <point x="124.54934210526315" y="-12.36111111111111"/>
      <point x="224.60416666666666" y="-12.36111111111111" type="curve" smooth="yes"/>
      <point x="351.02458708708707" y="-12.36111111111111"/>
      <point x="434.5486111111111" y="72.94444444444444"/>
      <point x="434.5486111111111" y="155.92361111111111" type="curve" smooth="yes"/>
      <point x="434.5486111111111" y="168.70833333333334"/>
      <point x="428.28472222222223" y="180.63888888888889"/>
      <point x="413.63194444444446" y="180.63888888888889" type="curve" smooth="yes"/>
      <point x="401.15972222222223" y="180.63888888888889"/>
      <point x="388.9236111111111" y="170.52777777777777"/>
      <point x="380.7708333333333" y="150.47916666666666" type="curve" smooth="yes"/>
      <point x="366.3739693955763" y="94.90566492541191"/>
      <point x="320.29761191047163" y="59.013888888888886"/>
      <point x="269.7708333333333" y="59.013888888888886" type="curve" smooth="yes"/>
      <point x="219.0235164141414" y="59.013888888888886"/>
      <point x="182.63888888888889" y="101.875"/>
      <point x="182.63888888888889" y="178.29166666666666" type="curve" smooth="yes"/>
      <point x="182.63888888888889" y="309.3263888888889"/>
      <point x="243.60069444444446" y="405.19444444444446"/>
      <point x="306.00694444444446" y="405.19444444444446" type="curve" smooth="yes"/>
      <point x="334.0486111111111" y="405.19444444444446"/>
      <point x="350.94444444444446" y="379.27777777777777"/>
      <point x="350.94444444444446" y="340.3611111111111" type="curve" smooth="yes"/>
      <point x="350.94444444444446" y="317.61805555555554"/>
      <point x="347.7986111111111" y="299.1736111111111"/>
      <point x="341.1666666666667" y="281.84027777777777" type="curve"/>
      <point x="398.77777777777777" y="319.4513888888889" type="line"/>
      <point x="344.7531396320244" y="291.9338274009559"/>
      <point x="128.56944444444446" y="204.45138888888889"/>
    </contour>
  </outline>
</glyph>
<glyph name="g" format="2">
  <advance width="472.6736111111111"/>
  <unicode hex="0067"/>
  <outline>
    <contour>
      <point x="447.9513888888889" y="17.11111111111111" type="curve" smooth="yes"/>
      <point x="465.6122130561447" y="93.8450987872998"/>
      <point x="485.3536196968108" y="244.16636161048834"/>
      <point x="491.81944444444446" y="303.6388888888889" type="curve" smooth="yes"/>
      <point x="496.3611111111111" y="349.18055555555554"/>
      <point x="542.9444444444445" y="367.9513888888889"/>
      <point x="542.9444444444445" y="405.40277777777777" type="curve" smooth="yes"/>
      <point x="542.9444444444445" y="443.2361111111111"/>
      <point x="506.625" y="464.5138888888889"/>
      <point x="438.49305555555554" y="464.5138888888889" type="curve" smooth="yes"/>
      <point x="241.79623155959004" y="464.5138888888889"/>
      <point x="70.4375" y="273.3958333333333"/>
      <point x="70.4375" y="93.875" type="curve" smooth="yes"/>
      <point x="70.4375" y="23.208333333333332"/>
      <point x="104.81787634408602" y="-12.36111111111111"/>
      <point x="158.61111111111111" y="-12.36111111111111" type="curve" smooth="yes"/>
      <point x="238.90001106684375" y="-12.36111111111111"/>
      <point x="355.1441511635106" y="65.55834361297808"/>
      <point x="405.2638888888889" y="235.24305555555554" type="curve"/>
      <point x="388.4513888888889" y="239.81944444444446" type="line"/>
      <point x="388.4513888888889" y="200.05555555555554"/>
      <point x="372.97222222222223" y="124.72916666666667"/>
      <point x="336.4375" y="-19.51388888888889" type="curve" smooth="yes"/>
      <point x="303.98001916267685" y="-147.65206032191372"/>
      <point x="262.0763888888889" y="-187.07638888888889"/>
      <point x="210.59027777777777" y="-187.07638888888889" type="curve" smooth="yes"/>
      <point x="141.93055555555554" y="-187.07638888888889"/>
      <point x="95.60416666666666" y="-108.70138888888889"/>
      <point x="40.59722222222222" y="-108.70138888888889" type="curve" smooth="yes"/>
      <point x="5.020833333333332" y="-108.70138888888889"/>
      <point x="-15.569444444444446" y="-132.29861111111111"/>
      <point x="-15.569444444444446" y="-164.88194444444446" type="curve" smooth="yes"/>
      <point x="-15.569444444444446" y="-206.65972222222223"/>
      <point x="27.15972222222222" y="-245.0"/>
      <point x="121.61805555555556" y="-245.0" type="curve" smooth="yes"/>
      <point x="267.19444444444446" y="-245.0"/>
      <point x="403.3516408007196" y="-172.47390838206675"/>
    </contour>
    <contour>
      <point x="171.13194444444446" y="143.61805555555554" type="curve" smooth="yes"/>
      <point x="171.13194444444446" y="286.7083333333333"/>
      <point x="271.6224125491367" y="395.24305555555554"/>
      <point x="356.0416666666667" y="395.24305555555554" type="curve" smooth="yes"/>
      <point x="388.09722222222223" y="395.24305555555554"/>
      <point x="403.5486111111111" y="370.3541666666667"/>
      <point x="403.5486111111111" y="334.375" type="curve" smooth="yes"/>
      <point x="403.5486111111111" y="245.08485540334857"/>
      <point x="306.2397660818713" y="72.04861111111111"/>
      <point x="227.875" y="72.04861111111111" type="curve" smooth="yes"/>
      <point x="192.48762626262626" y="72.04861111111111"/>
      <point x="171.13194444444446" y="96.08333333333333"/>
    </contour>
  </outline>
</glyph>
<glyph name="h" format="2">
  <advance width="501.09722222222223"/>
  <unicode hex="0068"/>
  <outline>
    <contour>
      <point x="215.66666666666666" y="194.54166666666666" type="curve" smooth="yes"/>
      <point x="198.88888888888889" y="146.90972222222223"/>
      <point x="191.79166666666666" y="114.36805555555556"/>
      <point x="191.79166666666666" y="91.8125" type="curve" smooth="yes"/>
      <point x="191.79166666666666" y="65.84027777777777"/>
      <point x="199.58333333333334" y="53.84722222222222"/>
      <point x="199.58333333333334" y="34.96527777777778" type="curve" smooth="yes"/>
      <point x="199.58333333333334" y="6.340277777777778"/>
      <point x="159.71527777777777" y="-12.36111111111111"/>
      <point x="116.72222222222223" y="-12.36111111111111" type="curve" smooth="yes"/>
      <point x="86.69444444444444" y="-12.36111111111111"/>
      <point x="66.59722222222223" y="5.666666666666666"/>
      <point x="66.59722222222223" y="34.59722222222222" type="curve" smooth="yes"/>
      <point x="66.59722222222223" y="47.75694444444444"/>
      <point x="69.125" y="63.13194444444444"/>
      <point x="82.25" y="104.15972222222223" type="curve" smooth="yes"/>
      <point x="206.67361111111111" y="494.71527777777777" type="line" smooth="yes"/>
      <point x="250.43055555555554" y="630.9513888888889"/>
      <point x="362.8958333333333" y="720.625"/>
      <point x="519.6875" y="720.625" type="curve" smooth="yes"/>
      <point x="586.4375" y="720.625"/>
      <point x="617.5833333333334" y="693.6597222222222"/>
      <point x="617.5833333333334" y="658.1597222222222" type="curve" smooth="yes"/>
      <point x="617.5833333333334" y="629.3194444444445"/>
      <point x="595.9791666666666" y="604.9930555555555"/>
      <point x="549.4583333333334" y="604.9930555555555" type="curve" smooth="yes"/>
      <point x="489.84722222222223" y="604.9930555555555"/>
      <point x="461.4866255144033" y="657.1319444444445"/>
      <point x="408.3263888888889" y="657.1319444444445" type="curve" smooth="yes"/>
      <point x="373.270325203252" y="657.1319444444445"/>
      <point x="344.5047643835241" y="631.2868901733764"/>
      <point x="318.5625" y="550.0486111111111" type="curve" smooth="yes"/>
      <point x="269.7013888888889" y="393.9375"/>
      <point x="254.63194444444446" y="344.0625"/>
      <point x="244.92361111111111" y="291.31944444444446" type="curve"/>
      <point x="226.10416666666666" y="277.47222222222223" type="line"/>
      <point x="288.1769137326959" y="405.0401493798279"/>
      <point x="380.5196163064382" y="464.5138888888889"/>
      <point x="458.78472222222223" y="464.5138888888889" type="curve" smooth="yes"/>
      <point x="501.03472222222223" y="464.5138888888889"/>
      <point x="524.5277777777778" y="437.7083333333333"/>
      <point x="524.5277777777778" y="401.5208333333333" type="curve" smooth="yes"/>
      <point x="524.5277777777778" y="367.0833333333333"/>
      <point x="517.4166666666666" y="341.77777777777777"/>
      <point x="502.5833333333333" y="302.90277777777777" type="curve" smooth="yes"/>
      <point x="443.38194444444446" y="144.625" type="line" smooth="yes"/>
      <point x="436.52777777777777" y="127.20138888888889"/>
      <point x="431.3958333333333" y="110.36111111111111"/>
      <point x="431.21527777777777" y="93.34027777777777" type="curve" smooth="yes"/>
      <point x="431.125" y="76.71527777777777"/>
      <point x="439.27777777777777" y="64.15277777777777"/>
      <point x="453.24305555555554" y="64.15277777777777" type="curve" smooth="yes"/>
      <point x="467.125" y="64.15277777777777"/>
      <point x="479.7708333333333" y="73.5625"/>
      <point x="488.11805555555554" y="95.76388888888889" type="curve" smooth="yes"/>
      <point x="494.5833333333333" y="103.41666666666667"/>
      <point x="499.03472222222223" y="104.65277777777777"/>
      <point x="504.5208333333333" y="104.65277777777777" type="curve" smooth="yes"/>
      <point x="512.6736111111111" y="104.65277777777777"/>
      <point x="518.1597222222222" y="94.48611111111111"/>
      <point x="518.0694444444445" y="81.82638888888889" type="curve" smooth="yes"/>
      <point x="517.8888888888889" y="36.03472222222222"/>
      <point x="466.5416666666667" y="-12.36111111111111"/>
      <point x="391.69444444444446" y="-12.36111111111111" type="curve" smooth="yes"/>
      <point x="345.31944444444446" y="-12.36111111111111"/>
      <point x="320.68055555555554" y="10.729166666666666"/>
      <point x="319.80555555555554" y="48.729166666666664" type="curve" smooth="yes"/>
      <point x="319.8958333333333" y="73.4375"/>
      <point x="327.44444444444446" y="97.23611111111111"/>
      <point x="339.4236111111111" y="126.90972222222223" type="curve" smooth="yes"/>
      <point x="398.88194444444446" y="285.44444444444446" type="line" smooth="yes"/>
      <point x="408.46754693515743" y="310.59898706160413"/>
      <point x="417.34722222222223" y="337.8441358024691"/>
      <point x="417.34722222222223" y="356.78472222222223" type="curve" smooth="yes"/>
      <point x="417.34722222222223" y="373.7158408408408"/>
      <point x="406.875" y="386.9166666666667"/>
      <point x="383.90277777777777" y="386.9166666666667" type="curve" smooth="yes"/>
      <point x="321.0679563492063" y="386.9166666666667"/>
      <point x="252.73237463554787" y="299.62073542887674"/>
    </contour>
  </outline>
</glyph>
<glyph name="k" format="2">
  <advance width="505.2083333333333"/>
  <unicode hex="006B"/>
  <outline>
    <contour>
      <point x="210.97916666666666" y="278.28472222222223" type="line"/>
      <point x="262.4583333333333" y="390.99305555555554"/>
      <point x="361.6851459510358" y="464.5138888888889"/>
      <point x="458.55555555555554" y="464.5138888888889" type="curve" smooth="yes"/>
      <point x="521.9444444444445" y="464.5138888888889"/>
      <point x="562.1597222222222" y="432.9109224965706"/>
      <point x="562.1597222222222" y="371.4236111111111" type="curve" smooth="yes"/>
      <point x="562.1597222222222" y="284.4184904601571"/>
      <point x="460.9209721328421" y="216.2478548555763"/>
      <point x="179.13888888888889" y="148.76388888888889" type="curve"/>
      <point x="177.13888888888889" y="183.3125" type="line"/>
      <point x="389.65972222222223" y="239.74305555555554"/>
      <point x="449.81944444444446" y="299.8958333333333"/>
      <point x="449.81944444444446" y="363.875" type="curve" smooth="yes"/>
      <point x="449.81944444444446" y="393.4771148989899"/>
      <point x="434.56916666666666" y="408.00694444444446"/>
      <point x="405.24305555555554" y="408.00694444444446" type="curve" smooth="yes"/>
      <point x="339.8406950405341" y="408.00694444444446"/>
      <point x="247.03077890914605" y="320.7121447846179"/>
      <point x="207.54166666666666" y="182.41666666666666" type="curve" smooth="yes"/>
      <point x="196.84722222222223" y="144.22222222222223"/>
      <point x="186.42361111111111" y="119.15376984126985"/>
      <point x="186.42361111111111" y="100.02777777777777" type="curve" smooth="yes"/>
      <point x="186.42361111111111" y="70.30395299145299"/>
      <point x="193.69444444444446" y="57.673611111111114"/>
      <point x="193.69444444444446" y="38.986111111111114" type="curve" smooth="yes"/>
      <point x="193.69444444444446" y="7.868055555555555"/>
      <point x="154.23276748971193" y="-12.833333333333332"/>
      <point x="109.33333333333333" y="-12.833333333333332" type="curve" smooth="yes"/>
      <point x="81.1329732510288" y="-12.833333333333332"/>
      <point x="62.71527777777778" y="3.632616487455198"/>
      <point x="62.71527777777778" y="33.25" type="curve" smooth="yes"/>
      <point x="62.71527777777778" y="50.5787037037037"/>
      <point x="67.05733676970748" y="69.9130175309295"/>
      <point x="75.71527777777777" y="95.91666666666667" type="curve" smooth="yes"/>
      <point x="208.65972222222223" y="503.8333333333333" type="line" smooth="yes"/>
      <point x="252.41666666666666" y="638.7916666666666"/>
      <point x="355.34722222222223" y="721.0625"/>
      <point x="520.4166666666666" y="721.0625" type="curve" smooth="yes"/>
      <point x="591.5486111111111" y="721.0625"/>
      <point x="622.1736111111111" y="689.8819444444445"/>
      <point x="622.1736111111111" y="657.6666666666666" type="curve" smooth="yes"/>
      <point x="622.1736111111111" y="629.0972222222222"/>
      <point x="598.9861111111111" y="606.1666666666666"/>
      <point x="556.1527777777778" y="606.1666666666666" type="curve" smooth="yes"/>
      <point x="504.5138888888889" y="606.1666666666666"/>
      <point x="454.3888888888889" y="660.7222222222222"/>
      <point x="401.4583333333333" y="660.7222222222222" type="curve" smooth="yes"/>
      <point x="362.46527777777777" y="660.7222222222222"/>
      <point x="331.74522968058375" y="615.5217149886582"/>
      <point x="311.1666666666667" y="542.5" type="curve" smooth="yes"/>
      <point x="263.8184943026957" y="375.30021980914194"/>
      <point x="237.56944444444446" y="322.7083333333333"/>
      <point x="232.29166666666666" y="274.80555555555554" type="curve"/>
    </contour>
    <contour>
      <point x="268.38194444444446" y="186.53472222222223" type="curve"/>
      <point x="336.0" y="208.875" type="line"/>
      <point x="371.50694444444446" y="103.91666666666666"/>
      <point x="392.5486111111111" y="78.11805555555556"/>
      <point x="419.53472222222223" y="78.11805555555556" type="curve" smooth="yes"/>
      <point x="456.875" y="78.11805555555556"/>
      <point x="464.8574074074074" y="121.57638888888889"/>
      <point x="482.8333333333333" y="121.57638888888889" type="curve" smooth="yes"/>
      <point x="497.4513888888889" y="121.57638888888889"/>
      <point x="505.84027777777777" y="113.13657407407408"/>
      <point x="505.84027777777777" y="95.78472222222223" type="curve" smooth="yes"/>
      <point x="505.84027777777777" y="31.930555555555557"/>
      <point x="447.6458333333333" y="-15.0"/>
      <point x="377.75694444444446" y="-15.0" type="curve" smooth="yes"/>
      <point x="328.40117521367523" y="-15.0"/>
      <point x="292.75694444444446" y="23.88888888888889"/>
    </contour>
  </outline>
</glyph>
<glyph name="l" format="2">
  <advance width="265.7986111111111"/>
  <unicode hex="006C"/>
  <outline>
    <contour>
      <point x="410.9166666666667" y="720.625" type="curve" smooth="yes"/>
      <point x="330.1952777777778" y="720.625"/>
      <point x="257.1311710847487" y="663.5473108258292"/>
      <point x="219.26388888888889" y="546.0347222222222" type="curve" smooth="yes"/>
      <point x="102.43055555555556" y="182.25" type="line" smooth="yes"/>
      <point x="86.87468272535465" y="133.73169445387367"/>
      <point x="77.77083333333333" y="104.0919540229885"/>
      <point x="77.77083333333333" y="62.486111111111114" type="curve" smooth="yes"/>
      <point x="77.77083333333333" y="17.483333333333334"/>
      <point x="104.77951388888889" y="-12.36111111111111"/>
      <point x="156.33333333333334" y="-12.36111111111111" type="curve" smooth="yes"/>
      <point x="234.7155303030303" y="-12.36111111111111"/>
      <point x="287.0763888888889" y="49.43055555555556"/>
      <point x="287.0763888888889" y="98.15277777777777" type="curve" smooth="yes"/>
      <point x="287.0763888888889" y="108.63194444444444"/>
      <point x="282.97222222222223" y="119.11111111111111"/>
      <point x="274.2361111111111" y="119.11111111111111" type="curve" smooth="yes"/>
      <point x="268.93055555555554" y="119.11111111111111"/>
      <point x="263.9513888888889" y="117.85416666666667"/>
      <point x="261.24305555555554" y="112.09027777777777" type="curve" smooth="yes"/>
      <point x="252.7482036074228" y="85.8627628281697"/>
      <point x="239.64962121212122" y="76.09027777777777"/>
      <point x="222.57638888888889" y="76.09027777777777" type="curve" smooth="yes"/>
      <point x="203.47376543209876" y="76.09027777777777"/>
      <point x="192.67361111111111" y="91.19823581560283"/>
      <point x="192.67361111111111" y="120.46527777777777" type="curve" smooth="yes"/>
      <point x="192.67361111111111" y="145.59140924161764"/>
      <point x="199.42555487381506" y="173.05900217146043"/>
      <point x="211.30555555555554" y="212.29861111111111" type="curve" smooth="yes"/>
      <point x="299.9236111111111" y="496.5" type="line" smooth="yes"/>
      <point x="313.04007324598285" y="536.8168354126232"/>
      <point x="287.28472222222223" y="568.5302128427129"/>
      <point x="287.28472222222223" y="591.2291666666666" type="curve" smooth="yes"/>
      <point x="287.28472222222223" y="619.3031705948373"/>
      <point x="303.6816394153351" y="635.6319444444445"/>
      <point x="331.6111111111111" y="635.6319444444445" type="curve" smooth="yes"/>
      <point x="354.3269135802469" y="635.6319444444445"/>
      <point x="373.1332070707071" y="608.4375"/>
      <point x="413.25694444444446" y="608.4375" type="curve" smooth="yes"/>
      <point x="456.1213348765432" y="608.4375"/>
      <point x="476.5833333333333" y="635.3745659722222"/>
      <point x="476.5833333333333" y="665.3125" type="curve" smooth="yes"/>
      <point x="476.5833333333333" y="694.75"/>
      <point x="456.8305555555556" y="720.625"/>
    </contour>
  </outline>
</glyph>
<glyph name="m" format="2">
  <advance width="771.7152777777778"/>
  <unicode hex="006D"/>
  <outline>
    <contour>
      <point x="348.7916666666667" y="95.84027777777777" type="line" smooth="yes"/>
      <point x="339.72222222222223" y="73.13888888888889"/>
      <point x="333.88194444444446" y="56.93055555555556"/>
      <point x="334.8263888888889" y="35.604166666666664" type="curve" smooth="yes"/>
      <point x="335.2986111111111" y="3.9722222222222223"/>
      <point x="354.43055555555554" y="-12.36111111111111"/>
      <point x="385.3541666666667" y="-12.36111111111111" type="curve" smooth="yes"/>
      <point x="428.2361111111111" y="-12.36111111111111"/>
      <point x="466.3958333333333" y="8.118055555555555"/>
      <point x="466.5763888888889" y="39.89583333333333" type="curve" smooth="yes"/>
      <point x="466.6666666666667" y="53.58333333333333"/>
      <point x="456.53472222222223" y="64.125"/>
      <point x="455.59027777777777" y="77.34027777777777" type="curve" smooth="yes"/>
      <point x="455.11805555555554" y="95.76388888888889"/>
      <point x="460.19444444444446" y="123.5"/>
      <point x="483.0625" y="182.83333333333334" type="curve" smooth="yes"/>
      <point x="535.5433073007754" y="320.1951291732785"/>
      <point x="599.2227454337899" y="383.02777777777777"/>
      <point x="650.0416666666666" y="383.02777777777777" type="curve" smooth="yes"/>
      <point x="671.5138888888889" y="383.02777777777777"/>
      <point x="679.9861111111111" y="368.6111111111111"/>
      <point x="679.9861111111111" y="351.375" type="curve" smooth="yes"/>
      <point x="679.9861111111111" y="332.99305555555554"/>
      <point x="674.2875870360393" y="308.0344623433511"/>
      <point x="664.2291666666666" y="282.4583333333333" type="curve" smooth="yes"/>
      <point x="604.6597222222222" y="124.26388888888889" type="line" smooth="yes"/>
      <point x="592.0833333333334" y="93.32638888888889"/>
      <point x="584.3263888888889" y="68.72222222222223"/>
      <point x="584.7986111111111" y="43.24305555555556" type="curve" smooth="yes"/>
      <point x="585.7430555555555" y="12.45138888888889"/>
      <point x="611.1111111111111" y="-12.36111111111111"/>
      <point x="657.4861111111111" y="-12.36111111111111" type="curve" smooth="yes"/>
      <point x="737.3819444444445" y="-12.36111111111111"/>
      <point x="786.6111111111111" y="36.0"/>
      <point x="786.7916666666666" y="83.51388888888889" type="curve" smooth="yes"/>
      <point x="786.8819444444445" y="98.42361111111111"/>
      <point x="780.7986111111111" y="104.09027777777777"/>
      <point x="773.2430555555555" y="104.09027777777777" type="curve" smooth="yes"/>
      <point x="767.2291666666666" y="104.09027777777777"/>
      <point x="763.8680555555555" y="101.79861111111111"/>
      <point x="758.5277777777778" y="95.23611111111111" type="curve" smooth="yes"/>
      <point x="750.1111111111111" y="73.98611111111111"/>
      <point x="738.5555555555555" y="66.19444444444444"/>
      <point x="724.1458333333334" y="66.19444444444444" type="curve" smooth="yes"/>
      <point x="711.3402777777778" y="66.19444444444444"/>
      <point x="702.0277777777778" y="75.45138888888889"/>
      <point x="702.1180555555555" y="92.18055555555556" type="curve" smooth="yes"/>
      <point x="702.2986111111111" y="113.49305555555556"/>
      <point x="709.5763888888889" y="135.1875"/>
      <point x="718.0486111111111" y="157.5" type="curve" smooth="yes"/>
      <point x="770.0763888888889" y="297.94444444444446" type="line" smooth="yes"/>
      <point x="784.3819444444445" y="335.30555555555554"/>
      <point x="790.9305555555555" y="360.5763888888889"/>
      <point x="790.9305555555555" y="395.0833333333333" type="curve" smooth="yes"/>
      <point x="790.9305555555555" y="436.15972222222223"/>
      <point x="766.9444444444445" y="464.5138888888889"/>
      <point x="723.0416666666666" y="464.5138888888889" type="curve" smooth="yes"/>
      <point x="641.4930555555555" y="464.5138888888889"/>
      <point x="561.4791666666666" y="392.0486111111111"/>
      <point x="480.72222222222223" y="255.54861111111111" type="curve"/>
      <point x="517.8055555555555" y="270.52777777777777" type="line"/>
      <point x="527.3055555555555" y="315.7708333333333"/>
      <point x="547.6388888888889" y="356.00694444444446"/>
      <point x="547.6388888888889" y="395.69444444444446" type="curve" smooth="yes"/>
      <point x="547.6388888888889" y="436.2916666666667"/>
      <point x="524.2291666666666" y="464.5138888888889"/>
      <point x="481.97222222222223" y="464.5138888888889" type="curve" smooth="yes"/>
      <point x="404.90277777777777" y="464.5138888888889"/>
      <point x="312.9375" y="391.375"/>
      <point x="238.23611111111111" y="253.47222222222223" type="curve"/>
      <point x="267.7708333333333" y="277.25694444444446" type="line"/>
      <point x="276.11805555555554" y="345.1388888888889"/>
      <point x="305.7708333333333" y="381.9791666666667"/>
      <point x="304.8263888888889" y="410.09027777777777" type="curve" smooth="yes"/>
      <point x="304.3541666666667" y="443.3263888888889"/>
      <point x="280.50694444444446" y="465.1666666666667"/>
      <point x="244.55555555555554" y="465.1666666666667" type="curve" smooth="yes"/>
      <point x="180.90972222222223" y="465.1666666666667"/>
      <point x="106.22222222222223" y="406.69444444444446"/>
      <point x="107.53472222222223" y="363.8611111111111" type="curve" smooth="yes"/>
      <point x="107.53472222222223" y="350.93055555555554"/>
      <point x="114.79861111111111" y="342.6666666666667"/>
      <point x="126.16666666666667" y="342.6666666666667" type="curve" smooth="yes"/>
      <point x="133.48611111111111" y="342.6666666666667"/>
      <point x="138.26388888888889" y="345.90277777777777"/>
      <point x="144.13194444444446" y="353.1736111111111" type="curve" smooth="yes"/>
      <point x="152.70138888888889" y="374.2291666666667"/>
      <point x="167.20138888888889" y="387.15277777777777"/>
      <point x="183.125" y="387.15277777777777" type="curve" smooth="yes"/>
      <point x="191.84027777777777" y="387.15277777777777"/>
      <point x="199.36805555555554" y="377.7708333333333"/>
      <point x="199.27777777777777" y="364.68055555555554" type="curve" smooth="yes"/>
      <point x="199.1875" y="346.84027777777777"/>
      <point x="195.22222222222223" y="331.9583333333333"/>
      <point x="186.76388888888889" y="310.1111111111111" type="curve" smooth="yes"/>
      <point x="96.54166666666666" y="84.16666666666667" type="line" smooth="yes"/>
      <point x="88.63194444444444" y="65.0"/>
      <point x="83.8125" y="45.854166666666664"/>
      <point x="84.75694444444444" y="28.819444444444443" type="curve" smooth="yes"/>
      <point x="85.22916666666666" y="1.6875"/>
      <point x="102.21527777777777" y="-12.36111111111111"/>
      <point x="131.55555555555554" y="-12.36111111111111" type="curve" smooth="yes"/>
      <point x="178.23611111111111" y="-12.36111111111111"/>
      <point x="220.79166666666666" y="9.243055555555555"/>
      <point x="218.75694444444446" y="39.89583333333333" type="curve" smooth="yes"/>
      <point x="217.75694444444446" y="55.27083333333333"/>
      <point x="212.05555555555554" y="68.59027777777777"/>
      <point x="211.70833333333334" y="83.52777777777777" type="curve" smooth="yes"/>
      <point x="210.74305555555554" y="102.02083333333333"/>
      <point x="213.90972222222223" y="126.88888888888889"/>
      <point x="229.02083333333334" y="163.56944444444446" type="curve" smooth="yes"/>
      <point x="285.9774250843741" y="312.38722318767554"/>
      <point x="349.6364302967564" y="383.59027777777777"/>
      <point x="407.30555555555554" y="383.59027777777777" type="curve" smooth="yes"/>
      <point x="426.05555555555554" y="383.59027777777777"/>
      <point x="433.78472222222223" y="369.2083333333333"/>
      <point x="433.78472222222223" y="350.3541666666667" type="curve" smooth="yes"/>
      <point x="433.78472222222223" y="331.25"/>
      <point x="426.5768557347344" y="307.4946816110001"/>
      <point x="417.43055555555554" y="282.9861111111111" type="curve" smooth="yes"/>
    </contour>
  </outline>
</glyph>
<glyph name="n" format="2">
  <advance width="518.3819444444445"/>
  <unicode hex="006E"/>
  <outline>
    <contour>
      <point x="89.40972222222223" y="342.1041666666667" type="curve" smooth="yes"/>
      <point x="97.29166666666666" y="342.1041666666667"/>
      <point x="102.5625" y="344.21527777777777"/>
      <point x="108.46527777777777" y="352.6458333333333" type="curve" smooth="yes"/>
      <point x="116.29166666666666" y="376.15972222222223"/>
      <point x="133.34027777777777" y="387.625"/>
      <point x="147.1875" y="387.625" type="curve" smooth="yes"/>
      <point x="157.26388888888889" y="387.625"/>
      <point x="164.35416666666666" y="375.5"/>
      <point x="164.26388888888889" y="361.86805555555554" type="curve" smooth="yes"/>
      <point x="164.17361111111111" y="347.93055555555554"/>
      <point x="161.29861111111111" y="334.1388888888889"/>
      <point x="153.36805555555554" y="314.4375" type="curve" smooth="yes"/>
      <point x="63.31944444444444" y="91.15972222222223" type="line" smooth="yes"/>
      <point x="54.25" y="68.58333333333333"/>
      <point x="47.14583333333333" y="49.30520833333333"/>
      <point x="47.49305555555556" y="28.92361111111111" type="curve" smooth="yes"/>
      <point x="47.93055555555556" y="0.6319444444444444"/>
      <point x="65.54947916666666" y="-12.36111111111111"/>
      <point x="95.90972222222223" y="-12.36111111111111" type="curve" smooth="yes"/>
      <point x="145.0" y="-12.36111111111111"/>
      <point x="184.65277777777777" y="10.930555555555555"/>
      <point x="184.30555555555554" y="38.20833333333333" type="curve" smooth="yes"/>
      <point x="184.39583333333331" y="53.05555555555556"/>
      <point x="177.04166666666666" y="71.96527777777777"/>
      <point x="176.69444444444446" y="84.72222222222223" type="curve" smooth="yes"/>
      <point x="176.25694444444446" y="105.32638888888889"/>
      <point x="183.1875" y="135.86111111111111"/>
      <point x="204.63194444444446" y="192.78472222222223" type="curve" smooth="yes"/>
      <point x="255.36563407569315" y="323.6500442159886"/>
      <point x="319.5024452269171" y="383.0486111111111"/>
      <point x="370.25694444444446" y="383.0486111111111" type="curve" smooth="yes"/>
      <point x="390.02777777777777" y="383.0486111111111"/>
      <point x="399.625" y="370.2638888888889"/>
      <point x="399.44444444444446" y="353.1875" type="curve" smooth="yes"/>
      <point x="399.44444444444446" y="333.86498708010333"/>
      <point x="393.31944444444446" y="311.27777777777777"/>
      <point x="384.84722222222223" y="289.93055555555554" type="curve" smooth="yes"/>
      <point x="320.13194444444446" y="123.31944444444444" type="line" smooth="yes"/>
      <point x="307.59027777777777" y="90.86805555555556"/>
      <point x="302.75" y="70.90955488621151"/>
      <point x="302.65972222222223" y="46.65277777777778" type="curve" smooth="yes"/>
      <point x="302.4791666666667" y="14.631944444444445"/>
      <point x="329.56944444444446" y="-12.36111111111111"/>
      <point x="378.2291666666667" y="-12.36111111111111" type="curve" smooth="yes"/>
      <point x="453.2013888888889" y="-12.36111111111111"/>
      <point x="505.03472222222223" y="31.145833333333332"/>
      <point x="505.21527777777777" y="81.26388888888889" type="curve" smooth="yes"/>
      <point x="505.30555555555554" y="96.73611111111111"/>
      <point x="499.22222222222223" y="104.65277777777777"/>
      <point x="491.6666666666667" y="104.65277777777777" type="curve" smooth="yes"/>
      <point x="486.74305555555554" y="104.65277777777777"/>
      <point x="481.1666666666667" y="102.32638888888889"/>
      <point x="478.0763888888889" y="96.92361111111111" type="curve" smooth="yes"/>
      <point x="470.22222222222223" y="73.52777777777777"/>
      <point x="455.9583333333333" y="66.75694444444444"/>
      <point x="440.9513888888889" y="66.75694444444444" type="curve" smooth="yes"/>
      <point x="429.2013888888889" y="66.75694444444444"/>
      <point x="420.4513888888889" y="76.01388888888889"/>
      <point x="420.5416666666667" y="94.88888888888889" type="curve" smooth="yes"/>
      <point x="420.72222222222223" y="110.32638888888889"/>
      <point x="423.74305555555554" y="123.93055555555556"/>
      <point x="428.38194444444446" y="136.46527777777777" type="curve" smooth="yes"/>
      <point x="484.875" y="289.18055555555554" type="line" smooth="yes"/>
      <point x="500.1666666666667" y="330.13194444444446"/>
      <point x="509.9166666666667" y="356.9513888888889"/>
      <point x="509.9166666666667" y="392.90277777777777" type="curve" smooth="yes"/>
      <point x="509.9166666666667" y="435.0"/>
      <point x="487.0208333333333" y="464.5138888888889"/>
      <point x="442.13194444444446" y="464.5138888888889" type="curve" smooth="yes"/>
      <point x="366.56944444444446" y="464.5138888888889"/>
      <point x="282.68055555555554" y="402.6875"/>
      <point x="198.72222222222223" y="252.22222222222223" type="curve"/>
      <point x="231.92361111111111" y="277.65972222222223" type="line"/>
      <point x="236.67361111111111" y="314.68055555555554"/>
      <point x="269.8125" y="371.9375"/>
      <point x="269.8125" y="409.375" type="curve" smooth="yes"/>
      <point x="269.8125" y="445.31944444444446"/>
      <point x="244.15277777777777" y="464.5138888888889"/>
      <point x="207.42361111111111" y="464.5138888888889" type="curve" smooth="yes"/>
      <point x="136.23611111111111" y="464.5138888888889"/>
      <point x="73.26388888888889" y="403.4236111111111"/>
      <point x="72.99305555555556" y="363.2986111111111" type="curve" smooth="yes"/>
      <point x="72.99305555555556" y="349.27777777777777"/>
      <point x="80.85416666666666" y="342.1041666666667"/>
    </contour>
  </outline>
</glyph>
<glyph name="o" format="2">
  <advance width="461.8263888888889"/>
  <unicode hex="006F"/>
  <outline>
    <contour>
      <point x="327.40277777777777" y="464.5138888888889" type="curve" smooth="yes"/>
      <point x="167.72222222222223" y="464.5138888888889"/>
      <point x="43.020833333333336" y="296.74305555555554"/>
      <point x="43.020833333333336" y="160.38888888888889" type="curve" smooth="yes"/>
      <point x="43.020833333333336" y="50.875"/>
      <point x="101.47916666666666" y="-12.36111111111111"/>
      <point x="189.32638888888889" y="-12.36111111111111" type="curve" smooth="yes"/>
      <point x="336.78472222222223" y="-12.36111111111111"/>
      <point x="479.5208333333333" y="136.54166666666666"/>
      <point x="479.5208333333333" y="299.9861111111111" type="curve" smooth="yes"/>
      <point x="479.5208333333333" y="405.90972222222223"/>
      <point x="422.18055555555554" y="464.5138888888889"/>
    </contour>
    <contour>
      <point x="219.45138888888889" y="45.576388888888886" type="curve" smooth="yes"/>
      <point x="181.31125621890547" y="45.576388888888886"/>
      <point x="158.44444444444446" y="76.1746369949495"/>
      <point x="158.44444444444446" y="153.95138888888889" type="curve" smooth="yes"/>
      <point x="158.44444444444446" y="290.9594945355191"/>
      <point x="241.82004656390495" y="412.68055555555554"/>
      <point x="302.3125" y="412.68055555555554" type="curve" smooth="yes"/>
      <point x="341.24861111111113" y="412.68055555555554"/>
      <point x="361.9513888888889" y="383.2456790123457"/>
      <point x="361.9513888888889" y="313.11805555555554" type="curve" smooth="yes"/>
      <point x="361.9513888888889" y="155.88263201320132"/>
      <point x="277.679377842755" y="45.576388888888886"/>
    </contour>
  </outline>
</glyph>
<glyph name="p" format="2">
  <advance width="489.63194444444446"/>
  <unicode hex="0070"/>
  <outline>
    <contour>
      <point x="310.6736111111111" y="479.0" type="line" smooth="yes"/>
      <point x="318.12152948016336" y="506.8047077166955"/>
      <point x="319.625" y="513.1434461805555"/>
      <point x="319.625" y="520.0416666666666" type="curve" smooth="yes"/>
      <point x="319.625" y="540.4483204134367"/>
      <point x="297.0777777777778" y="561.7222222222222"/>
      <point x="278.5625" y="561.7222222222222" type="curve" smooth="yes"/>
      <point x="252.0282738095238" y="561.7222222222222"/>
      <point x="233.10978606824932" y="547.7675052367218"/>
      <point x="221.875" y="507.9791666666667" type="curve" smooth="yes"/>
      <point x="29.9375" y="-154.88888888888889" type="line" smooth="yes"/>
      <point x="23.97222222222222" y="-175.0"/>
      <point x="6.715277777777779" y="-185.94444444444446"/>
      <point x="-18.979166666666664" y="-193.66666666666666" type="curve" smooth="yes"/>
      <point x="-36.99837266852741" y="-202.23956991767457"/>
      <point x="-43.28472222222222" y="-210.04861111111111"/>
      <point x="-43.28472222222222" y="-216.98611111111111" type="curve" smooth="yes"/>
      <point x="-43.28472222222222" y="-230.0625"/>
      <point x="-34.827818381263896" y="-236.74105834756648"/>
      <point x="-23.208333333333336" y="-236.58333333333334" type="curve" smooth="yes"/>
      <point x="175.10416666666666" y="-228.94444444444446" type="line" smooth="yes"/>
      <point x="187.71344812650725" y="-228.75911678946918"/>
      <point x="196.125" y="-220.91666666666666"/>
      <point x="196.125" y="-209.81944444444446" type="curve" smooth="yes"/>
      <point x="196.125" y="-200.84722222222223"/>
      <point x="192.78543405946095" y="-192.245344755642"/>
      <point x="179.91666666666666" y="-187.86111111111111" type="curve" smooth="yes"/>
      <point x="147.36111111111111" y="-181.55555555555554"/>
      <point x="137.25" y="-172.61111111111111"/>
      <point x="137.25" y="-156.66666666666666" type="curve" smooth="yes"/>
      <point x="137.25" y="-145.94444444444446"/>
      <point x="141.70138888888889" y="-131.27777777777777"/>
      <point x="145.02777777777777" y="-118.61111111111111" type="curve" smooth="yes"/>
    </contour>
    <contour>
      <point x="105.70833333333333" y="294.0763888888889" type="curve" smooth="yes"/>
      <point x="119.32638888888889" y="294.0763888888889"/>
      <point x="130.34722222222223" y="301.72222222222223"/>
      <point x="140.80555555555554" y="310.5486111111111" type="curve" smooth="yes"/>
      <point x="211.1316781336708" y="379.72126247025636"/>
      <point x="263.19444444444446" y="406.7361111111111"/>
      <point x="326.03472222222223" y="406.7361111111111" type="curve" smooth="yes"/>
      <point x="384.1458333333333" y="406.7361111111111"/>
      <point x="419.0416666666667" y="367.0182980599647"/>
      <point x="419.0416666666667" y="288.7708333333333" type="curve" smooth="yes"/>
      <point x="419.0416666666667" y="132.09617306155076"/>
      <point x="331.15801337987205" y="39.888888888888886"/>
      <point x="248.8125" y="39.888888888888886" type="curve" smooth="yes"/>
      <point x="201.3693181818182" y="39.888888888888886"/>
      <point x="176.0015110881472" y="53.19218689696217"/>
      <point x="152.41666666666666" y="109.51388888888889" type="curve"/>
      <point x="110.58333333333333" y="87.94444444444444" type="line"/>
      <point x="127.83667122626039" y="23.316726251396126"/>
      <point x="171.30633960573476" y="-12.92361111111111"/>
      <point x="247.09027777777777" y="-12.92361111111111" type="curve" smooth="yes"/>
      <point x="382.5327803107058" y="-12.92361111111111"/>
      <point x="529.4236111111111" y="117.90555555555555"/>
      <point x="529.4236111111111" y="300.0625" type="curve" smooth="yes"/>
      <point x="529.4236111111111" y="405.3080065359477"/>
      <point x="470.9166666666667" y="464.5138888888889"/>
      <point x="380.6111111111111" y="464.5138888888889" type="curve" smooth="yes"/>
      <point x="257.34027777777777" y="464.5138888888889"/>
      <point x="177.66807843072564" y="420.34965617413775"/>
      <point x="103.14583333333333" y="342.9861111111111" type="curve" smooth="yes"/>
      <point x="97.09722222222223" y="336.9375"/>
      <point x="89.125" y="326.3125"/>
      <point x="89.125" y="314.74305555555554" type="curve" smooth="yes"/>
      <point x="89.125" y="300.77777777777777"/>
      <point x="97.20833333333333" y="294.0763888888889"/>
    </contour>
  </outline>
</glyph>
<glyph name="s" format="2">
  <advance width="376.93055555555554"/>
  <unicode hex="0073"/>
  <outline>
    <contour>
      <point x="221.48611111111111" y="31.23611111111111" type="curve" smooth="yes"/>
      <point x="191.7670138888889" y="31.23611111111111"/>
      <point x="174.32926021470638" y="47.03015291056572"/>
      <point x="159.08333333333334" y="87.81944444444444" type="curve" smooth="yes"/>
      <point x="145.27083333333334" y="125.0"/>
      <point x="126.625" y="143.32638888888889"/>
      <point x="102.51388888888889" y="143.32638888888889" type="curve" smooth="yes"/>
      <point x="72.90277777777777" y="143.32638888888889"/>
      <point x="54.736111111111114" y="121.5625"/>
      <point x="54.736111111111114" y="87.875" type="curve" smooth="yes"/>
      <point x="54.736111111111114" y="36.47222222222222"/>
      <point x="96.63194444444444" y="-12.36111111111111"/>
      <point x="198.30555555555554" y="-12.36111111111111" type="curve" smooth="yes"/>
      <point x="303.80555555555554" y="-12.36111111111111"/>
      <point x="377.8958333333333" y="50.63194444444444"/>
      <point x="377.8958333333333" y="128.10416666666666" type="curve" smooth="yes"/>
      <point x="377.8958333333333" y="173.16666666666666"/>
      <point x="359.93468319860006" y="203.86224793932124"/>
      <point x="301.1388888888889" y="251.38888888888889" type="curve" smooth="yes"/>
      <point x="236.84722222222223" y="300.15972222222223"/>
      <point x="220.36111111111111" y="324.6736111111111"/>
      <point x="220.36111111111111" y="357.4791666666667" type="curve" smooth="yes"/>
      <point x="220.36111111111111" y="394.5208333333333"/>
      <point x="244.33333333333334" y="420.3541666666667"/>
      <point x="276.5138888888889" y="420.3541666666667" type="curve" smooth="yes"/>
      <point x="306.00694444444446" y="420.3541666666667"/>
      <point x="326.81392795702374" y="402.84736677688966"/>
      <point x="339.8541666666667" y="369.0416666666667" type="curve" smooth="yes"/>
      <point x="352.7916666666667" y="338.0763888888889"/>
      <point x="371.80555555555554" y="323.28472222222223"/>
      <point x="394.0833333333333" y="323.28472222222223" type="curve" smooth="yes"/>
      <point x="425.9861111111111" y="323.28472222222223"/>
      <point x="447.13194444444446" y="343.3611111111111"/>
      <point x="447.13194444444446" y="379.9513888888889" type="curve" smooth="yes"/>
      <point x="447.13194444444446" y="422.65972222222223"/>
      <point x="402.5486111111111" y="465.6388888888889"/>
      <point x="320.6875" y="465.6388888888889" type="curve" smooth="yes"/>
      <point x="200.63888888888889" y="465.6388888888889"/>
      <point x="127.80555555555556" y="389.2916666666667"/>
      <point x="127.80555555555556" y="314.63194444444446" type="curve" smooth="yes"/>
      <point x="127.80555555555556" y="263.15277777777777"/>
      <point x="152.31487259078975" y="226.82275433848778"/>
      <point x="210.96527777777777" y="181.60416666666666" type="curve" smooth="yes"/>
      <point x="271.6388888888889" y="135.90277777777777"/>
      <point x="281.34722222222223" y="115.04861111111111"/>
      <point x="281.34722222222223" y="84.66666666666667" type="curve" smooth="yes"/>
      <point x="281.34722222222223" y="50.99305555555556"/>
      <point x="254.6121632996633" y="31.23611111111111"/>
    </contour>
  </outline>
</glyph>
<glyph name="v" format="2">
  <advance width="486.96527777777777"/>
  <unicode hex="0076"/>
  <outline>
    <contour>
      <point x="537.8888888888889" y="373.68055555555554" type="curve" smooth="yes"/>
      <point x="537.8888888888889" y="434.38194444444446"/>
      <point x="512.1736111111111" y="464.5138888888889"/>
      <point x="475.3541666666667" y="464.5138888888889" type="curve" smooth="yes"/>
      <point x="434.78472222222223" y="464.5138888888889"/>
      <point x="404.00694444444446" y="433.8611111111111"/>
      <point x="404.00694444444446" y="395.5208333333333" type="curve" smooth="yes"/>
      <point x="404.00694444444446" y="369.8541666666667"/>
      <point x="414.9166666666667" y="349.625"/>
      <point x="435.6041666666667" y="334.21527777777777" type="curve" smooth="yes"/>
      <point x="457.2361111111111" y="318.9166666666667"/>
      <point x="465.09722222222223" y="296.3363095238095"/>
      <point x="465.09722222222223" y="269.1111111111111" type="curve" smooth="yes"/>
      <point x="465.09722222222223" y="159.04166666666666"/>
      <point x="376.60130718954247" y="61.40972222222222"/>
      <point x="303.65972222222223" y="61.40972222222222" type="curve" smooth="yes"/>
      <point x="258.7929438058748" y="61.40972222222222"/>
      <point x="239.75" y="91.59918091168092"/>
      <point x="239.75" y="135.40972222222223" type="curve" smooth="yes"/>
      <point x="239.75" y="197.07307247151"/>
      <point x="270.0529538447855" y="247.47666600287897"/>
      <point x="345.05555555555554" y="361.09027777777777" type="curve" smooth="yes"/>
      <point x="373.85080523837007" y="400.3775620682753"/>
      <point x="378.1388888888889" y="420.38617149758454"/>
      <point x="378.1388888888889" y="441.125" type="curve" smooth="yes"/>
      <point x="378.1388888888889" y="457.0442073170732"/>
      <point x="370.34558823529414" y="464.5138888888889"/>
      <point x="354.53472222222223" y="464.5138888888889" type="curve" smooth="yes"/>
      <point x="340.05555555555554" y="464.5138888888889"/>
      <point x="330.0625" y="449.69444444444446"/>
      <point x="312.6041666666667" y="449.69444444444446" type="curve" smooth="yes"/>
      <point x="290.96527777777777" y="449.69444444444446"/>
      <point x="248.28472222222223" y="463.74305555555554"/>
      <point x="230.15277777777777" y="463.74305555555554" type="curve" smooth="yes"/>
      <point x="145.15972222222223" y="463.74305555555554"/>
      <point x="85.5" y="382.8519888231427"/>
      <point x="85.5" y="308.3888888888889" type="curve" smooth="yes"/>
      <point x="85.5" y="265.86805555555554"/>
      <point x="106.0" y="241.26388888888889"/>
      <point x="137.27777777777777" y="241.26388888888889" type="curve" smooth="yes"/>
      <point x="159.20833333333334" y="241.26388888888889"/>
      <point x="180.13888888888889" y="254.21277777777777"/>
      <point x="180.13888888888889" y="278.625" type="curve" smooth="yes"/>
      <point x="180.13888888888889" y="294.8121693121693"/>
      <point x="171.16775789052176" y="306.937136258715"/>
      <point x="149.40972222222223" y="312.00694444444446" type="curve" smooth="yes"/>
      <point x="131.88888888888889" y="316.40972222222223"/>
      <point x="124.15972222222223" y="325.3958333333333"/>
      <point x="124.15972222222223" y="339.3958333333333" type="curve" smooth="yes"/>
      <point x="124.15972222222223" y="352.4375"/>
      <point x="135.23611111111111" y="365.09722222222223"/>
      <point x="157.27777777777777" y="365.09722222222223" type="curve" smooth="yes"/>
      <point x="190.35416666666666" y="365.09722222222223"/>
      <point x="245.4375" y="346.81944444444446"/>
      <point x="282.7708333333333" y="346.81944444444446" type="curve" smooth="yes"/>
      <point x="309.1167608286253" y="346.81944444444446"/>
      <point x="318.2481952456262" y="384.48791586548487"/>
      <point x="306.94444444444446" y="402.5416666666667" type="curve"/>
      <point x="306.94444444444446" y="367.375"/>
      <point x="295.31944444444446" y="343.625"/>
      <point x="256.75" y="303.24305555555554" type="curve" smooth="yes"/>
      <point x="162.12481257307863" y="194.46253037424157"/>
      <point x="116.625" y="140.09495940857184"/>
      <point x="116.625" y="77.85416666666667" type="curve" smooth="yes"/>
      <point x="116.625" y="24.010553397038752"/>
      <point x="162.11847461685824" y="-12.36111111111111"/>
      <point x="237.38888888888889" y="-12.36111111111111" type="curve" smooth="yes"/>
      <point x="383.7208097928437" y="-12.36111111111111"/>
      <point x="537.8888888888889" y="152.5559163059163"/>
    </contour>
  </outline>
</glyph>
<glyph name="w" format="2">
  <advance width="687.9791666666666"/>
  <unicode hex="0077"/>
  <outline>
    <contour>
      <point x="511.7916666666667" y="464.5138888888889" type="curve" smooth="yes"/>
      <point x="494.96678743961354" y="464.5138888888889"/>
      <point x="476.3958333333333" y="449.11805555555554"/>
      <point x="457.78472222222223" y="415.43055555555554" type="curve" smooth="yes"/>
      <point x="421.49305555555554" y="348.5833333333333"/>
      <point x="389.125" y="227.35416666666666"/>
      <point x="389.125" y="119.55555555555556" type="curve" smooth="yes"/>
      <point x="389.125" y="32.38194444444444"/>
      <point x="421.27777777777777" y="-12.36111111111111"/>
      <point x="488.4861111111111" y="-12.36111111111111" type="curve" smooth="yes"/>
      <point x="593.6676907322069" y="-12.36111111111111"/>
      <point x="736.6875" y="149.63888888888889"/>
      <point x="736.6875" y="367.1041666666667" type="curve" smooth="yes"/>
      <point x="736.6875" y="439.2708333333333"/>
      <point x="710.5" y="464.9861111111111"/>
      <point x="673.7361111111111" y="464.9861111111111" type="curve" smooth="yes"/>
      <point x="634.2916666666666" y="464.9861111111111"/>
      <point x="602.6041666666666" y="435.84027777777777"/>
      <point x="602.6041666666666" y="398.9375" type="curve" smooth="yes"/>
      <point x="602.6041666666666" y="375.0"/>
      <point x="609.0069444444445" y="357.6388888888889"/>
      <point x="633.0208333333334" y="335.0138888888889" type="curve" smooth="yes"/>
      <point x="651.7708333333334" y="318.59722222222223"/>
      <point x="663.6597222222222" y="294.81944444444446"/>
      <point x="663.6597222222222" y="259.7291666666667" type="curve" smooth="yes"/>
      <point x="663.6597222222222" y="150.92361111111111"/>
      <point x="593.9375" y="68.79861111111111"/>
      <point x="527.6527777777778" y="68.79861111111111" type="curve" smooth="yes"/>
      <point x="485.6458333333333" y="68.79861111111111"/>
      <point x="450.5416666666667" y="105.68055555555556"/>
      <point x="453.77777777777777" y="176.71527777777777" type="curve"/>
      <point x="398.9589087764092" y="88.03974819061864"/>
      <point x="352.05718599033816" y="60.8125"/>
      <point x="301.5" y="60.8125" type="curve" smooth="yes"/>
      <point x="264.4702380952381" y="60.8125"/>
      <point x="245.02777777777777" y="89.7765522875817"/>
      <point x="245.02777777777777" y="135.52083333333334" type="curve"/>
      <point x="245.02777777777777" y="194.7251984126984"/>
      <point x="273.0229053990931" y="254.14639326671983"/>
      <point x="345.8541666666667" y="358.47222222222223" type="curve" smooth="yes"/>
      <point x="375.6041666666667" y="401.6041666666667"/>
      <point x="380.3888888888889" y="422.15972222222223"/>
      <point x="380.3888888888889" y="440.59722222222223" type="curve" smooth="yes"/>
      <point x="380.3888888888889" y="457.25"/>
      <point x="371.4375" y="464.5138888888889"/>
      <point x="356.22222222222223" y="464.5138888888889" type="curve" smooth="yes"/>
      <point x="341.21527777777777" y="464.5138888888889"/>
      <point x="331.1875" y="449.13194444444446"/>
      <point x="312.6388888888889" y="449.13194444444446" type="curve" smooth="yes"/>
      <point x="293.6388888888889" y="449.13194444444446"/>
      <point x="251.90972222222223" y="463.74305555555554"/>
      <point x="227.34027777777777" y="463.74305555555554" type="curve" smooth="yes"/>
      <point x="143.01388888888889" y="463.74305555555554"/>
      <point x="85.5" y="382.88194444444446"/>
      <point x="85.5" y="306.80555555555554" type="curve" smooth="yes"/>
      <point x="85.5" y="266.3958333333333"/>
      <point x="106.5625" y="241.26388888888889"/>
      <point x="137.875" y="241.26388888888889" type="curve" smooth="yes"/>
      <point x="163.63888888888889" y="241.26388888888889"/>
      <point x="180.13888888888889" y="254.40277777777777"/>
      <point x="180.13888888888889" y="278.09722222222223" type="curve" smooth="yes"/>
      <point x="180.13888888888889" y="295.1736111111111"/>
      <point x="169.15277777777777" y="307.2916666666667"/>
      <point x="152.54166666666666" y="312.1111111111111" type="curve" smooth="yes"/>
      <point x="132.55555555555554" y="319.15277777777777"/>
      <point x="125.84722222222223" y="328.7361111111111"/>
      <point x="125.84722222222223" y="338.34027777777777" type="curve" smooth="yes"/>
      <point x="125.84722222222223" y="353.49305555555554"/>
      <point x="135.30555555555554" y="365.09722222222223"/>
      <point x="156.68055555555554" y="365.09722222222223" type="curve" smooth="yes"/>
      <point x="189.82638888888889" y="365.09722222222223"/>
      <point x="244.55555555555554" y="347.34722222222223"/>
      <point x="283.6111111111111" y="347.34722222222223" type="curve" smooth="yes"/>
      <point x="299.34722222222223" y="347.34722222222223"/>
      <point x="320.92725994887616" y="378.96162894001276"/>
      <point x="306.90972222222223" y="401.9791666666667" type="curve"/>
      <point x="306.90972222222223" y="365.6875"/>
      <point x="288.6041666666667" y="336.94444444444446"/>
      <point x="252.875" y="296.2361111111111" type="curve" smooth="yes"/>
      <point x="150.09331237364424" y="176.82915739633705"/>
      <point x="122.46527777777777" y="125.06944444444444"/>
      <point x="122.46527777777777" y="73.49305555555556" type="curve"/>
      <point x="122.46527777777777" y="22.69436813186813"/>
      <point x="161.07381156930126" y="-12.36111111111111"/>
      <point x="222.31944444444446" y="-12.36111111111111" type="curve" smooth="yes"/>
      <point x="336.1133072174739" y="-12.36111111111111"/>
      <point x="448.7022780096012" y="84.59161958618213"/>
      <point x="520.7291666666666" y="287.8888888888889" type="curve" smooth="yes"/>
      <point x="536.4861111111111" y="330.4861111111111"/>
      <point x="546.7013888888889" y="371.9166666666667"/>
      <point x="546.7013888888889" y="407.94444444444446" type="curve" smooth="yes"/>
      <point x="546.7013888888889" y="448.78472222222223"/>
      <point x="532.9722222222222" y="464.5138888888889"/>
    </contour>
  </outline>
</glyph>
<glyph name="x" format="2">
  <advance width="518.4236111111111"/>
  <unicode hex="0078"/>
  <outline>
    <contour>
      <point x="157.58333333333334" y="43.173611111111114" type="curve" smooth="yes"/>
      <point x="140.58333333333334" y="43.173611111111114"/>
      <point x="131.63888888888889" y="55.8125"/>
      <point x="131.63888888888889" y="67.8125" type="curve" smooth="yes"/>
      <point x="132.16666666666666" y="80.52121913580247"/>
      <point x="141.63888888888889" y="99.63271604938271"/>
      <point x="141.63888888888889" y="111.0" type="curve" smooth="yes"/>
      <point x="142.16666666666666" y="136.4375"/>
      <point x="125.01388888888889" y="152.20833333333334"/>
      <point x="98.13888888888889" y="152.20833333333334" type="curve" smooth="yes"/>
      <point x="63.888888888888886" y="152.20833333333334"/>
      <point x="33.65277777777778" y="121.85416666666667"/>
      <point x="33.125" y="76.63888888888889" type="curve" smooth="yes"/>
      <point x="32.06944444444444" y="27.125"/>
      <point x="62.69444444444444" y="-12.833333333333332"/>
      <point x="120.83333333333333" y="-12.833333333333332" type="curve" smooth="yes"/>
      <point x="192.9745654396728" y="-12.833333333333332"/>
      <point x="266.16890138296674" y="48.78949672007657"/>
      <point x="284.15972222222223" y="168.38194444444446" type="curve"/>
      <point x="271.7013888888889" y="168.29166666666666" type="line"/>
      <point x="264.50694444444446" y="36.49305555555556"/>
      <point x="303.40277777777777" y="-12.36111111111111"/>
      <point x="379.2986111111111" y="-12.36111111111111" type="curve" smooth="yes"/>
      <point x="459.44444444444446" y="-12.36111111111111"/>
      <point x="534.5138888888889" y="62.78472222222222"/>
      <point x="535.5694444444445" y="127.54166666666667" type="curve" smooth="yes"/>
      <point x="535.5694444444445" y="139.07638888888889"/>
      <point x="529.2122584541063" y="146.54166666666666"/>
      <point x="520.8402777777778" y="146.54166666666666" type="curve" smooth="yes"/>
      <point x="510.1919802867383" y="146.54166666666666"/>
      <point x="504.4994599351217" y="140.40096422017703"/>
      <point x="498.0833333333333" y="130.04861111111111" type="curve" smooth="yes"/>
      <point x="481.8289883812649" y="85.59687648919379"/>
      <point x="456.1302083333333" y="61.95833333333333"/>
      <point x="425.24305555555554" y="61.95833333333333" type="curve" smooth="yes"/>
      <point x="393.4861111111111" y="61.95833333333333"/>
      <point x="364.69444444444446" y="84.87875101378751"/>
      <point x="366.80555555555554" y="178.27777777777777" type="curve" smooth="yes"/>
      <point x="368.9166666666667" y="294.7042748917749"/>
      <point x="427.0320739171375" y="404.06944444444446"/>
      <point x="487.50694444444446" y="404.06944444444446" type="curve" smooth="yes"/>
      <point x="504.5" y="404.06944444444446"/>
      <point x="514.9305555555555" y="391.9583333333333"/>
      <point x="514.9305555555555" y="377.31944444444446" type="curve" smooth="yes"/>
      <point x="514.4027777777778" y="362.08680555555554"/>
      <point x="503.03472222222223" y="344.7864583333333"/>
      <point x="503.03472222222223" y="332.4861111111111" type="curve" smooth="yes"/>
      <point x="502.50694444444446" y="308.49320330969266"/>
      <point x="517.8763640873016" y="293.7013888888889"/>
      <point x="541.0138888888889" y="293.7013888888889" type="curve" smooth="yes"/>
      <point x="578.1062499999999" y="293.7013888888889"/>
      <point x="609.7569444444445" y="323.49305555555554"/>
      <point x="610.2847222222222" y="373.9861111111111" type="curve" smooth="yes"/>
      <point x="610.8125" y="421.5625"/>
      <point x="580.2222222222222" y="464.5138888888889"/>
      <point x="520.1111111111111" y="464.5138888888889" type="curve" smooth="yes"/>
      <point x="439.805182699478" y="464.5138888888889"/>
      <point x="370.18388800639246" y="386.006828214854"/>
      <point x="357.74305555555554" y="273.75" type="curve"/>
      <point x="366.9236111111111" y="274.69444444444446" type="line"/>
      <point x="372.67361170802434" y="422.28479862711436"/>
      <point x="339.91435185185185" y="464.5138888888889"/>
      <point x="277.4166666666667" y="464.5138888888889" type="curve" smooth="yes"/>
      <point x="187.50199357520788" y="464.5138888888889"/>
      <point x="121.20138888888889" y="391.46172086720867"/>
      <point x="120.14583333333333" y="335.03472222222223" type="curve" smooth="yes"/>
      <point x="120.14583333333333" y="320.3066239316239"/>
      <point x="130.31992337164752" y="313.22222222222223"/>
      <point x="138.8125" y="313.22222222222223" type="curve" smooth="yes"/>
      <point x="149.5019560276248" y="313.22222222222223"/>
      <point x="156.82976069596492" y="320.4935470543129"/>
      <point x="162.625" y="329.1388888888889" type="curve" smooth="yes"/>
      <point x="179.37799273302838" y="374.0397487098912"/>
      <point x="202.00694444444446" y="397.80555555555554"/>
      <point x="232.38888888888889" y="397.80555555555554" type="curve" smooth="yes"/>
      <point x="258.1041666666667" y="397.80555555555554"/>
      <point x="276.25694444444446" y="373.3263888888889"/>
      <point x="274.1458333333333" y="277.4375" type="curve" smooth="yes"/>
      <point x="271.50694444444446" y="140.59345937347038"/>
      <point x="214.27083333333334" y="43.173611111111114"/>
    </contour>
  </outline>
</glyph>
<glyph name="y" format="2">
  <advance width="453.0"/>
  <unicode hex="0079"/>
  <outline>
    <contour>
      <point x="355.0" y="229.5625" type="curve" smooth="yes"/>
      <point x="286.5833333333333" y="16.09722222222222" type="line"/>
      <point x="299.2986111111111" y="26.319444444444443" type="line"/>
      <point x="288.7291666666667" y="139.09027777777777"/>
      <point x="260.77777777777777" y="312.78472222222223"/>
      <point x="244.4375" y="404.0138888888889" type="curve" smooth="yes"/>
      <point x="234.74305555555554" y="451.93055555555554"/>
      <point x="217.79861111111111" y="464.9861111111111"/>
      <point x="191.15972222222223" y="464.9861111111111" type="curve" smooth="yes"/>
      <point x="147.78472222222223" y="464.9861111111111"/>
      <point x="72.52083333333333" y="400.9375"/>
      <point x="72.52083333333333" y="365.4236111111111" type="curve" smooth="yes"/>
      <point x="72.52083333333333" y="352.0763888888889"/>
      <point x="80.25694444444444" y="344.43055555555554"/>
      <point x="92.09722222222223" y="344.43055555555554" type="curve" smooth="yes"/>
      <point x="102.69444444444444" y="344.43055555555554"/>
      <point x="121.04861111111111" y="368.1666666666667"/>
      <point x="134.06944444444446" y="368.1666666666667" type="curve" smooth="yes"/>
      <point x="141.59722222222223" y="368.1666666666667"/>
      <point x="146.36111111111111" y="363.2916666666667"/>
      <point x="150.90277777777777" y="345.875" type="curve" smooth="yes"/>
      <point x="194.25694444444446" y="123.43055555555556"/>
      <point x="220.65277777777777" y="-8.625"/>
      <point x="220.65277777777777" y="-74.0625" type="curve" smooth="yes"/>
      <point x="220.65277777777777" y="-141.32947530864197"/>
      <point x="187.36282343987824" y="-178.65277777777777"/>
      <point x="135.28472222222223" y="-178.65277777777777" type="curve" smooth="yes"/>
      <point x="85.03237480438185" y="-178.65277777777777"/>
      <point x="45.05555555555556" y="-114.25694444444444"/>
      <point x="-3.6111111111111107" y="-114.25694444444444" type="curve" smooth="yes"/>
      <point x="-40.42867231638418" y="-114.25694444444444"/>
      <point x="-60.90277777777778" y="-140.65277777777777"/>
      <point x="-60.90277777777778" y="-169.39583333333334" type="curve" smooth="yes"/>
      <point x="-60.90277777777778" y="-212.01388888888889"/>
      <point x="-20.84722222222222" y="-245.0"/>
      <point x="49.236111111111114" y="-245.0" type="curve" smooth="yes"/>
      <point x="163.0625" y="-245.0"/>
      <point x="255.54166666666666" y="-184.60416666666666"/>
      <point x="303.80555555555554" y="-45.395833333333336" type="curve" smooth="yes"/>
      <point x="405.7638888888889" y="243.45138888888889"/>
      <point x="432.0833333333333" y="301.8611111111111"/>
      <point x="483.375" y="322.5833333333333" type="curve" smooth="yes"/>
      <point x="536.9861111111111" y="343.4513888888889"/>
      <point x="566.3958333333334" y="374.56944444444446"/>
      <point x="566.3958333333334" y="416.1736111111111" type="curve" smooth="yes"/>
      <point x="566.3958333333334" y="441.24305555555554"/>
      <point x="548.4652777777778" y="464.3333333333333"/>
      <point x="519.2152777777778" y="464.3333333333333" type="curve" smooth="yes"/>
      <point x="462.89784263959393" y="464.3333333333333"/>
      <point x="409.784091287731" y="410.34365733812723"/>
    </contour>
  </outline>
</glyph>
<glyph name="z" format="2">
  <advance width="436.3333333333333"/>
  <unicode hex="007A"/>
  <outline>
    <contour>
      <point x="183.27777777777777" y="75.83333333333333" type="curve"/>
      <point x="179.11111111111111" y="118.19444444444444" type="line"/>
      <point x="208.5896188516559" y="118.19444444444444"/>
      <point x="291.62619047619046" y="91.52777777777777"/>
      <point x="331.625" y="91.52777777777777" type="curve" smooth="yes"/>
      <point x="375.5208333333333" y="91.52777777777777"/>
      <point x="397.8333333333333" y="108.77083333333333"/>
      <point x="411.55555555555554" y="148.83333333333334" type="curve" smooth="yes"/>
      <point x="417.0763888888889" y="160.44444444444446"/>
      <point x="425.0138888888889" y="165.27777777777777"/>
      <point x="433.0416666666667" y="165.27777777777777" type="curve" smooth="yes"/>
      <point x="442.6666666666667" y="165.27777777777777"/>
      <point x="448.80555555555554" y="158.75694444444446"/>
      <point x="448.80555555555554" y="144.15277777777777" type="curve" smooth="yes"/>
      <point x="448.80555555555554" y="50.44444444444444"/>
      <point x="384.56944444444446" y="-12.36111111111111"/>
      <point x="313.4861111111111" y="-12.36111111111111" type="curve" smooth="yes"/>
      <point x="217.27083333333334" y="-12.36111111111111"/>
      <point x="197.7736006789947" y="64.11111111111111"/>
      <point x="175.21527777777777" y="64.11111111111111" type="curve" smooth="yes"/>
      <point x="151.4093253968254" y="64.11111111111111"/>
      <point x="143.52204924704924" y="-12.36111111111111"/>
      <point x="94.375" y="-12.36111111111111" type="curve" smooth="yes"/>
      <point x="65.05555555555556" y="-12.36111111111111"/>
      <point x="45.40277777777778" y="3.8077380952380953"/>
      <point x="45.40277777777778" y="34.395833333333336" type="curve" smooth="yes"/>
      <point x="45.40277777777778" y="61.81533446712018"/>
      <point x="72.6307880540653" y="82.90588900939213"/>
      <point x="107.47222222222223" y="103.40277777777777" type="curve" smooth="yes"/>
      <point x="128.46699923553174" y="117.86536745035153"/>
      <point x="207.29744554028085" y="161.5982072884947"/>
      <point x="293.47222222222223" y="237.01388888888889" type="curve" smooth="yes"/>
      <point x="368.9173518607791" y="300.90229563842763"/>
      <point x="400.25" y="333.2613811728395"/>
      <point x="400.25" y="361.7708333333333" type="curve"/>
      <point x="407.50694444444446" y="323.7361111111111" type="line"/>
      <point x="362.0949219895619" y="323.7361111111111"/>
      <point x="243.04661260639523" y="356.3958333333333"/>
      <point x="197.65972222222223" y="356.3958333333333" type="curve" smooth="yes"/>
      <point x="169.21527777777777" y="356.3958333333333"/>
      <point x="159.15972222222223" y="344.75694444444446"/>
      <point x="159.15972222222223" y="331.6458333333333" type="curve" smooth="yes"/>
      <point x="159.15972222222223" y="318.3125"/>
      <point x="166.60182855706162" y="308.0636690548025"/>
      <point x="180.4375" y="301.61805555555554" type="curve" smooth="yes"/>
      <point x="198.06944444444446" y="294.05555555555554"/>
      <point x="206.63194444444446" y="282.46527777777777"/>
      <point x="206.63194444444446" y="266.15972222222223" type="curve" smooth="yes"/>
      <point x="206.63194444444446" y="244.11805555555554"/>
      <point x="187.38888888888889" y="230.97916666666666"/>
      <point x="165.5625" y="230.97916666666666" type="curve" smooth="yes"/>
      <point x="131.4375" y="230.97916666666666"/>
      <point x="108.6875" y="257.7986111111111"/>
      <point x="108.6875" y="305.84027777777777" type="curve" smooth="yes"/>
      <point x="108.6875" y="389.8611111111111"/>
      <point x="166.54861111111111" y="464.5138888888889"/>
      <point x="252.05555555555554" y="464.5138888888889" type="curve" smooth="yes"/>
      <point x="344.75694444444446" y="464.5138888888889"/>
      <point x="357.3611111111111" y="376.09027777777777"/>
      <point x="392.94444444444446" y="376.09027777777777" type="curve" smooth="yes"/>
      <point x="410.375" y="376.09027777777777"/>
      <point x="417.4321732529121" y="386.5657572538576"/>
      <point x="424.1111111111111" y="415.03472222222223" type="curve" smooth="yes"/>
      <point x="431.3958333333333" y="443.72222222222223"/>
      <point x="447.40438711092776" y="464.5138888888889"/>
      <point x="479.375" y="464.5138888888889" type="curve" smooth="yes"/>
      <point x="508.6279761904762" y="464.5138888888889"/>
      <point x="523.0069444444445" y="446.4840909090909"/>
      <point x="523.0069444444445" y="415.9166666666667" type="curve" smooth="yes"/>
      <point x="523.0069444444445" y="386.7217970521542"/>
      <point x="506.28009181071013" y="359.37217017376224"/>
      <point x="454.97222222222223" y="317.9236111111111" type="curve" smooth="yes"/>
      <point x="421.7083333333333" y="291.30555555555554"/>
      <point x="371.2881327556245" y="249.3111299707232"/>
      <point x="311.2083333333333" y="200.19444444444446" type="curve" smooth="yes"/>
      <point x="211.8507600584209" y="118.55254254516831"/>
      <point x="186.92367959170028" y="96.44102824967727"/>
    </contour>
  </outline>
</glyph>
<glyph name="braceleft" format="2">
  <advance width="414.7916666666667"/>
  <unicode hex="007B"/>
  <outline>
    <contour>
      <point x="286.0138888888889" y="289.0" type="curve" smooth="yes"/>
      <point x="288.0486111111111" y="295.6666666666667"/>
      <point x="294.75" y="301.3333333333333"/>
      <point x="303.0138888888889" y="301.3333333333333" type="curve" smooth="yes"/>
      <point x="347.44444444444446" y="301.3333333333333"/>
      <point x="388.38194444444446" y="339.2986111111111"/>
      <point x="400.50694444444446" y="393.99305555555554" type="curve" smooth="yes"/>
      <point x="417.15972222222223" y="468.0138888888889"/>
      <point x="382.13194444444446" y="529.3958333333334"/>
      <point x="397.40277777777777" y="600.1111111111111" type="curve" smooth="yes"/>
      <point x="411.0416666666667" y="668.1388888888889"/>
      <point x="469.2361111111111" y="711.75"/>
      <point x="527.3402777777778" y="711.75" type="curve" smooth="yes"/>
      <point x="556.7708333333334" y="711.75" type="line" smooth="yes"/>
      <point x="573.8263888888889" y="711.75"/>
      <point x="587.25" y="719.9791666666666"/>
      <point x="591.4097222222222" y="733.875" type="curve" smooth="yes"/>
      <point x="594.4791666666666" y="745.2083333333334"/>
      <point x="587.1944444444445" y="755.0"/>
      <point x="569.0138888888889" y="755.0" type="curve" smooth="yes"/>
      <point x="505.2361111111111" y="755.0" type="line" smooth="yes"/>
      <point x="400.0416666666667" y="755.0"/>
      <point x="307.7361111111111" y="692.0"/>
      <point x="284.7916666666667" y="600.0" type="curve" smooth="yes"/>
      <point x="260.44444444444446" y="508.15277777777777"/>
      <point x="332.3611111111111" y="447.47222222222223"/>
      <point x="313.1041666666667" y="373.0625" type="curve" smooth="yes"/>
      <point x="304.9236111111111" y="340.5"/>
      <point x="272.8888888888889" y="322.6111111111111"/>
      <point x="241.70138888888889" y="322.0486111111111" type="curve" smooth="yes"/>
      <point x="211.23611111111111" y="322.0486111111111"/>
      <point x="204.76388888888889" y="343.7361111111111"/>
      <point x="178.04861111111111" y="343.7361111111111" type="curve" smooth="yes"/>
      <point x="153.78472222222223" y="343.7361111111111"/>
      <point x="127.10416666666667" y="318.875"/>
      <point x="119.85416666666667" y="290.0" type="curve" smooth="yes"/>
      <point x="112.13194444444444" y="259.61805555555554"/>
      <point x="124.63888888888889" y="237.31944444444446"/>
      <point x="151.28472222222223" y="237.31944444444446" type="curve" smooth="yes"/>
      <point x="179.25" y="237.31944444444446"/>
      <point x="198.98611111111111" y="257.9513888888889"/>
      <point x="226.07638888888889" y="257.9513888888889" type="curve" smooth="yes"/>
      <point x="259.2291666666667" y="257.3888888888889"/>
      <point x="277.43055555555554" y="235.40972222222223"/>
      <point x="268.8125" y="201.9375" type="curve" smooth="yes"/>
      <point x="250.46527777777777" y="131.4375"/>
      <point x="146.32638888888889" y="69.8125"/>
      <point x="120.54166666666667" y="-30.0" type="curve" smooth="yes"/>
      <point x="97.59722222222223" y="-120.0"/>
      <point x="157.01388888888889" y="-185.0"/>
      <point x="264.31944444444446" y="-185.0" type="curve" smooth="yes"/>
      <point x="322.2916666666667" y="-185.0" type="line" smooth="yes"/>
      <point x="340.47222222222223" y="-185.0"/>
      <point x="353.3888888888889" y="-174.19444444444446"/>
      <point x="355.9861111111111" y="-163.34722222222223" type="curve" smooth="yes"/>
      <point x="360.05555555555554" y="-147.41666666666666"/>
      <point x="350.7916666666667" y="-141.22222222222223"/>
      <point x="333.2083333333333" y="-141.22222222222223" type="curve" smooth="yes"/>
      <point x="304.30555555555554" y="-141.22222222222223" type="line" smooth="yes"/>
      <point x="244.61805555555554" y="-141.22222222222223"/>
      <point x="215.70833333333334" y="-93.53472222222223"/>
      <point x="235.20833333333334" y="-28.0" type="curve" smooth="yes"/>
      <point x="256.1736111111111" y="43.49305555555556"/>
      <point x="324.81944444444446" y="112.56944444444444"/>
      <point x="345.75" y="182.00694444444446" type="curve" smooth="yes"/>
      <point x="361.53472222222223" y="234.08333333333334"/>
      <point x="344.7083333333333" y="276.5763888888889"/>
      <point x="296.75" y="276.5763888888889" type="curve" smooth="yes"/>
      <point x="288.4861111111111" y="276.5763888888889"/>
      <point x="283.8888888888889" y="280.7361111111111"/>
    </contour>
  </outline>
</glyph>
<glyph name="currency" format="2">
  <advance width="524.9444444444445"/>
  <unicode hex="00A4"/>
  <outline>
    <contour>
      <point x="299.13194444444446" y="143.4375" type="curve" smooth="yes"/>
      <point x="199.50694444444446" y="143.4375"/>
      <point x="141.25694444444446" y="227.9375"/>
      <point x="167.38194444444446" y="326.0" type="curve" smooth="yes"/>
      <point x="194.50694444444446" y="425.0625"/>
      <point x="297.13194444444446" y="506.5625"/>
      <point x="396.75694444444446" y="506.5625" type="curve" smooth="yes"/>
      <point x="498.38194444444446" y="506.5625"/>
      <point x="556.6319444444445" y="425.0625"/>
      <point x="529.5069444444445" y="326.0" type="curve" smooth="yes"/>
      <point x="503.38194444444446" y="227.9375"/>
      <point x="400.75694444444446" y="143.4375"/>
    </contour>
    <contour>
      <point x="316.88194444444446" y="204.82638888888889" type="curve" smooth="yes"/>
      <point x="381.4791666666667" y="204.82638888888889"/>
      <point x="451.0416666666667" y="258.40277777777777"/>
      <point x="469.11805555555554" y="326.0" type="curve" smooth="yes"/>
      <point x="487.63194444444446" y="393.59722222222223"/>
      <point x="446.0763888888889" y="446.1736111111111"/>
      <point x="381.4791666666667" y="446.1736111111111" type="curve" smooth="yes"/>
      <point x="313.88194444444446" y="446.1736111111111"/>
      <point x="248.28472222222223" y="393.59722222222223"/>
      <point x="229.77083333333334" y="326.0" type="curve" smooth="yes"/>
      <point x="211.69444444444446" y="258.40277777777777"/>
      <point x="249.28472222222223" y="204.82638888888889"/>
    </contour>
    <contour>
      <point x="344.45833333333337" y="487.5763888888889" type="curve" smooth="yes"/>
      <point x="370.2638888888889" y="511.4375"/>
      <point x="391.5625" y="519.6875"/>
      <point x="403.74305555555554" y="516.3958333333334" type="curve" smooth="yes"/>
      <point x="416.40972222222223" y="526.9513888888889"/>
      <point x="451.9513888888889" y="488.88194444444446"/>
      <point x="455.11805555555554" y="483.6041666666667" type="curve"/>
      <point x="458.8125" y="478.3263888888889"/>
      <point x="426.5625" y="445.625"/>
      <point x="413.89583333333337" y="435.59722222222223" type="curve"/>
      <point x="407.5625" y="430.31944444444446"/>
      <point x="368.29166666666663" y="459.96527777777777"/>
      <point x="347.70833333333337" y="446.7708333333333" type="curve" smooth="yes"/>
      <point x="341.11805555555554" y="454.77777777777777"/>
      <point x="333.4375" y="479.65972222222223"/>
    </contour>
    <contour>
      <point x="363.94444444444446" y="408.4861111111111" type="line"/>
      <point x="350.75" y="421.15277777777777"/>
      <point x="323.9861111111111" y="452.9236111111111"/>
      <point x="319.7638888888889" y="458.2013888888889" type="curve"/>
      <point x="312.375" y="468.2291666666667"/>
      <point x="367.46527777777777" y="516.5555555555555"/>
      <point x="373.27083333333337" y="521.8333333333334" type="curve" smooth="yes"/>
      <point x="390.15277777777777" y="535.6805555555555"/>
      <point x="410.18055555555554" y="537.8611111111111"/>
      <point x="422.94444444444446" y="519.2986111111111" type="curve" smooth="yes"/>
      <point x="432.72222222222223" y="506.5763888888889"/>
      <point x="432.75" y="486.52777777777777"/>
      <point x="429.52083333333337" y="461.03472222222223" type="curve" smooth="yes"/>
    </contour>
    <contour>
      <point x="285.24305555555554" y="208.14583333333334" type="curve"/>
      <point x="292.63194444444446" y="213.42361111111111"/>
      <point x="328.90972222222223" y="186.77083333333334"/>
      <point x="348.96527777777777" y="200.49305555555554" type="curve" smooth="yes"/>
      <point x="356.11805555555554" y="190.79861111111111"/>
      <point x="363.2361111111111" y="166.35416666666666"/>
      <point x="354.84722222222223" y="160.03472222222223" type="curve" smooth="yes"/>
      <point x="325.88194444444446" y="135.13888888888889"/>
      <point x="305.8888888888889" y="126.79861111111111"/>
      <point x="293.0" y="129.5625" type="curve" smooth="yes"/>
      <point x="281.91666666666663" y="119.53472222222223"/>
      <point x="249.875" y="153.66666666666666"/>
      <point x="246.18055555555554" y="158.41666666666666" type="curve"/>
      <point x="243.01388888888889" y="163.16666666666666"/>
      <point x="273.10416666666663" y="198.64583333333331"/>
    </contour>
    <contour>
      <point x="299.1111111111111" y="145.3125" type="curve" smooth="yes"/>
      <point x="302.125" y="143.72916666666666"/>
      <point x="302.53472222222223" y="146.86805555555554"/>
      <point x="307.3125" y="150.6875" type="curve" smooth="yes"/>
      <point x="301.50694444444446" y="145.9375"/>
      <point x="340.40972222222223" y="182.84027777777777"/>
      <point x="333.5486111111111" y="192.86805555555554" type="curve"/>
      <point x="330.38194444444446" y="198.14583333333331"/>
      <point x="340.0" y="178.79861111111111"/>
      <point x="330.5" y="194.63194444444446" type="curve"/>
      <point x="301.99305555555554" y="172.40277777777777" type="line" smooth="yes"/>
      <point x="304.2361111111111" y="151.20138888888889"/>
      <point x="298.66666666666663" y="143.09027777777777"/>
    </contour>
  </outline>
</glyph>
